M48
; DRILL file {KiCad 5.1.2-f72e74a~84~ubuntu18.04.1} date Mon 29 Jul 2019 11:43:24 PM EEST
; FORMAT={-:-/ absolute / inch / decimal}
; #@! TF.CreationDate,2019-07-29T23:43:24+03:00
; #@! TF.GenerationSoftware,Kicad,Pcbnew,5.1.2-f72e74a~84~ubuntu18.04.1
; #@! TF.FileFunction,Plated,1,2,PTH
FMAT,2
INCH
T1C0.0157
T2C0.0236
T3C0.0315
T4C0.0354
T5C0.0362
T6C0.0394
T7C0.0433
T8C0.0512
T9C0.0591
T10C0.0917
%
G90
G05
T1
X2.75Y-4.775
X3.35Y-5.075
X3.4Y-5.275
X3.475Y-6.0
X3.5Y-5.225
X3.625Y-5.275
X3.7Y-5.275
X4.05Y-4.275
X4.35Y-6.0
X4.375Y-5.95
X4.4Y-5.9
T2
X4.725Y-5.0213
X4.725Y-5.1
X2.75Y-4.4963
X2.75Y-4.575
X4.75Y-5.825
X4.8287Y-5.825
X4.5213Y-5.825
X4.6Y-5.825
X5.525Y-5.125
X5.525Y-5.1841
T3
X5.8614Y-5.1843
X5.8614Y-5.4843
X5.35Y-5.1016
X5.35Y-5.2
X4.05Y-4.45
X4.05Y-4.75
X4.525Y-5.35
X4.525Y-5.65
X4.625Y-5.35
X4.625Y-5.65
X4.725Y-5.35
X4.725Y-5.65
X4.825Y-5.35
X4.825Y-5.65
X5.702Y-5.1843
X5.702Y-5.4843
X3.725Y-4.575
X3.725Y-4.6734
X3.725Y-4.8016
X3.725Y-4.9
X4.2Y-4.85
X4.2Y-4.95
X4.2Y-5.05
X4.2Y-5.15
X4.5Y-4.85
X4.5Y-4.95
X4.5Y-5.05
X4.5Y-5.15
X3.925Y-4.45
X3.925Y-4.75
X3.2516Y-4.9
X3.35Y-4.9
X4.925Y-4.65
X4.925Y-4.95
X5.025Y-4.65
X5.025Y-4.95
X5.125Y-4.65
X5.125Y-4.95
X5.225Y-4.65
X5.225Y-4.95
X5.15Y-5.35
X5.15Y-5.45
X5.15Y-5.55
X5.15Y-5.65
X5.15Y-5.75
X5.15Y-5.85
X5.15Y-5.95
X5.45Y-5.35
X5.45Y-5.45
X5.45Y-5.55
X5.45Y-5.65
X5.45Y-5.75
X5.45Y-5.85
X5.45Y-5.95
T4
X3.5Y-4.3
X3.6Y-4.3
T5
X2.925Y-4.0963
X2.925Y-4.175
X3.0234Y-4.0963
X3.0234Y-4.175
T6
X2.85Y-5.375
X2.9Y-5.2884
X2.9366Y-5.425
X2.9866Y-5.3384
X3.0232Y-5.475
X3.0732Y-5.3884
X3.1098Y-5.525
X3.1598Y-5.4384
X3.1964Y-5.575
X3.2464Y-5.4884
X3.283Y-5.625
X3.333Y-5.5384
X3.3696Y-5.675
X3.4196Y-5.5884
X3.4562Y-5.725
X3.5062Y-5.6384
X3.5428Y-5.775
X3.5928Y-5.6884
X3.6294Y-5.825
X3.6794Y-5.7384
T7
X4.5Y-4.175
X4.5Y-4.275
X4.5Y-4.375
X5.5Y-5.0
X5.6Y-5.0
X5.7Y-5.0
T8
X4.725Y-3.825
X4.925Y-3.825
X5.775Y-5.75
X5.775Y-5.95
T9
X3.55Y-4.65
X3.55Y-4.8429
T10
X2.7372Y-3.9896
X3.2112Y-3.9896
T0
M30
