G04 #@! TF.GenerationSoftware,KiCad,Pcbnew,5.1.2-f72e74a~84~ubuntu18.04.1*
G04 #@! TF.CreationDate,2019-07-29T23:39:44+03:00*
G04 #@! TF.ProjectId,tracer,74726163-6572-42e6-9b69-6361645f7063,rev?*
G04 #@! TF.SameCoordinates,Original*
G04 #@! TF.FileFunction,Copper,L2,Bot*
G04 #@! TF.FilePolarity,Positive*
%FSLAX46Y46*%
G04 Gerber Fmt 4.6, Leading zero omitted, Abs format (unit mm)*
G04 Created by KiCad (PCBNEW 5.1.2-f72e74a~84~ubuntu18.04.1) date 2019-07-29 23:39:44*
%MOMM*%
%LPD*%
G04 APERTURE LIST*
%ADD10C,1.700000*%
%ADD11C,1.700000*%
%ADD12C,0.100000*%
%ADD13O,1.600000X1.600000*%
%ADD14R,1.600000X1.600000*%
%ADD15C,1.200000*%
%ADD16R,1.200000X1.200000*%
%ADD17C,1.600000*%
%ADD18C,2.600000*%
%ADD19R,2.600000X2.600000*%
%ADD20C,2.300000*%
%ADD21C,3.500000*%
%ADD22R,1.700000X1.700000*%
%ADD23C,1.800000*%
%ADD24R,1.800000X1.800000*%
%ADD25O,2.000000X1.905000*%
%ADD26R,2.000000X1.905000*%
%ADD27O,1.905000X2.000000*%
%ADD28R,1.905000X2.000000*%
%ADD29C,0.800000*%
%ADD30C,0.635000*%
%ADD31C,1.270000*%
%ADD32C,0.254000*%
G04 APERTURE END LIST*
D10*
X93457341Y-145755295D03*
D11*
X93457341Y-145755295D02*
X93457341Y-145755295D01*
D10*
X92187341Y-147955000D03*
D11*
X92187341Y-147955000D02*
X92187341Y-147955000D01*
D10*
X91257636Y-144485295D03*
D11*
X91257636Y-144485295D02*
X91257636Y-144485295D01*
D10*
X89987636Y-146685000D03*
D11*
X89987636Y-146685000D02*
X89987636Y-146685000D01*
D10*
X89057932Y-143215295D03*
D11*
X89057932Y-143215295D02*
X89057932Y-143215295D01*
D10*
X87787932Y-145415000D03*
D11*
X87787932Y-145415000D02*
X87787932Y-145415000D01*
D10*
X86858227Y-141945295D03*
D11*
X86858227Y-141945295D02*
X86858227Y-141945295D01*
D10*
X85588227Y-144145000D03*
D11*
X85588227Y-144145000D02*
X85588227Y-144145000D01*
D10*
X84658523Y-140675295D03*
D11*
X84658523Y-140675295D02*
X84658523Y-140675295D01*
D10*
X83388523Y-142875000D03*
D11*
X83388523Y-142875000D02*
X83388523Y-142875000D01*
D10*
X82458818Y-139405295D03*
D11*
X82458818Y-139405295D02*
X82458818Y-139405295D01*
D10*
X81188818Y-141605000D03*
D11*
X81188818Y-141605000D02*
X81188818Y-141605000D01*
D10*
X80259114Y-138135295D03*
D11*
X80259114Y-138135295D02*
X80259114Y-138135295D01*
D10*
X78989114Y-140335000D03*
D11*
X78989114Y-140335000D02*
X78989114Y-140335000D01*
D10*
X78059409Y-136865295D03*
D11*
X78059409Y-136865295D02*
X78059409Y-136865295D01*
D10*
X76789409Y-139065000D03*
D11*
X76789409Y-139065000D02*
X76789409Y-139065000D01*
D10*
X75859705Y-135595295D03*
D11*
X75859705Y-135595295D02*
X75859705Y-135595295D01*
D10*
X74589705Y-137795000D03*
D11*
X74589705Y-137795000D02*
X74589705Y-137795000D01*
D10*
X73660000Y-134325295D03*
D11*
X73660000Y-134325295D02*
X73660000Y-134325295D01*
D10*
X72390000Y-136525000D03*
D12*
G36*
X72701122Y-137686122D02*
G01*
X71228878Y-136836122D01*
X72078878Y-135363878D01*
X73551122Y-136213878D01*
X72701122Y-137686122D01*
X72701122Y-137686122D01*
G37*
D13*
X132715000Y-125730000D03*
X125095000Y-118110000D03*
X130175000Y-125730000D03*
X127635000Y-118110000D03*
X127635000Y-125730000D03*
X130175000Y-118110000D03*
X125095000Y-125730000D03*
D14*
X132715000Y-118110000D03*
D15*
X140335000Y-131675000D03*
D16*
X140335000Y-130175000D03*
D17*
X135890000Y-129580000D03*
X135890000Y-132080000D03*
X85090000Y-124460000D03*
X82590000Y-124460000D03*
D18*
X125095000Y-97155000D03*
D19*
X120015000Y-97155000D03*
D18*
X146685000Y-151130000D03*
D19*
X146685000Y-146050000D03*
D15*
X120015000Y-127540000D03*
D16*
X120015000Y-129540000D03*
D15*
X122650000Y-147955000D03*
D16*
X120650000Y-147955000D03*
D15*
X114840000Y-147955000D03*
D16*
X116840000Y-147955000D03*
D17*
X94615000Y-116205000D03*
X94615000Y-118705000D03*
X94615000Y-121960000D03*
X94615000Y-124460000D03*
D20*
X90170000Y-123010000D03*
X90170000Y-118110000D03*
D21*
X81565000Y-101335000D03*
X69525000Y-101335000D03*
D10*
X74295000Y-104045000D03*
X76795000Y-104045000D03*
X76795000Y-106045000D03*
D22*
X74295000Y-106045000D03*
D15*
X69850000Y-114205000D03*
D16*
X69850000Y-116205000D03*
D13*
X102870000Y-113030000D03*
D17*
X102870000Y-120650000D03*
D13*
X99695000Y-120650000D03*
D17*
X99695000Y-113030000D03*
D23*
X91440000Y-109220000D03*
D24*
X88900000Y-109220000D03*
D13*
X130810000Y-151130000D03*
X138430000Y-135890000D03*
X130810000Y-148590000D03*
X138430000Y-138430000D03*
X130810000Y-146050000D03*
X138430000Y-140970000D03*
X130810000Y-143510000D03*
X138430000Y-143510000D03*
X130810000Y-140970000D03*
X138430000Y-146050000D03*
X130810000Y-138430000D03*
X138430000Y-148590000D03*
X130810000Y-135890000D03*
D14*
X138430000Y-151130000D03*
D13*
X114935000Y-135890000D03*
X122555000Y-143510000D03*
X117475000Y-135890000D03*
X120015000Y-143510000D03*
X120015000Y-135890000D03*
X117475000Y-143510000D03*
X122555000Y-135890000D03*
D14*
X114935000Y-143510000D03*
D25*
X114300000Y-111125000D03*
X114300000Y-108585000D03*
D26*
X114300000Y-106045000D03*
D13*
X114300000Y-123190000D03*
X106680000Y-130810000D03*
X114300000Y-125730000D03*
X106680000Y-128270000D03*
X114300000Y-128270000D03*
X106680000Y-125730000D03*
X114300000Y-130810000D03*
D14*
X106680000Y-123190000D03*
D13*
X144830000Y-139300000D03*
D17*
X144830000Y-131680000D03*
D13*
X148880000Y-139300000D03*
D17*
X148880000Y-131680000D03*
D27*
X144780000Y-127000000D03*
X142240000Y-127000000D03*
D28*
X139700000Y-127000000D03*
D29*
X93980000Y-133985000D03*
X111125000Y-151130000D03*
X88900000Y-132715000D03*
X102870000Y-108585000D03*
X69850000Y-121285000D03*
X111760000Y-149860000D03*
X85090000Y-128905000D03*
X92075000Y-133985000D03*
X110490000Y-152400000D03*
X86360000Y-133985000D03*
X88265000Y-152400000D03*
D30*
X106680000Y-130810000D02*
X105410000Y-130810000D01*
X105410000Y-130810000D02*
X102235000Y-133985000D01*
X102235000Y-133985000D02*
X93980000Y-133985000D01*
X93980000Y-133985000D02*
X93980000Y-133985000D01*
X83388523Y-146888523D02*
X83388523Y-142875000D01*
X111125000Y-151130000D02*
X87630000Y-151130000D01*
X87630000Y-151130000D02*
X83388523Y-146888523D01*
X105548630Y-128270000D02*
X101103630Y-132715000D01*
X106680000Y-128270000D02*
X105548630Y-128270000D01*
X101103630Y-132715000D02*
X88900000Y-132715000D01*
D31*
X77719114Y-141605000D02*
X78989114Y-140335000D01*
X77719114Y-141605000D02*
X72390000Y-141605000D01*
X72390000Y-141605000D02*
X69215000Y-138430000D01*
X69215000Y-138430000D02*
X69215000Y-127635000D01*
X109220000Y-108220000D02*
X109220000Y-137795000D01*
X109220000Y-137795000D02*
X111125000Y-139700000D01*
X111125000Y-139700000D02*
X115570000Y-139700000D01*
X117475000Y-141605000D02*
X117475000Y-143510000D01*
X115570000Y-139700000D02*
X117475000Y-141605000D01*
X111395000Y-106045000D02*
X114300000Y-106045000D01*
X109220000Y-108220000D02*
X111395000Y-106045000D01*
X142240000Y-127000000D02*
X142240000Y-116840000D01*
X142240000Y-116840000D02*
X138430000Y-113030000D01*
X116570000Y-111125000D02*
X114300000Y-111125000D01*
X118475000Y-113030000D02*
X116570000Y-111125000D01*
X121285000Y-113030000D02*
X118475000Y-113030000D01*
X121285000Y-120650000D02*
X123825000Y-123190000D01*
X132715000Y-124460000D02*
X131445000Y-123190000D01*
X132715000Y-125730000D02*
X132715000Y-124460000D01*
X123825000Y-123328630D02*
X123825000Y-123190000D01*
X125095000Y-124598630D02*
X123825000Y-123328630D01*
X125095000Y-125730000D02*
X125095000Y-124598630D01*
X125095000Y-124460000D02*
X126365000Y-123190000D01*
X125095000Y-124598630D02*
X125095000Y-124460000D01*
X123825000Y-123190000D02*
X126365000Y-123190000D01*
X126365000Y-123190000D02*
X131445000Y-123190000D01*
X118475000Y-113030000D02*
X119380000Y-113030000D01*
X121285000Y-113030000D02*
X121285000Y-114935000D01*
X119380000Y-113030000D02*
X121285000Y-114935000D01*
X121285000Y-114935000D02*
X121285000Y-120650000D01*
X123190000Y-113030000D02*
X121285000Y-114935000D01*
X123190000Y-113030000D02*
X121285000Y-113030000D01*
X138430000Y-113030000D02*
X123190000Y-113030000D01*
D30*
X89987636Y-148407636D02*
X89987636Y-146685000D01*
X111760000Y-149860000D02*
X91440000Y-149860000D01*
X91440000Y-149860000D02*
X89987636Y-148407636D01*
X97155000Y-146050000D02*
X95250000Y-147955000D01*
X94615000Y-140970000D02*
X97155000Y-143510000D01*
X90170000Y-140970000D02*
X94615000Y-140970000D01*
X85090000Y-128905000D02*
X85090000Y-135890000D01*
X97155000Y-143510000D02*
X97155000Y-146050000D01*
X85090000Y-135890000D02*
X90170000Y-140970000D01*
X95250000Y-147955000D02*
X92187341Y-147955000D01*
X88900000Y-152400000D02*
X88900000Y-152400000D01*
X86360000Y-133985000D02*
X92075000Y-133985000D01*
X110490000Y-152400000D02*
X88265000Y-152400000D01*
D32*
G36*
X152527000Y-155448000D02*
G01*
X113157000Y-155448000D01*
X113157000Y-148033438D01*
X113601505Y-148033438D01*
X113640605Y-148273549D01*
X113725798Y-148501418D01*
X113766652Y-148577852D01*
X113990236Y-148625159D01*
X114660395Y-147955000D01*
X113990236Y-147284841D01*
X113766652Y-147332148D01*
X113665763Y-147553516D01*
X113610000Y-147790313D01*
X113601505Y-148033438D01*
X113157000Y-148033438D01*
X113157000Y-147105236D01*
X114169841Y-147105236D01*
X114840000Y-147775395D01*
X114854143Y-147761253D01*
X115033748Y-147940858D01*
X115019605Y-147955000D01*
X115033748Y-147969143D01*
X114854143Y-148148748D01*
X114840000Y-148134605D01*
X114169841Y-148804764D01*
X114217148Y-149028348D01*
X114438516Y-149129237D01*
X114675313Y-149185000D01*
X114918438Y-149193495D01*
X115158549Y-149154395D01*
X115386418Y-149069202D01*
X115462852Y-149028348D01*
X115510158Y-148804766D01*
X115627264Y-148921872D01*
X115685142Y-148863994D01*
X115709463Y-148909494D01*
X115788815Y-149006185D01*
X115885506Y-149085537D01*
X115995820Y-149144502D01*
X116115518Y-149180812D01*
X116240000Y-149193072D01*
X117440000Y-149193072D01*
X117564482Y-149180812D01*
X117684180Y-149144502D01*
X117794494Y-149085537D01*
X117891185Y-149006185D01*
X117970537Y-148909494D01*
X118029502Y-148799180D01*
X118065812Y-148679482D01*
X118078072Y-148555000D01*
X118078072Y-147355000D01*
X119411928Y-147355000D01*
X119411928Y-148555000D01*
X119424188Y-148679482D01*
X119460498Y-148799180D01*
X119519463Y-148909494D01*
X119598815Y-149006185D01*
X119695506Y-149085537D01*
X119805820Y-149144502D01*
X119925518Y-149180812D01*
X120050000Y-149193072D01*
X121250000Y-149193072D01*
X121374482Y-149180812D01*
X121494180Y-149144502D01*
X121604494Y-149085537D01*
X121701185Y-149006185D01*
X121780537Y-148909494D01*
X121804858Y-148863994D01*
X121862736Y-148921872D01*
X121979842Y-148804766D01*
X122027148Y-149028348D01*
X122248516Y-149129237D01*
X122485313Y-149185000D01*
X122728438Y-149193495D01*
X122968549Y-149154395D01*
X123196418Y-149069202D01*
X123272852Y-149028348D01*
X123320159Y-148804764D01*
X122650000Y-148134605D01*
X122635858Y-148148748D01*
X122456253Y-147969143D01*
X122470395Y-147955000D01*
X122829605Y-147955000D01*
X123499764Y-148625159D01*
X123665933Y-148590000D01*
X129368057Y-148590000D01*
X129395764Y-148871309D01*
X129477818Y-149141808D01*
X129611068Y-149391101D01*
X129790392Y-149609608D01*
X130008899Y-149788932D01*
X130141858Y-149860000D01*
X130008899Y-149931068D01*
X129790392Y-150110392D01*
X129611068Y-150328899D01*
X129477818Y-150578192D01*
X129395764Y-150848691D01*
X129368057Y-151130000D01*
X129395764Y-151411309D01*
X129477818Y-151681808D01*
X129611068Y-151931101D01*
X129790392Y-152149608D01*
X130008899Y-152328932D01*
X130258192Y-152462182D01*
X130528691Y-152544236D01*
X130739508Y-152565000D01*
X130880492Y-152565000D01*
X131091309Y-152544236D01*
X131361808Y-152462182D01*
X131611101Y-152328932D01*
X131829608Y-152149608D01*
X132008932Y-151931101D01*
X132142182Y-151681808D01*
X132224236Y-151411309D01*
X132251943Y-151130000D01*
X132224236Y-150848691D01*
X132142182Y-150578192D01*
X132008932Y-150328899D01*
X131829608Y-150110392D01*
X131611101Y-149931068D01*
X131478142Y-149860000D01*
X131611101Y-149788932D01*
X131829608Y-149609608D01*
X132008932Y-149391101D01*
X132142182Y-149141808D01*
X132224236Y-148871309D01*
X132251943Y-148590000D01*
X132224236Y-148308691D01*
X132142182Y-148038192D01*
X132008932Y-147788899D01*
X131829608Y-147570392D01*
X131611101Y-147391068D01*
X131473318Y-147317421D01*
X131665131Y-147202385D01*
X131873519Y-147013414D01*
X132041037Y-146787420D01*
X132161246Y-146533087D01*
X132201904Y-146399039D01*
X132079915Y-146177000D01*
X130937000Y-146177000D01*
X130937000Y-146197000D01*
X130683000Y-146197000D01*
X130683000Y-146177000D01*
X129540085Y-146177000D01*
X129418096Y-146399039D01*
X129458754Y-146533087D01*
X129578963Y-146787420D01*
X129746481Y-147013414D01*
X129954869Y-147202385D01*
X130146682Y-147317421D01*
X130008899Y-147391068D01*
X129790392Y-147570392D01*
X129611068Y-147788899D01*
X129477818Y-148038192D01*
X129395764Y-148308691D01*
X129368057Y-148590000D01*
X123665933Y-148590000D01*
X123723348Y-148577852D01*
X123824237Y-148356484D01*
X123880000Y-148119687D01*
X123888495Y-147876562D01*
X123849395Y-147636451D01*
X123764202Y-147408582D01*
X123723348Y-147332148D01*
X123499764Y-147284841D01*
X122829605Y-147955000D01*
X122470395Y-147955000D01*
X122456253Y-147940858D01*
X122635858Y-147761253D01*
X122650000Y-147775395D01*
X123320159Y-147105236D01*
X123272852Y-146881652D01*
X123051484Y-146780763D01*
X122814687Y-146725000D01*
X122571562Y-146716505D01*
X122331451Y-146755605D01*
X122103582Y-146840798D01*
X122027148Y-146881652D01*
X121979842Y-147105234D01*
X121862736Y-146988128D01*
X121804858Y-147046006D01*
X121780537Y-147000506D01*
X121701185Y-146903815D01*
X121604494Y-146824463D01*
X121494180Y-146765498D01*
X121374482Y-146729188D01*
X121250000Y-146716928D01*
X120050000Y-146716928D01*
X119925518Y-146729188D01*
X119805820Y-146765498D01*
X119695506Y-146824463D01*
X119598815Y-146903815D01*
X119519463Y-147000506D01*
X119460498Y-147110820D01*
X119424188Y-147230518D01*
X119411928Y-147355000D01*
X118078072Y-147355000D01*
X118065812Y-147230518D01*
X118029502Y-147110820D01*
X117970537Y-147000506D01*
X117891185Y-146903815D01*
X117794494Y-146824463D01*
X117684180Y-146765498D01*
X117564482Y-146729188D01*
X117440000Y-146716928D01*
X116240000Y-146716928D01*
X116115518Y-146729188D01*
X115995820Y-146765498D01*
X115885506Y-146824463D01*
X115788815Y-146903815D01*
X115709463Y-147000506D01*
X115685142Y-147046006D01*
X115627264Y-146988128D01*
X115510158Y-147105234D01*
X115462852Y-146881652D01*
X115241484Y-146780763D01*
X115004687Y-146725000D01*
X114761562Y-146716505D01*
X114521451Y-146755605D01*
X114293582Y-146840798D01*
X114217148Y-146881652D01*
X114169841Y-147105236D01*
X113157000Y-147105236D01*
X113157000Y-146737606D01*
X114946534Y-144948072D01*
X115735000Y-144948072D01*
X115859482Y-144935812D01*
X115979180Y-144899502D01*
X116089494Y-144840537D01*
X116186185Y-144761185D01*
X116265537Y-144664494D01*
X116324502Y-144554180D01*
X116360812Y-144434482D01*
X116362581Y-144416518D01*
X116455392Y-144529608D01*
X116673899Y-144708932D01*
X116923192Y-144842182D01*
X117193691Y-144924236D01*
X117404508Y-144945000D01*
X117545492Y-144945000D01*
X117756309Y-144924236D01*
X118026808Y-144842182D01*
X118276101Y-144708932D01*
X118494608Y-144529608D01*
X118673932Y-144311101D01*
X118745000Y-144178142D01*
X118816068Y-144311101D01*
X118995392Y-144529608D01*
X119213899Y-144708932D01*
X119463192Y-144842182D01*
X119733691Y-144924236D01*
X119944508Y-144945000D01*
X120085492Y-144945000D01*
X120296309Y-144924236D01*
X120566808Y-144842182D01*
X120816101Y-144708932D01*
X121034608Y-144529608D01*
X121213932Y-144311101D01*
X121287579Y-144173318D01*
X121402615Y-144365131D01*
X121591586Y-144573519D01*
X121817580Y-144741037D01*
X122071913Y-144861246D01*
X122205961Y-144901904D01*
X122428000Y-144779915D01*
X122428000Y-143637000D01*
X122682000Y-143637000D01*
X122682000Y-144779915D01*
X122904039Y-144901904D01*
X123038087Y-144861246D01*
X123292420Y-144741037D01*
X123518414Y-144573519D01*
X123707385Y-144365131D01*
X123852070Y-144123881D01*
X123946909Y-143859040D01*
X123825624Y-143637000D01*
X122682000Y-143637000D01*
X122428000Y-143637000D01*
X122408000Y-143637000D01*
X122408000Y-143383000D01*
X122428000Y-143383000D01*
X122428000Y-142240085D01*
X122682000Y-142240085D01*
X122682000Y-143383000D01*
X123825624Y-143383000D01*
X123946909Y-143160960D01*
X123852070Y-142896119D01*
X123707385Y-142654869D01*
X123518414Y-142446481D01*
X123292420Y-142278963D01*
X123038087Y-142158754D01*
X122904039Y-142118096D01*
X122682000Y-142240085D01*
X122428000Y-142240085D01*
X122205961Y-142118096D01*
X122071913Y-142158754D01*
X121817580Y-142278963D01*
X121591586Y-142446481D01*
X121402615Y-142654869D01*
X121287579Y-142846682D01*
X121213932Y-142708899D01*
X121034608Y-142490392D01*
X120816101Y-142311068D01*
X120566808Y-142177818D01*
X120296309Y-142095764D01*
X120085492Y-142075000D01*
X119944508Y-142075000D01*
X119733691Y-142095764D01*
X119463192Y-142177818D01*
X119213899Y-142311068D01*
X118995392Y-142490392D01*
X118816068Y-142708899D01*
X118745000Y-142841858D01*
X118745000Y-141667380D01*
X118751144Y-141605000D01*
X118726623Y-141356037D01*
X118654003Y-141116641D01*
X118575622Y-140970000D01*
X118536075Y-140896012D01*
X118425334Y-140761074D01*
X118417135Y-140751083D01*
X118417132Y-140751080D01*
X118377370Y-140702630D01*
X118328921Y-140662869D01*
X116512141Y-138846091D01*
X116472370Y-138797630D01*
X116278988Y-138638925D01*
X116058359Y-138520997D01*
X115818963Y-138448377D01*
X115632380Y-138430000D01*
X115632373Y-138430000D01*
X115570000Y-138423857D01*
X115507627Y-138430000D01*
X111651052Y-138430000D01*
X110617000Y-137395950D01*
X110617000Y-135890000D01*
X113493057Y-135890000D01*
X113520764Y-136171309D01*
X113602818Y-136441808D01*
X113736068Y-136691101D01*
X113915392Y-136909608D01*
X114133899Y-137088932D01*
X114383192Y-137222182D01*
X114653691Y-137304236D01*
X114864508Y-137325000D01*
X115005492Y-137325000D01*
X115216309Y-137304236D01*
X115486808Y-137222182D01*
X115736101Y-137088932D01*
X115954608Y-136909608D01*
X116133932Y-136691101D01*
X116205000Y-136558142D01*
X116276068Y-136691101D01*
X116455392Y-136909608D01*
X116673899Y-137088932D01*
X116923192Y-137222182D01*
X117193691Y-137304236D01*
X117404508Y-137325000D01*
X117545492Y-137325000D01*
X117756309Y-137304236D01*
X118026808Y-137222182D01*
X118276101Y-137088932D01*
X118494608Y-136909608D01*
X118673932Y-136691101D01*
X118745000Y-136558142D01*
X118816068Y-136691101D01*
X118995392Y-136909608D01*
X119213899Y-137088932D01*
X119463192Y-137222182D01*
X119733691Y-137304236D01*
X119944508Y-137325000D01*
X120085492Y-137325000D01*
X120296309Y-137304236D01*
X120566808Y-137222182D01*
X120816101Y-137088932D01*
X121034608Y-136909608D01*
X121213932Y-136691101D01*
X121285000Y-136558142D01*
X121356068Y-136691101D01*
X121535392Y-136909608D01*
X121753899Y-137088932D01*
X122003192Y-137222182D01*
X122273691Y-137304236D01*
X122484508Y-137325000D01*
X122625492Y-137325000D01*
X122836309Y-137304236D01*
X123106808Y-137222182D01*
X123356101Y-137088932D01*
X123574608Y-136909608D01*
X123753932Y-136691101D01*
X123887182Y-136441808D01*
X123969236Y-136171309D01*
X123996943Y-135890000D01*
X129368057Y-135890000D01*
X129395764Y-136171309D01*
X129477818Y-136441808D01*
X129611068Y-136691101D01*
X129790392Y-136909608D01*
X130008899Y-137088932D01*
X130141858Y-137160000D01*
X130008899Y-137231068D01*
X129790392Y-137410392D01*
X129611068Y-137628899D01*
X129477818Y-137878192D01*
X129395764Y-138148691D01*
X129368057Y-138430000D01*
X129395764Y-138711309D01*
X129477818Y-138981808D01*
X129611068Y-139231101D01*
X129790392Y-139449608D01*
X130008899Y-139628932D01*
X130141858Y-139700000D01*
X130008899Y-139771068D01*
X129790392Y-139950392D01*
X129611068Y-140168899D01*
X129477818Y-140418192D01*
X129395764Y-140688691D01*
X129368057Y-140970000D01*
X129395764Y-141251309D01*
X129477818Y-141521808D01*
X129611068Y-141771101D01*
X129790392Y-141989608D01*
X130008899Y-142168932D01*
X130141858Y-142240000D01*
X130008899Y-142311068D01*
X129790392Y-142490392D01*
X129611068Y-142708899D01*
X129477818Y-142958192D01*
X129395764Y-143228691D01*
X129368057Y-143510000D01*
X129395764Y-143791309D01*
X129477818Y-144061808D01*
X129611068Y-144311101D01*
X129790392Y-144529608D01*
X130008899Y-144708932D01*
X130146682Y-144782579D01*
X129954869Y-144897615D01*
X129746481Y-145086586D01*
X129578963Y-145312580D01*
X129458754Y-145566913D01*
X129418096Y-145700961D01*
X129540085Y-145923000D01*
X130683000Y-145923000D01*
X130683000Y-145903000D01*
X130937000Y-145903000D01*
X130937000Y-145923000D01*
X132079915Y-145923000D01*
X132201904Y-145700961D01*
X132161246Y-145566913D01*
X132041037Y-145312580D01*
X131873519Y-145086586D01*
X131665131Y-144897615D01*
X131473318Y-144782579D01*
X131611101Y-144708932D01*
X131829608Y-144529608D01*
X132008932Y-144311101D01*
X132142182Y-144061808D01*
X132224236Y-143791309D01*
X132251943Y-143510000D01*
X132224236Y-143228691D01*
X132142182Y-142958192D01*
X132008932Y-142708899D01*
X131829608Y-142490392D01*
X131611101Y-142311068D01*
X131478142Y-142240000D01*
X131611101Y-142168932D01*
X131829608Y-141989608D01*
X132008932Y-141771101D01*
X132142182Y-141521808D01*
X132224236Y-141251309D01*
X132251943Y-140970000D01*
X132224236Y-140688691D01*
X132142182Y-140418192D01*
X132008932Y-140168899D01*
X131829608Y-139950392D01*
X131611101Y-139771068D01*
X131478142Y-139700000D01*
X131611101Y-139628932D01*
X131829608Y-139449608D01*
X132008932Y-139231101D01*
X132142182Y-138981808D01*
X132224236Y-138711309D01*
X132251943Y-138430000D01*
X136988057Y-138430000D01*
X137015764Y-138711309D01*
X137097818Y-138981808D01*
X137231068Y-139231101D01*
X137410392Y-139449608D01*
X137628899Y-139628932D01*
X137761858Y-139700000D01*
X137628899Y-139771068D01*
X137410392Y-139950392D01*
X137231068Y-140168899D01*
X137097818Y-140418192D01*
X137015764Y-140688691D01*
X136988057Y-140970000D01*
X137015764Y-141251309D01*
X137097818Y-141521808D01*
X137231068Y-141771101D01*
X137410392Y-141989608D01*
X137628899Y-142168932D01*
X137761858Y-142240000D01*
X137628899Y-142311068D01*
X137410392Y-142490392D01*
X137231068Y-142708899D01*
X137097818Y-142958192D01*
X137015764Y-143228691D01*
X136988057Y-143510000D01*
X137015764Y-143791309D01*
X137097818Y-144061808D01*
X137231068Y-144311101D01*
X137410392Y-144529608D01*
X137628899Y-144708932D01*
X137761858Y-144780000D01*
X137628899Y-144851068D01*
X137410392Y-145030392D01*
X137231068Y-145248899D01*
X137097818Y-145498192D01*
X137015764Y-145768691D01*
X136988057Y-146050000D01*
X137015764Y-146331309D01*
X137097818Y-146601808D01*
X137231068Y-146851101D01*
X137410392Y-147069608D01*
X137628899Y-147248932D01*
X137761858Y-147320000D01*
X137628899Y-147391068D01*
X137410392Y-147570392D01*
X137231068Y-147788899D01*
X137097818Y-148038192D01*
X137015764Y-148308691D01*
X136988057Y-148590000D01*
X137015764Y-148871309D01*
X137097818Y-149141808D01*
X137231068Y-149391101D01*
X137410392Y-149609608D01*
X137523482Y-149702419D01*
X137505518Y-149704188D01*
X137385820Y-149740498D01*
X137275506Y-149799463D01*
X137178815Y-149878815D01*
X137099463Y-149975506D01*
X137040498Y-150085820D01*
X137004188Y-150205518D01*
X136991928Y-150330000D01*
X136991928Y-151930000D01*
X137004188Y-152054482D01*
X137040498Y-152174180D01*
X137099463Y-152284494D01*
X137178815Y-152381185D01*
X137275506Y-152460537D01*
X137385820Y-152519502D01*
X137505518Y-152555812D01*
X137630000Y-152568072D01*
X139230000Y-152568072D01*
X139354482Y-152555812D01*
X139474180Y-152519502D01*
X139549533Y-152479224D01*
X145515381Y-152479224D01*
X145647317Y-152774312D01*
X145988045Y-152945159D01*
X146355557Y-153046250D01*
X146735729Y-153073701D01*
X147113951Y-153026457D01*
X147475690Y-152906333D01*
X147722683Y-152774312D01*
X147854619Y-152479224D01*
X146685000Y-151309605D01*
X145515381Y-152479224D01*
X139549533Y-152479224D01*
X139584494Y-152460537D01*
X139681185Y-152381185D01*
X139760537Y-152284494D01*
X139819502Y-152174180D01*
X139855812Y-152054482D01*
X139868072Y-151930000D01*
X139868072Y-151180729D01*
X144741299Y-151180729D01*
X144788543Y-151558951D01*
X144908667Y-151920690D01*
X145040688Y-152167683D01*
X145335776Y-152299619D01*
X146505395Y-151130000D01*
X146864605Y-151130000D01*
X148034224Y-152299619D01*
X148329312Y-152167683D01*
X148500159Y-151826955D01*
X148601250Y-151459443D01*
X148628701Y-151079271D01*
X148581457Y-150701049D01*
X148461333Y-150339310D01*
X148329312Y-150092317D01*
X148034224Y-149960381D01*
X146864605Y-151130000D01*
X146505395Y-151130000D01*
X145335776Y-149960381D01*
X145040688Y-150092317D01*
X144869841Y-150433045D01*
X144768750Y-150800557D01*
X144741299Y-151180729D01*
X139868072Y-151180729D01*
X139868072Y-150330000D01*
X139855812Y-150205518D01*
X139819502Y-150085820D01*
X139760537Y-149975506D01*
X139681185Y-149878815D01*
X139584494Y-149799463D01*
X139549534Y-149780776D01*
X145515381Y-149780776D01*
X146685000Y-150950395D01*
X147854619Y-149780776D01*
X147722683Y-149485688D01*
X147381955Y-149314841D01*
X147014443Y-149213750D01*
X146634271Y-149186299D01*
X146256049Y-149233543D01*
X145894310Y-149353667D01*
X145647317Y-149485688D01*
X145515381Y-149780776D01*
X139549534Y-149780776D01*
X139474180Y-149740498D01*
X139354482Y-149704188D01*
X139336518Y-149702419D01*
X139449608Y-149609608D01*
X139628932Y-149391101D01*
X139762182Y-149141808D01*
X139844236Y-148871309D01*
X139871943Y-148590000D01*
X139844236Y-148308691D01*
X139762182Y-148038192D01*
X139628932Y-147788899D01*
X139449608Y-147570392D01*
X139231101Y-147391068D01*
X139098142Y-147320000D01*
X139231101Y-147248932D01*
X139449608Y-147069608D01*
X139628932Y-146851101D01*
X139762182Y-146601808D01*
X139844236Y-146331309D01*
X139871943Y-146050000D01*
X139844236Y-145768691D01*
X139762182Y-145498192D01*
X139628932Y-145248899D01*
X139449608Y-145030392D01*
X139231101Y-144851068D01*
X139098142Y-144780000D01*
X139154268Y-144750000D01*
X144746928Y-144750000D01*
X144746928Y-147350000D01*
X144759188Y-147474482D01*
X144795498Y-147594180D01*
X144854463Y-147704494D01*
X144933815Y-147801185D01*
X145030506Y-147880537D01*
X145140820Y-147939502D01*
X145260518Y-147975812D01*
X145385000Y-147988072D01*
X147985000Y-147988072D01*
X148109482Y-147975812D01*
X148229180Y-147939502D01*
X148339494Y-147880537D01*
X148436185Y-147801185D01*
X148515537Y-147704494D01*
X148574502Y-147594180D01*
X148610812Y-147474482D01*
X148623072Y-147350000D01*
X148623072Y-144750000D01*
X148610812Y-144625518D01*
X148574502Y-144505820D01*
X148515537Y-144395506D01*
X148436185Y-144298815D01*
X148339494Y-144219463D01*
X148229180Y-144160498D01*
X148109482Y-144124188D01*
X147985000Y-144111928D01*
X145385000Y-144111928D01*
X145260518Y-144124188D01*
X145140820Y-144160498D01*
X145030506Y-144219463D01*
X144933815Y-144298815D01*
X144854463Y-144395506D01*
X144795498Y-144505820D01*
X144759188Y-144625518D01*
X144746928Y-144750000D01*
X139154268Y-144750000D01*
X139231101Y-144708932D01*
X139449608Y-144529608D01*
X139628932Y-144311101D01*
X139762182Y-144061808D01*
X139844236Y-143791309D01*
X139871943Y-143510000D01*
X139844236Y-143228691D01*
X139762182Y-142958192D01*
X139628932Y-142708899D01*
X139449608Y-142490392D01*
X139231101Y-142311068D01*
X139098142Y-142240000D01*
X139231101Y-142168932D01*
X139449608Y-141989608D01*
X139628932Y-141771101D01*
X139762182Y-141521808D01*
X139844236Y-141251309D01*
X139871943Y-140970000D01*
X139844236Y-140688691D01*
X139762182Y-140418192D01*
X139628932Y-140168899D01*
X139449608Y-139950392D01*
X139231101Y-139771068D01*
X139098142Y-139700000D01*
X139231101Y-139628932D01*
X139449608Y-139449608D01*
X139572388Y-139300000D01*
X143388057Y-139300000D01*
X143415764Y-139581309D01*
X143497818Y-139851808D01*
X143631068Y-140101101D01*
X143810392Y-140319608D01*
X144028899Y-140498932D01*
X144278192Y-140632182D01*
X144548691Y-140714236D01*
X144759508Y-140735000D01*
X144900492Y-140735000D01*
X145111309Y-140714236D01*
X145381808Y-140632182D01*
X145631101Y-140498932D01*
X145849608Y-140319608D01*
X146028932Y-140101101D01*
X146162182Y-139851808D01*
X146244236Y-139581309D01*
X146271943Y-139300000D01*
X147438057Y-139300000D01*
X147465764Y-139581309D01*
X147547818Y-139851808D01*
X147681068Y-140101101D01*
X147860392Y-140319608D01*
X148078899Y-140498932D01*
X148328192Y-140632182D01*
X148598691Y-140714236D01*
X148809508Y-140735000D01*
X148950492Y-140735000D01*
X149161309Y-140714236D01*
X149431808Y-140632182D01*
X149681101Y-140498932D01*
X149899608Y-140319608D01*
X150078932Y-140101101D01*
X150212182Y-139851808D01*
X150294236Y-139581309D01*
X150321943Y-139300000D01*
X150294236Y-139018691D01*
X150212182Y-138748192D01*
X150078932Y-138498899D01*
X149899608Y-138280392D01*
X149681101Y-138101068D01*
X149431808Y-137967818D01*
X149161309Y-137885764D01*
X148950492Y-137865000D01*
X148809508Y-137865000D01*
X148598691Y-137885764D01*
X148328192Y-137967818D01*
X148078899Y-138101068D01*
X147860392Y-138280392D01*
X147681068Y-138498899D01*
X147547818Y-138748192D01*
X147465764Y-139018691D01*
X147438057Y-139300000D01*
X146271943Y-139300000D01*
X146244236Y-139018691D01*
X146162182Y-138748192D01*
X146028932Y-138498899D01*
X145849608Y-138280392D01*
X145631101Y-138101068D01*
X145381808Y-137967818D01*
X145111309Y-137885764D01*
X144900492Y-137865000D01*
X144759508Y-137865000D01*
X144548691Y-137885764D01*
X144278192Y-137967818D01*
X144028899Y-138101068D01*
X143810392Y-138280392D01*
X143631068Y-138498899D01*
X143497818Y-138748192D01*
X143415764Y-139018691D01*
X143388057Y-139300000D01*
X139572388Y-139300000D01*
X139628932Y-139231101D01*
X139762182Y-138981808D01*
X139844236Y-138711309D01*
X139871943Y-138430000D01*
X139844236Y-138148691D01*
X139762182Y-137878192D01*
X139628932Y-137628899D01*
X139449608Y-137410392D01*
X139231101Y-137231068D01*
X139093318Y-137157421D01*
X139285131Y-137042385D01*
X139493519Y-136853414D01*
X139661037Y-136627420D01*
X139781246Y-136373087D01*
X139821904Y-136239039D01*
X139699915Y-136017000D01*
X138557000Y-136017000D01*
X138557000Y-136037000D01*
X138303000Y-136037000D01*
X138303000Y-136017000D01*
X137160085Y-136017000D01*
X137038096Y-136239039D01*
X137078754Y-136373087D01*
X137198963Y-136627420D01*
X137366481Y-136853414D01*
X137574869Y-137042385D01*
X137766682Y-137157421D01*
X137628899Y-137231068D01*
X137410392Y-137410392D01*
X137231068Y-137628899D01*
X137097818Y-137878192D01*
X137015764Y-138148691D01*
X136988057Y-138430000D01*
X132251943Y-138430000D01*
X132224236Y-138148691D01*
X132142182Y-137878192D01*
X132008932Y-137628899D01*
X131829608Y-137410392D01*
X131611101Y-137231068D01*
X131478142Y-137160000D01*
X131611101Y-137088932D01*
X131829608Y-136909608D01*
X132008932Y-136691101D01*
X132142182Y-136441808D01*
X132224236Y-136171309D01*
X132251943Y-135890000D01*
X132224236Y-135608691D01*
X132203691Y-135540961D01*
X137038096Y-135540961D01*
X137160085Y-135763000D01*
X138303000Y-135763000D01*
X138303000Y-134619376D01*
X138557000Y-134619376D01*
X138557000Y-135763000D01*
X139699915Y-135763000D01*
X139821904Y-135540961D01*
X139781246Y-135406913D01*
X139661037Y-135152580D01*
X139493519Y-134926586D01*
X139285131Y-134737615D01*
X139043881Y-134592930D01*
X138779040Y-134498091D01*
X138557000Y-134619376D01*
X138303000Y-134619376D01*
X138080960Y-134498091D01*
X137816119Y-134592930D01*
X137574869Y-134737615D01*
X137366481Y-134926586D01*
X137198963Y-135152580D01*
X137078754Y-135406913D01*
X137038096Y-135540961D01*
X132203691Y-135540961D01*
X132142182Y-135338192D01*
X132008932Y-135088899D01*
X131829608Y-134870392D01*
X131611101Y-134691068D01*
X131361808Y-134557818D01*
X131091309Y-134475764D01*
X130880492Y-134455000D01*
X130739508Y-134455000D01*
X130528691Y-134475764D01*
X130258192Y-134557818D01*
X130008899Y-134691068D01*
X129790392Y-134870392D01*
X129611068Y-135088899D01*
X129477818Y-135338192D01*
X129395764Y-135608691D01*
X129368057Y-135890000D01*
X123996943Y-135890000D01*
X123969236Y-135608691D01*
X123887182Y-135338192D01*
X123753932Y-135088899D01*
X123574608Y-134870392D01*
X123356101Y-134691068D01*
X123106808Y-134557818D01*
X122836309Y-134475764D01*
X122625492Y-134455000D01*
X122484508Y-134455000D01*
X122273691Y-134475764D01*
X122003192Y-134557818D01*
X121753899Y-134691068D01*
X121535392Y-134870392D01*
X121356068Y-135088899D01*
X121285000Y-135221858D01*
X121213932Y-135088899D01*
X121034608Y-134870392D01*
X120816101Y-134691068D01*
X120566808Y-134557818D01*
X120296309Y-134475764D01*
X120085492Y-134455000D01*
X119944508Y-134455000D01*
X119733691Y-134475764D01*
X119463192Y-134557818D01*
X119213899Y-134691068D01*
X118995392Y-134870392D01*
X118816068Y-135088899D01*
X118745000Y-135221858D01*
X118673932Y-135088899D01*
X118494608Y-134870392D01*
X118276101Y-134691068D01*
X118026808Y-134557818D01*
X117756309Y-134475764D01*
X117545492Y-134455000D01*
X117404508Y-134455000D01*
X117193691Y-134475764D01*
X116923192Y-134557818D01*
X116673899Y-134691068D01*
X116455392Y-134870392D01*
X116276068Y-135088899D01*
X116205000Y-135221858D01*
X116133932Y-135088899D01*
X115954608Y-134870392D01*
X115736101Y-134691068D01*
X115486808Y-134557818D01*
X115216309Y-134475764D01*
X115005492Y-134455000D01*
X114864508Y-134455000D01*
X114653691Y-134475764D01*
X114383192Y-134557818D01*
X114133899Y-134691068D01*
X113915392Y-134870392D01*
X113736068Y-135088899D01*
X113602818Y-135338192D01*
X113520764Y-135608691D01*
X113493057Y-135890000D01*
X110617000Y-135890000D01*
X110617000Y-131159039D01*
X112908096Y-131159039D01*
X112948754Y-131293087D01*
X113068963Y-131547420D01*
X113236481Y-131773414D01*
X113444869Y-131962385D01*
X113686119Y-132107070D01*
X113950960Y-132201909D01*
X114173000Y-132080624D01*
X114173000Y-130937000D01*
X114427000Y-130937000D01*
X114427000Y-132080624D01*
X114649040Y-132201909D01*
X114913881Y-132107070D01*
X115155131Y-131962385D01*
X115181288Y-131938665D01*
X134455000Y-131938665D01*
X134455000Y-132221335D01*
X134510147Y-132498574D01*
X134618320Y-132759727D01*
X134775363Y-132994759D01*
X134975241Y-133194637D01*
X135210273Y-133351680D01*
X135471426Y-133459853D01*
X135748665Y-133515000D01*
X136031335Y-133515000D01*
X136308574Y-133459853D01*
X136569727Y-133351680D01*
X136804759Y-133194637D01*
X137004637Y-132994759D01*
X137161680Y-132759727D01*
X137259004Y-132524764D01*
X139664841Y-132524764D01*
X139712148Y-132748348D01*
X139933516Y-132849237D01*
X140170313Y-132905000D01*
X140413438Y-132913495D01*
X140653549Y-132874395D01*
X140881418Y-132789202D01*
X140957852Y-132748348D01*
X141005159Y-132524764D01*
X140335000Y-131854605D01*
X139664841Y-132524764D01*
X137259004Y-132524764D01*
X137269853Y-132498574D01*
X137325000Y-132221335D01*
X137325000Y-131938665D01*
X137288156Y-131753438D01*
X139096505Y-131753438D01*
X139135605Y-131993549D01*
X139220798Y-132221418D01*
X139261652Y-132297852D01*
X139485236Y-132345159D01*
X140155395Y-131675000D01*
X140141253Y-131660858D01*
X140320858Y-131481253D01*
X140335000Y-131495395D01*
X140349143Y-131481253D01*
X140528748Y-131660858D01*
X140514605Y-131675000D01*
X141184764Y-132345159D01*
X141408348Y-132297852D01*
X141509237Y-132076484D01*
X141565000Y-131839687D01*
X141573495Y-131596562D01*
X141564067Y-131538665D01*
X143395000Y-131538665D01*
X143395000Y-131821335D01*
X143450147Y-132098574D01*
X143558320Y-132359727D01*
X143715363Y-132594759D01*
X143915241Y-132794637D01*
X144150273Y-132951680D01*
X144411426Y-133059853D01*
X144688665Y-133115000D01*
X144971335Y-133115000D01*
X145248574Y-133059853D01*
X145509727Y-132951680D01*
X145744759Y-132794637D01*
X145944637Y-132594759D01*
X146101680Y-132359727D01*
X146209853Y-132098574D01*
X146265000Y-131821335D01*
X146265000Y-131538665D01*
X147445000Y-131538665D01*
X147445000Y-131821335D01*
X147500147Y-132098574D01*
X147608320Y-132359727D01*
X147765363Y-132594759D01*
X147965241Y-132794637D01*
X148200273Y-132951680D01*
X148461426Y-133059853D01*
X148738665Y-133115000D01*
X149021335Y-133115000D01*
X149298574Y-133059853D01*
X149559727Y-132951680D01*
X149794759Y-132794637D01*
X149994637Y-132594759D01*
X150151680Y-132359727D01*
X150259853Y-132098574D01*
X150315000Y-131821335D01*
X150315000Y-131538665D01*
X150259853Y-131261426D01*
X150151680Y-131000273D01*
X149994637Y-130765241D01*
X149794759Y-130565363D01*
X149559727Y-130408320D01*
X149298574Y-130300147D01*
X149021335Y-130245000D01*
X148738665Y-130245000D01*
X148461426Y-130300147D01*
X148200273Y-130408320D01*
X147965241Y-130565363D01*
X147765363Y-130765241D01*
X147608320Y-131000273D01*
X147500147Y-131261426D01*
X147445000Y-131538665D01*
X146265000Y-131538665D01*
X146209853Y-131261426D01*
X146101680Y-131000273D01*
X145944637Y-130765241D01*
X145744759Y-130565363D01*
X145509727Y-130408320D01*
X145248574Y-130300147D01*
X144971335Y-130245000D01*
X144688665Y-130245000D01*
X144411426Y-130300147D01*
X144150273Y-130408320D01*
X143915241Y-130565363D01*
X143715363Y-130765241D01*
X143558320Y-131000273D01*
X143450147Y-131261426D01*
X143395000Y-131538665D01*
X141564067Y-131538665D01*
X141534395Y-131356451D01*
X141454549Y-131142883D01*
X141465537Y-131129494D01*
X141524502Y-131019180D01*
X141560812Y-130899482D01*
X141573072Y-130775000D01*
X141573072Y-129575000D01*
X141560812Y-129450518D01*
X141524502Y-129330820D01*
X141465537Y-129220506D01*
X141386185Y-129123815D01*
X141289494Y-129044463D01*
X141179180Y-128985498D01*
X141059482Y-128949188D01*
X140935000Y-128936928D01*
X139735000Y-128936928D01*
X139610518Y-128949188D01*
X139490820Y-128985498D01*
X139380506Y-129044463D01*
X139283815Y-129123815D01*
X139204463Y-129220506D01*
X139145498Y-129330820D01*
X139109188Y-129450518D01*
X139096928Y-129575000D01*
X139096928Y-130775000D01*
X139109188Y-130899482D01*
X139145498Y-131019180D01*
X139204463Y-131129494D01*
X139218568Y-131146681D01*
X139160763Y-131273516D01*
X139105000Y-131510313D01*
X139096505Y-131753438D01*
X137288156Y-131753438D01*
X137269853Y-131661426D01*
X137161680Y-131400273D01*
X137004637Y-131165241D01*
X136804759Y-130965363D01*
X136604131Y-130831308D01*
X136631514Y-130816671D01*
X136703097Y-130572702D01*
X135890000Y-129759605D01*
X135076903Y-130572702D01*
X135148486Y-130816671D01*
X135177341Y-130830324D01*
X134975241Y-130965363D01*
X134775363Y-131165241D01*
X134618320Y-131400273D01*
X134510147Y-131661426D01*
X134455000Y-131938665D01*
X115181288Y-131938665D01*
X115363519Y-131773414D01*
X115531037Y-131547420D01*
X115651246Y-131293087D01*
X115691904Y-131159039D01*
X115569915Y-130937000D01*
X114427000Y-130937000D01*
X114173000Y-130937000D01*
X113030085Y-130937000D01*
X112908096Y-131159039D01*
X110617000Y-131159039D01*
X110617000Y-128270000D01*
X112858057Y-128270000D01*
X112885764Y-128551309D01*
X112967818Y-128821808D01*
X113101068Y-129071101D01*
X113280392Y-129289608D01*
X113498899Y-129468932D01*
X113636682Y-129542579D01*
X113444869Y-129657615D01*
X113236481Y-129846586D01*
X113068963Y-130072580D01*
X112948754Y-130326913D01*
X112908096Y-130460961D01*
X113030085Y-130683000D01*
X114173000Y-130683000D01*
X114173000Y-130663000D01*
X114427000Y-130663000D01*
X114427000Y-130683000D01*
X115569915Y-130683000D01*
X115691904Y-130460961D01*
X115651246Y-130326913D01*
X115531037Y-130072580D01*
X115363519Y-129846586D01*
X115155131Y-129657615D01*
X114963318Y-129542579D01*
X115101101Y-129468932D01*
X115319608Y-129289608D01*
X115498932Y-129071101D01*
X115632182Y-128821808D01*
X115714236Y-128551309D01*
X115741943Y-128270000D01*
X115714236Y-127988691D01*
X115632182Y-127718192D01*
X115578863Y-127618438D01*
X118776505Y-127618438D01*
X118815605Y-127858549D01*
X118900798Y-128086418D01*
X118941652Y-128162852D01*
X119165234Y-128210158D01*
X119048128Y-128327264D01*
X119106006Y-128385142D01*
X119060506Y-128409463D01*
X118963815Y-128488815D01*
X118884463Y-128585506D01*
X118825498Y-128695820D01*
X118789188Y-128815518D01*
X118776928Y-128940000D01*
X118776928Y-130140000D01*
X118789188Y-130264482D01*
X118825498Y-130384180D01*
X118884463Y-130494494D01*
X118963815Y-130591185D01*
X119060506Y-130670537D01*
X119170820Y-130729502D01*
X119290518Y-130765812D01*
X119415000Y-130778072D01*
X120615000Y-130778072D01*
X120739482Y-130765812D01*
X120859180Y-130729502D01*
X120969494Y-130670537D01*
X121066185Y-130591185D01*
X121145537Y-130494494D01*
X121204502Y-130384180D01*
X121240812Y-130264482D01*
X121253072Y-130140000D01*
X121253072Y-129650512D01*
X134449783Y-129650512D01*
X134491213Y-129930130D01*
X134586397Y-130196292D01*
X134653329Y-130321514D01*
X134897298Y-130393097D01*
X135710395Y-129580000D01*
X136069605Y-129580000D01*
X136882702Y-130393097D01*
X137126671Y-130321514D01*
X137247571Y-130066004D01*
X137316300Y-129791816D01*
X137330217Y-129509488D01*
X137288787Y-129229870D01*
X137193603Y-128963708D01*
X137126671Y-128838486D01*
X136882702Y-128766903D01*
X136069605Y-129580000D01*
X135710395Y-129580000D01*
X134897298Y-128766903D01*
X134653329Y-128838486D01*
X134532429Y-129093996D01*
X134463700Y-129368184D01*
X134449783Y-129650512D01*
X121253072Y-129650512D01*
X121253072Y-128940000D01*
X121240812Y-128815518D01*
X121204502Y-128695820D01*
X121146495Y-128587298D01*
X135076903Y-128587298D01*
X135890000Y-129400395D01*
X136703097Y-128587298D01*
X136631514Y-128343329D01*
X136376004Y-128222429D01*
X136101816Y-128153700D01*
X135819488Y-128139783D01*
X135539870Y-128181213D01*
X135273708Y-128276397D01*
X135148486Y-128343329D01*
X135076903Y-128587298D01*
X121146495Y-128587298D01*
X121145537Y-128585506D01*
X121066185Y-128488815D01*
X120969494Y-128409463D01*
X120923994Y-128385142D01*
X120981872Y-128327264D01*
X120864766Y-128210158D01*
X121088348Y-128162852D01*
X121189237Y-127941484D01*
X121245000Y-127704687D01*
X121253495Y-127461562D01*
X121214395Y-127221451D01*
X121129202Y-126993582D01*
X121088348Y-126917148D01*
X120864764Y-126869841D01*
X120194605Y-127540000D01*
X120208748Y-127554143D01*
X120029143Y-127733748D01*
X120015000Y-127719605D01*
X120000858Y-127733748D01*
X119821253Y-127554143D01*
X119835395Y-127540000D01*
X119165236Y-126869841D01*
X118941652Y-126917148D01*
X118840763Y-127138516D01*
X118785000Y-127375313D01*
X118776505Y-127618438D01*
X115578863Y-127618438D01*
X115498932Y-127468899D01*
X115319608Y-127250392D01*
X115101101Y-127071068D01*
X114963318Y-126997421D01*
X115155131Y-126882385D01*
X115363519Y-126693414D01*
X115365874Y-126690236D01*
X119344841Y-126690236D01*
X120015000Y-127360395D01*
X120685159Y-126690236D01*
X120637852Y-126466652D01*
X120416484Y-126365763D01*
X120179687Y-126310000D01*
X119936562Y-126301505D01*
X119696451Y-126340605D01*
X119468582Y-126425798D01*
X119392148Y-126466652D01*
X119344841Y-126690236D01*
X115365874Y-126690236D01*
X115531037Y-126467420D01*
X115651246Y-126213087D01*
X115691904Y-126079039D01*
X115569915Y-125857000D01*
X114427000Y-125857000D01*
X114427000Y-125877000D01*
X114173000Y-125877000D01*
X114173000Y-125857000D01*
X113030085Y-125857000D01*
X112908096Y-126079039D01*
X112948754Y-126213087D01*
X113068963Y-126467420D01*
X113236481Y-126693414D01*
X113444869Y-126882385D01*
X113636682Y-126997421D01*
X113498899Y-127071068D01*
X113280392Y-127250392D01*
X113101068Y-127468899D01*
X112967818Y-127718192D01*
X112885764Y-127988691D01*
X112858057Y-128270000D01*
X110617000Y-128270000D01*
X110617000Y-123190000D01*
X112858057Y-123190000D01*
X112885764Y-123471309D01*
X112967818Y-123741808D01*
X113101068Y-123991101D01*
X113280392Y-124209608D01*
X113498899Y-124388932D01*
X113636682Y-124462579D01*
X113444869Y-124577615D01*
X113236481Y-124766586D01*
X113068963Y-124992580D01*
X112948754Y-125246913D01*
X112908096Y-125380961D01*
X113030085Y-125603000D01*
X114173000Y-125603000D01*
X114173000Y-125583000D01*
X114427000Y-125583000D01*
X114427000Y-125603000D01*
X115569915Y-125603000D01*
X115691904Y-125380961D01*
X115651246Y-125246913D01*
X115531037Y-124992580D01*
X115363519Y-124766586D01*
X115155131Y-124577615D01*
X114963318Y-124462579D01*
X115101101Y-124388932D01*
X115319608Y-124209608D01*
X115498932Y-123991101D01*
X115632182Y-123741808D01*
X115714236Y-123471309D01*
X115741943Y-123190000D01*
X115714236Y-122908691D01*
X115632182Y-122638192D01*
X115498932Y-122388899D01*
X115319608Y-122170392D01*
X115101101Y-121991068D01*
X114851808Y-121857818D01*
X114581309Y-121775764D01*
X114370492Y-121755000D01*
X114229508Y-121755000D01*
X114018691Y-121775764D01*
X113748192Y-121857818D01*
X113498899Y-121991068D01*
X113280392Y-122170392D01*
X113101068Y-122388899D01*
X112967818Y-122638192D01*
X112885764Y-122908691D01*
X112858057Y-123190000D01*
X110617000Y-123190000D01*
X110617000Y-111125000D01*
X112657319Y-111125000D01*
X112687970Y-111436204D01*
X112778745Y-111735449D01*
X112926155Y-112011235D01*
X113124537Y-112252963D01*
X113366265Y-112451345D01*
X113642051Y-112598755D01*
X113941296Y-112689530D01*
X114174514Y-112712500D01*
X114425486Y-112712500D01*
X114658704Y-112689530D01*
X114957949Y-112598755D01*
X115233735Y-112451345D01*
X115302391Y-112395000D01*
X116043950Y-112395000D01*
X117532868Y-113883919D01*
X117572630Y-113932370D01*
X117621080Y-113972132D01*
X117621083Y-113972135D01*
X117671086Y-114013171D01*
X117766012Y-114091075D01*
X117986641Y-114209003D01*
X118226037Y-114281623D01*
X118475000Y-114306144D01*
X118537380Y-114300000D01*
X118853950Y-114300000D01*
X120015000Y-115461052D01*
X120015001Y-120587617D01*
X120008857Y-120650000D01*
X120033377Y-120898963D01*
X120105998Y-121138359D01*
X120223926Y-121358988D01*
X120382631Y-121552370D01*
X120431086Y-121592136D01*
X122641669Y-123802720D01*
X122645997Y-123816988D01*
X122763925Y-124037617D01*
X122922630Y-124231000D01*
X122971091Y-124270771D01*
X123803117Y-125102798D01*
X123762818Y-125178192D01*
X123680764Y-125448691D01*
X123653057Y-125730000D01*
X123680764Y-126011309D01*
X123762818Y-126281808D01*
X123896068Y-126531101D01*
X124075392Y-126749608D01*
X124293899Y-126928932D01*
X124543192Y-127062182D01*
X124813691Y-127144236D01*
X125024508Y-127165000D01*
X125165492Y-127165000D01*
X125376309Y-127144236D01*
X125646808Y-127062182D01*
X125896101Y-126928932D01*
X126114608Y-126749608D01*
X126293932Y-126531101D01*
X126367579Y-126393318D01*
X126482615Y-126585131D01*
X126671586Y-126793519D01*
X126897580Y-126961037D01*
X127151913Y-127081246D01*
X127285961Y-127121904D01*
X127508000Y-126999915D01*
X127508000Y-125857000D01*
X127488000Y-125857000D01*
X127488000Y-125603000D01*
X127508000Y-125603000D01*
X127508000Y-125583000D01*
X127762000Y-125583000D01*
X127762000Y-125603000D01*
X127782000Y-125603000D01*
X127782000Y-125857000D01*
X127762000Y-125857000D01*
X127762000Y-126999915D01*
X127984039Y-127121904D01*
X128118087Y-127081246D01*
X128372420Y-126961037D01*
X128598414Y-126793519D01*
X128787385Y-126585131D01*
X128902421Y-126393318D01*
X128976068Y-126531101D01*
X129155392Y-126749608D01*
X129373899Y-126928932D01*
X129623192Y-127062182D01*
X129893691Y-127144236D01*
X130104508Y-127165000D01*
X130245492Y-127165000D01*
X130456309Y-127144236D01*
X130726808Y-127062182D01*
X130976101Y-126928932D01*
X131194608Y-126749608D01*
X131373932Y-126531101D01*
X131445000Y-126398142D01*
X131516068Y-126531101D01*
X131695392Y-126749608D01*
X131913899Y-126928932D01*
X132163192Y-127062182D01*
X132433691Y-127144236D01*
X132644508Y-127165000D01*
X132785492Y-127165000D01*
X132996309Y-127144236D01*
X133266808Y-127062182D01*
X133516101Y-126928932D01*
X133734608Y-126749608D01*
X133913932Y-126531101D01*
X134047182Y-126281808D01*
X134129236Y-126011309D01*
X134156943Y-125730000D01*
X134129236Y-125448691D01*
X134047182Y-125178192D01*
X133985000Y-125061858D01*
X133985000Y-124522372D01*
X133991143Y-124459999D01*
X133985000Y-124397626D01*
X133985000Y-124397620D01*
X133966623Y-124211037D01*
X133957981Y-124182546D01*
X133930625Y-124092369D01*
X133894003Y-123971641D01*
X133776075Y-123751012D01*
X133617370Y-123557630D01*
X133568914Y-123517863D01*
X132387141Y-122336091D01*
X132347370Y-122287630D01*
X132153988Y-122128925D01*
X131933359Y-122010997D01*
X131693963Y-121938377D01*
X131507380Y-121920000D01*
X131507373Y-121920000D01*
X131445000Y-121913857D01*
X131382627Y-121920000D01*
X126427372Y-121920000D01*
X126364999Y-121913857D01*
X126302626Y-121920000D01*
X124351051Y-121920000D01*
X122555000Y-120123950D01*
X122555000Y-118459040D01*
X123703091Y-118459040D01*
X123797930Y-118723881D01*
X123942615Y-118965131D01*
X124131586Y-119173519D01*
X124357580Y-119341037D01*
X124611913Y-119461246D01*
X124745961Y-119501904D01*
X124968000Y-119379915D01*
X124968000Y-118237000D01*
X123824376Y-118237000D01*
X123703091Y-118459040D01*
X122555000Y-118459040D01*
X122555000Y-117760960D01*
X123703091Y-117760960D01*
X123824376Y-117983000D01*
X124968000Y-117983000D01*
X124968000Y-116840085D01*
X125222000Y-116840085D01*
X125222000Y-117983000D01*
X125242000Y-117983000D01*
X125242000Y-118237000D01*
X125222000Y-118237000D01*
X125222000Y-119379915D01*
X125444039Y-119501904D01*
X125578087Y-119461246D01*
X125832420Y-119341037D01*
X126058414Y-119173519D01*
X126247385Y-118965131D01*
X126362421Y-118773318D01*
X126436068Y-118911101D01*
X126615392Y-119129608D01*
X126833899Y-119308932D01*
X127083192Y-119442182D01*
X127353691Y-119524236D01*
X127564508Y-119545000D01*
X127705492Y-119545000D01*
X127916309Y-119524236D01*
X128186808Y-119442182D01*
X128436101Y-119308932D01*
X128654608Y-119129608D01*
X128833932Y-118911101D01*
X128905000Y-118778142D01*
X128976068Y-118911101D01*
X129155392Y-119129608D01*
X129373899Y-119308932D01*
X129623192Y-119442182D01*
X129893691Y-119524236D01*
X130104508Y-119545000D01*
X130245492Y-119545000D01*
X130456309Y-119524236D01*
X130726808Y-119442182D01*
X130976101Y-119308932D01*
X131194608Y-119129608D01*
X131287419Y-119016518D01*
X131289188Y-119034482D01*
X131325498Y-119154180D01*
X131384463Y-119264494D01*
X131463815Y-119361185D01*
X131560506Y-119440537D01*
X131670820Y-119499502D01*
X131790518Y-119535812D01*
X131915000Y-119548072D01*
X133515000Y-119548072D01*
X133639482Y-119535812D01*
X133759180Y-119499502D01*
X133869494Y-119440537D01*
X133966185Y-119361185D01*
X134045537Y-119264494D01*
X134104502Y-119154180D01*
X134140812Y-119034482D01*
X134153072Y-118910000D01*
X134153072Y-117310000D01*
X134140812Y-117185518D01*
X134104502Y-117065820D01*
X134045537Y-116955506D01*
X133966185Y-116858815D01*
X133869494Y-116779463D01*
X133759180Y-116720498D01*
X133639482Y-116684188D01*
X133515000Y-116671928D01*
X131915000Y-116671928D01*
X131790518Y-116684188D01*
X131670820Y-116720498D01*
X131560506Y-116779463D01*
X131463815Y-116858815D01*
X131384463Y-116955506D01*
X131325498Y-117065820D01*
X131289188Y-117185518D01*
X131287419Y-117203482D01*
X131194608Y-117090392D01*
X130976101Y-116911068D01*
X130726808Y-116777818D01*
X130456309Y-116695764D01*
X130245492Y-116675000D01*
X130104508Y-116675000D01*
X129893691Y-116695764D01*
X129623192Y-116777818D01*
X129373899Y-116911068D01*
X129155392Y-117090392D01*
X128976068Y-117308899D01*
X128905000Y-117441858D01*
X128833932Y-117308899D01*
X128654608Y-117090392D01*
X128436101Y-116911068D01*
X128186808Y-116777818D01*
X127916309Y-116695764D01*
X127705492Y-116675000D01*
X127564508Y-116675000D01*
X127353691Y-116695764D01*
X127083192Y-116777818D01*
X126833899Y-116911068D01*
X126615392Y-117090392D01*
X126436068Y-117308899D01*
X126362421Y-117446682D01*
X126247385Y-117254869D01*
X126058414Y-117046481D01*
X125832420Y-116878963D01*
X125578087Y-116758754D01*
X125444039Y-116718096D01*
X125222000Y-116840085D01*
X124968000Y-116840085D01*
X124745961Y-116718096D01*
X124611913Y-116758754D01*
X124357580Y-116878963D01*
X124131586Y-117046481D01*
X123942615Y-117254869D01*
X123797930Y-117496119D01*
X123703091Y-117760960D01*
X122555000Y-117760960D01*
X122555000Y-115461050D01*
X123716052Y-114300000D01*
X137903950Y-114300000D01*
X140970001Y-117366053D01*
X140970000Y-125449689D01*
X140896680Y-125410498D01*
X140776982Y-125374188D01*
X140652500Y-125361928D01*
X138747500Y-125361928D01*
X138623018Y-125374188D01*
X138503320Y-125410498D01*
X138393006Y-125469463D01*
X138296315Y-125548815D01*
X138216963Y-125645506D01*
X138157998Y-125755820D01*
X138121688Y-125875518D01*
X138109428Y-126000000D01*
X138109428Y-128000000D01*
X138121688Y-128124482D01*
X138157998Y-128244180D01*
X138216963Y-128354494D01*
X138296315Y-128451185D01*
X138393006Y-128530537D01*
X138503320Y-128589502D01*
X138623018Y-128625812D01*
X138747500Y-128638072D01*
X140652500Y-128638072D01*
X140776982Y-128625812D01*
X140896680Y-128589502D01*
X141006994Y-128530537D01*
X141103685Y-128451185D01*
X141183037Y-128354494D01*
X141227905Y-128270553D01*
X141353766Y-128373845D01*
X141629552Y-128521255D01*
X141928797Y-128612030D01*
X142240000Y-128642681D01*
X142551204Y-128612030D01*
X142850449Y-128521255D01*
X143126235Y-128373845D01*
X143367963Y-128175463D01*
X143510000Y-128002391D01*
X143652037Y-128175463D01*
X143893766Y-128373845D01*
X144169552Y-128521255D01*
X144468797Y-128612030D01*
X144780000Y-128642681D01*
X145091204Y-128612030D01*
X145390449Y-128521255D01*
X145666235Y-128373845D01*
X145907963Y-128175463D01*
X146106345Y-127933734D01*
X146253755Y-127657948D01*
X146344530Y-127358703D01*
X146367500Y-127125485D01*
X146367500Y-126874514D01*
X146344530Y-126641296D01*
X146253755Y-126342051D01*
X146106345Y-126066265D01*
X145907963Y-125824537D01*
X145666234Y-125626155D01*
X145390448Y-125478745D01*
X145091203Y-125387970D01*
X144780000Y-125357319D01*
X144468796Y-125387970D01*
X144169551Y-125478745D01*
X143893765Y-125626155D01*
X143652037Y-125824537D01*
X143510000Y-125997609D01*
X143510000Y-116902380D01*
X143516144Y-116840000D01*
X143491623Y-116591037D01*
X143419003Y-116351641D01*
X143343906Y-116211144D01*
X143301075Y-116131012D01*
X143190334Y-115996074D01*
X143182135Y-115986083D01*
X143182132Y-115986080D01*
X143142370Y-115937630D01*
X143093920Y-115897868D01*
X139372141Y-112176091D01*
X139332370Y-112127630D01*
X139138988Y-111968925D01*
X138918359Y-111850997D01*
X138678963Y-111778377D01*
X138492380Y-111760000D01*
X138492373Y-111760000D01*
X138430000Y-111753857D01*
X138367627Y-111760000D01*
X123252380Y-111760000D01*
X123190000Y-111753856D01*
X123127620Y-111760000D01*
X121347380Y-111760000D01*
X121285000Y-111753856D01*
X121222620Y-111760000D01*
X119442373Y-111760000D01*
X119380000Y-111753857D01*
X119317627Y-111760000D01*
X119001052Y-111760000D01*
X117512141Y-110271091D01*
X117472370Y-110222630D01*
X117278988Y-110063925D01*
X117058359Y-109945997D01*
X116818963Y-109873377D01*
X116632380Y-109855000D01*
X116632373Y-109855000D01*
X116570000Y-109848857D01*
X116507627Y-109855000D01*
X115302391Y-109855000D01*
X115296101Y-109849837D01*
X115481315Y-109694437D01*
X115675969Y-109451923D01*
X115819571Y-109176094D01*
X115890563Y-108957980D01*
X115770594Y-108712000D01*
X114427000Y-108712000D01*
X114427000Y-108732000D01*
X114173000Y-108732000D01*
X114173000Y-108712000D01*
X112829406Y-108712000D01*
X112709437Y-108957980D01*
X112780429Y-109176094D01*
X112924031Y-109451923D01*
X113118685Y-109694437D01*
X113303899Y-109849837D01*
X113124537Y-109997037D01*
X112926155Y-110238765D01*
X112778745Y-110514551D01*
X112687970Y-110813796D01*
X112657319Y-111125000D01*
X110617000Y-111125000D01*
X110617000Y-109272606D01*
X111304606Y-108585000D01*
X128563461Y-108585000D01*
X128609510Y-109052542D01*
X128745887Y-109502116D01*
X128967351Y-109916446D01*
X129265391Y-110279609D01*
X129628554Y-110577649D01*
X130042884Y-110799113D01*
X130492458Y-110935490D01*
X130842843Y-110970000D01*
X131077157Y-110970000D01*
X131427542Y-110935490D01*
X131877116Y-110799113D01*
X132291446Y-110577649D01*
X132581022Y-110340000D01*
X139843461Y-110340000D01*
X139889510Y-110807542D01*
X140025887Y-111257116D01*
X140247351Y-111671446D01*
X140545391Y-112034609D01*
X140908554Y-112332649D01*
X141322884Y-112554113D01*
X141772458Y-112690490D01*
X142122843Y-112725000D01*
X142357157Y-112725000D01*
X142707542Y-112690490D01*
X143157116Y-112554113D01*
X143571446Y-112332649D01*
X143934609Y-112034609D01*
X144232649Y-111671446D01*
X144454113Y-111257116D01*
X144590490Y-110807542D01*
X144636539Y-110340000D01*
X144590490Y-109872458D01*
X144454113Y-109422884D01*
X144232649Y-109008554D01*
X143934609Y-108645391D01*
X143571446Y-108347351D01*
X143157116Y-108125887D01*
X142707542Y-107989510D01*
X142357157Y-107955000D01*
X142122843Y-107955000D01*
X141772458Y-107989510D01*
X141322884Y-108125887D01*
X140908554Y-108347351D01*
X140545391Y-108645391D01*
X140247351Y-109008554D01*
X140025887Y-109422884D01*
X139889510Y-109872458D01*
X139843461Y-110340000D01*
X132581022Y-110340000D01*
X132654609Y-110279609D01*
X132952649Y-109916446D01*
X133174113Y-109502116D01*
X133310490Y-109052542D01*
X133356539Y-108585000D01*
X133310490Y-108117458D01*
X133174113Y-107667884D01*
X132952649Y-107253554D01*
X132654609Y-106890391D01*
X132291446Y-106592351D01*
X131877116Y-106370887D01*
X131427542Y-106234510D01*
X131077157Y-106200000D01*
X130842843Y-106200000D01*
X130492458Y-106234510D01*
X130042884Y-106370887D01*
X129628554Y-106592351D01*
X129265391Y-106890391D01*
X128967351Y-107253554D01*
X128745887Y-107667884D01*
X128609510Y-108117458D01*
X128563461Y-108585000D01*
X111304606Y-108585000D01*
X111812606Y-108077000D01*
X112753383Y-108077000D01*
X112709437Y-108212020D01*
X112829406Y-108458000D01*
X114173000Y-108458000D01*
X114173000Y-108438000D01*
X114427000Y-108438000D01*
X114427000Y-108458000D01*
X115770594Y-108458000D01*
X115890563Y-108212020D01*
X115819571Y-107993906D01*
X115780585Y-107919021D01*
X123279803Y-100419803D01*
X123295597Y-100400557D01*
X123307333Y-100378601D01*
X123314560Y-100354776D01*
X123317000Y-100330000D01*
X123317000Y-98504224D01*
X123925381Y-98504224D01*
X124057317Y-98799312D01*
X124398045Y-98970159D01*
X124765557Y-99071250D01*
X125145729Y-99098701D01*
X125523951Y-99051457D01*
X125885690Y-98931333D01*
X126132683Y-98799312D01*
X126264619Y-98504224D01*
X125095000Y-97334605D01*
X123925381Y-98504224D01*
X123317000Y-98504224D01*
X123317000Y-97940670D01*
X123318667Y-97945690D01*
X123450688Y-98192683D01*
X123745776Y-98324619D01*
X124915395Y-97155000D01*
X125274605Y-97155000D01*
X126444224Y-98324619D01*
X126739312Y-98192683D01*
X126910159Y-97851955D01*
X127011250Y-97484443D01*
X127038701Y-97104271D01*
X126991457Y-96726049D01*
X126871333Y-96364310D01*
X126739312Y-96117317D01*
X126444224Y-95985381D01*
X125274605Y-97155000D01*
X124915395Y-97155000D01*
X123745776Y-95985381D01*
X123450688Y-96117317D01*
X123317000Y-96383937D01*
X123317000Y-95805776D01*
X123925381Y-95805776D01*
X125095000Y-96975395D01*
X126264619Y-95805776D01*
X126132683Y-95510688D01*
X125791955Y-95339841D01*
X125424443Y-95238750D01*
X125044271Y-95211299D01*
X124666049Y-95258543D01*
X124304310Y-95378667D01*
X124057317Y-95510688D01*
X123925381Y-95805776D01*
X123317000Y-95805776D01*
X123317000Y-94107000D01*
X152527000Y-94107000D01*
X152527000Y-155448000D01*
X152527000Y-155448000D01*
G37*
X152527000Y-155448000D02*
X113157000Y-155448000D01*
X113157000Y-148033438D01*
X113601505Y-148033438D01*
X113640605Y-148273549D01*
X113725798Y-148501418D01*
X113766652Y-148577852D01*
X113990236Y-148625159D01*
X114660395Y-147955000D01*
X113990236Y-147284841D01*
X113766652Y-147332148D01*
X113665763Y-147553516D01*
X113610000Y-147790313D01*
X113601505Y-148033438D01*
X113157000Y-148033438D01*
X113157000Y-147105236D01*
X114169841Y-147105236D01*
X114840000Y-147775395D01*
X114854143Y-147761253D01*
X115033748Y-147940858D01*
X115019605Y-147955000D01*
X115033748Y-147969143D01*
X114854143Y-148148748D01*
X114840000Y-148134605D01*
X114169841Y-148804764D01*
X114217148Y-149028348D01*
X114438516Y-149129237D01*
X114675313Y-149185000D01*
X114918438Y-149193495D01*
X115158549Y-149154395D01*
X115386418Y-149069202D01*
X115462852Y-149028348D01*
X115510158Y-148804766D01*
X115627264Y-148921872D01*
X115685142Y-148863994D01*
X115709463Y-148909494D01*
X115788815Y-149006185D01*
X115885506Y-149085537D01*
X115995820Y-149144502D01*
X116115518Y-149180812D01*
X116240000Y-149193072D01*
X117440000Y-149193072D01*
X117564482Y-149180812D01*
X117684180Y-149144502D01*
X117794494Y-149085537D01*
X117891185Y-149006185D01*
X117970537Y-148909494D01*
X118029502Y-148799180D01*
X118065812Y-148679482D01*
X118078072Y-148555000D01*
X118078072Y-147355000D01*
X119411928Y-147355000D01*
X119411928Y-148555000D01*
X119424188Y-148679482D01*
X119460498Y-148799180D01*
X119519463Y-148909494D01*
X119598815Y-149006185D01*
X119695506Y-149085537D01*
X119805820Y-149144502D01*
X119925518Y-149180812D01*
X120050000Y-149193072D01*
X121250000Y-149193072D01*
X121374482Y-149180812D01*
X121494180Y-149144502D01*
X121604494Y-149085537D01*
X121701185Y-149006185D01*
X121780537Y-148909494D01*
X121804858Y-148863994D01*
X121862736Y-148921872D01*
X121979842Y-148804766D01*
X122027148Y-149028348D01*
X122248516Y-149129237D01*
X122485313Y-149185000D01*
X122728438Y-149193495D01*
X122968549Y-149154395D01*
X123196418Y-149069202D01*
X123272852Y-149028348D01*
X123320159Y-148804764D01*
X122650000Y-148134605D01*
X122635858Y-148148748D01*
X122456253Y-147969143D01*
X122470395Y-147955000D01*
X122829605Y-147955000D01*
X123499764Y-148625159D01*
X123665933Y-148590000D01*
X129368057Y-148590000D01*
X129395764Y-148871309D01*
X129477818Y-149141808D01*
X129611068Y-149391101D01*
X129790392Y-149609608D01*
X130008899Y-149788932D01*
X130141858Y-149860000D01*
X130008899Y-149931068D01*
X129790392Y-150110392D01*
X129611068Y-150328899D01*
X129477818Y-150578192D01*
X129395764Y-150848691D01*
X129368057Y-151130000D01*
X129395764Y-151411309D01*
X129477818Y-151681808D01*
X129611068Y-151931101D01*
X129790392Y-152149608D01*
X130008899Y-152328932D01*
X130258192Y-152462182D01*
X130528691Y-152544236D01*
X130739508Y-152565000D01*
X130880492Y-152565000D01*
X131091309Y-152544236D01*
X131361808Y-152462182D01*
X131611101Y-152328932D01*
X131829608Y-152149608D01*
X132008932Y-151931101D01*
X132142182Y-151681808D01*
X132224236Y-151411309D01*
X132251943Y-151130000D01*
X132224236Y-150848691D01*
X132142182Y-150578192D01*
X132008932Y-150328899D01*
X131829608Y-150110392D01*
X131611101Y-149931068D01*
X131478142Y-149860000D01*
X131611101Y-149788932D01*
X131829608Y-149609608D01*
X132008932Y-149391101D01*
X132142182Y-149141808D01*
X132224236Y-148871309D01*
X132251943Y-148590000D01*
X132224236Y-148308691D01*
X132142182Y-148038192D01*
X132008932Y-147788899D01*
X131829608Y-147570392D01*
X131611101Y-147391068D01*
X131473318Y-147317421D01*
X131665131Y-147202385D01*
X131873519Y-147013414D01*
X132041037Y-146787420D01*
X132161246Y-146533087D01*
X132201904Y-146399039D01*
X132079915Y-146177000D01*
X130937000Y-146177000D01*
X130937000Y-146197000D01*
X130683000Y-146197000D01*
X130683000Y-146177000D01*
X129540085Y-146177000D01*
X129418096Y-146399039D01*
X129458754Y-146533087D01*
X129578963Y-146787420D01*
X129746481Y-147013414D01*
X129954869Y-147202385D01*
X130146682Y-147317421D01*
X130008899Y-147391068D01*
X129790392Y-147570392D01*
X129611068Y-147788899D01*
X129477818Y-148038192D01*
X129395764Y-148308691D01*
X129368057Y-148590000D01*
X123665933Y-148590000D01*
X123723348Y-148577852D01*
X123824237Y-148356484D01*
X123880000Y-148119687D01*
X123888495Y-147876562D01*
X123849395Y-147636451D01*
X123764202Y-147408582D01*
X123723348Y-147332148D01*
X123499764Y-147284841D01*
X122829605Y-147955000D01*
X122470395Y-147955000D01*
X122456253Y-147940858D01*
X122635858Y-147761253D01*
X122650000Y-147775395D01*
X123320159Y-147105236D01*
X123272852Y-146881652D01*
X123051484Y-146780763D01*
X122814687Y-146725000D01*
X122571562Y-146716505D01*
X122331451Y-146755605D01*
X122103582Y-146840798D01*
X122027148Y-146881652D01*
X121979842Y-147105234D01*
X121862736Y-146988128D01*
X121804858Y-147046006D01*
X121780537Y-147000506D01*
X121701185Y-146903815D01*
X121604494Y-146824463D01*
X121494180Y-146765498D01*
X121374482Y-146729188D01*
X121250000Y-146716928D01*
X120050000Y-146716928D01*
X119925518Y-146729188D01*
X119805820Y-146765498D01*
X119695506Y-146824463D01*
X119598815Y-146903815D01*
X119519463Y-147000506D01*
X119460498Y-147110820D01*
X119424188Y-147230518D01*
X119411928Y-147355000D01*
X118078072Y-147355000D01*
X118065812Y-147230518D01*
X118029502Y-147110820D01*
X117970537Y-147000506D01*
X117891185Y-146903815D01*
X117794494Y-146824463D01*
X117684180Y-146765498D01*
X117564482Y-146729188D01*
X117440000Y-146716928D01*
X116240000Y-146716928D01*
X116115518Y-146729188D01*
X115995820Y-146765498D01*
X115885506Y-146824463D01*
X115788815Y-146903815D01*
X115709463Y-147000506D01*
X115685142Y-147046006D01*
X115627264Y-146988128D01*
X115510158Y-147105234D01*
X115462852Y-146881652D01*
X115241484Y-146780763D01*
X115004687Y-146725000D01*
X114761562Y-146716505D01*
X114521451Y-146755605D01*
X114293582Y-146840798D01*
X114217148Y-146881652D01*
X114169841Y-147105236D01*
X113157000Y-147105236D01*
X113157000Y-146737606D01*
X114946534Y-144948072D01*
X115735000Y-144948072D01*
X115859482Y-144935812D01*
X115979180Y-144899502D01*
X116089494Y-144840537D01*
X116186185Y-144761185D01*
X116265537Y-144664494D01*
X116324502Y-144554180D01*
X116360812Y-144434482D01*
X116362581Y-144416518D01*
X116455392Y-144529608D01*
X116673899Y-144708932D01*
X116923192Y-144842182D01*
X117193691Y-144924236D01*
X117404508Y-144945000D01*
X117545492Y-144945000D01*
X117756309Y-144924236D01*
X118026808Y-144842182D01*
X118276101Y-144708932D01*
X118494608Y-144529608D01*
X118673932Y-144311101D01*
X118745000Y-144178142D01*
X118816068Y-144311101D01*
X118995392Y-144529608D01*
X119213899Y-144708932D01*
X119463192Y-144842182D01*
X119733691Y-144924236D01*
X119944508Y-144945000D01*
X120085492Y-144945000D01*
X120296309Y-144924236D01*
X120566808Y-144842182D01*
X120816101Y-144708932D01*
X121034608Y-144529608D01*
X121213932Y-144311101D01*
X121287579Y-144173318D01*
X121402615Y-144365131D01*
X121591586Y-144573519D01*
X121817580Y-144741037D01*
X122071913Y-144861246D01*
X122205961Y-144901904D01*
X122428000Y-144779915D01*
X122428000Y-143637000D01*
X122682000Y-143637000D01*
X122682000Y-144779915D01*
X122904039Y-144901904D01*
X123038087Y-144861246D01*
X123292420Y-144741037D01*
X123518414Y-144573519D01*
X123707385Y-144365131D01*
X123852070Y-144123881D01*
X123946909Y-143859040D01*
X123825624Y-143637000D01*
X122682000Y-143637000D01*
X122428000Y-143637000D01*
X122408000Y-143637000D01*
X122408000Y-143383000D01*
X122428000Y-143383000D01*
X122428000Y-142240085D01*
X122682000Y-142240085D01*
X122682000Y-143383000D01*
X123825624Y-143383000D01*
X123946909Y-143160960D01*
X123852070Y-142896119D01*
X123707385Y-142654869D01*
X123518414Y-142446481D01*
X123292420Y-142278963D01*
X123038087Y-142158754D01*
X122904039Y-142118096D01*
X122682000Y-142240085D01*
X122428000Y-142240085D01*
X122205961Y-142118096D01*
X122071913Y-142158754D01*
X121817580Y-142278963D01*
X121591586Y-142446481D01*
X121402615Y-142654869D01*
X121287579Y-142846682D01*
X121213932Y-142708899D01*
X121034608Y-142490392D01*
X120816101Y-142311068D01*
X120566808Y-142177818D01*
X120296309Y-142095764D01*
X120085492Y-142075000D01*
X119944508Y-142075000D01*
X119733691Y-142095764D01*
X119463192Y-142177818D01*
X119213899Y-142311068D01*
X118995392Y-142490392D01*
X118816068Y-142708899D01*
X118745000Y-142841858D01*
X118745000Y-141667380D01*
X118751144Y-141605000D01*
X118726623Y-141356037D01*
X118654003Y-141116641D01*
X118575622Y-140970000D01*
X118536075Y-140896012D01*
X118425334Y-140761074D01*
X118417135Y-140751083D01*
X118417132Y-140751080D01*
X118377370Y-140702630D01*
X118328921Y-140662869D01*
X116512141Y-138846091D01*
X116472370Y-138797630D01*
X116278988Y-138638925D01*
X116058359Y-138520997D01*
X115818963Y-138448377D01*
X115632380Y-138430000D01*
X115632373Y-138430000D01*
X115570000Y-138423857D01*
X115507627Y-138430000D01*
X111651052Y-138430000D01*
X110617000Y-137395950D01*
X110617000Y-135890000D01*
X113493057Y-135890000D01*
X113520764Y-136171309D01*
X113602818Y-136441808D01*
X113736068Y-136691101D01*
X113915392Y-136909608D01*
X114133899Y-137088932D01*
X114383192Y-137222182D01*
X114653691Y-137304236D01*
X114864508Y-137325000D01*
X115005492Y-137325000D01*
X115216309Y-137304236D01*
X115486808Y-137222182D01*
X115736101Y-137088932D01*
X115954608Y-136909608D01*
X116133932Y-136691101D01*
X116205000Y-136558142D01*
X116276068Y-136691101D01*
X116455392Y-136909608D01*
X116673899Y-137088932D01*
X116923192Y-137222182D01*
X117193691Y-137304236D01*
X117404508Y-137325000D01*
X117545492Y-137325000D01*
X117756309Y-137304236D01*
X118026808Y-137222182D01*
X118276101Y-137088932D01*
X118494608Y-136909608D01*
X118673932Y-136691101D01*
X118745000Y-136558142D01*
X118816068Y-136691101D01*
X118995392Y-136909608D01*
X119213899Y-137088932D01*
X119463192Y-137222182D01*
X119733691Y-137304236D01*
X119944508Y-137325000D01*
X120085492Y-137325000D01*
X120296309Y-137304236D01*
X120566808Y-137222182D01*
X120816101Y-137088932D01*
X121034608Y-136909608D01*
X121213932Y-136691101D01*
X121285000Y-136558142D01*
X121356068Y-136691101D01*
X121535392Y-136909608D01*
X121753899Y-137088932D01*
X122003192Y-137222182D01*
X122273691Y-137304236D01*
X122484508Y-137325000D01*
X122625492Y-137325000D01*
X122836309Y-137304236D01*
X123106808Y-137222182D01*
X123356101Y-137088932D01*
X123574608Y-136909608D01*
X123753932Y-136691101D01*
X123887182Y-136441808D01*
X123969236Y-136171309D01*
X123996943Y-135890000D01*
X129368057Y-135890000D01*
X129395764Y-136171309D01*
X129477818Y-136441808D01*
X129611068Y-136691101D01*
X129790392Y-136909608D01*
X130008899Y-137088932D01*
X130141858Y-137160000D01*
X130008899Y-137231068D01*
X129790392Y-137410392D01*
X129611068Y-137628899D01*
X129477818Y-137878192D01*
X129395764Y-138148691D01*
X129368057Y-138430000D01*
X129395764Y-138711309D01*
X129477818Y-138981808D01*
X129611068Y-139231101D01*
X129790392Y-139449608D01*
X130008899Y-139628932D01*
X130141858Y-139700000D01*
X130008899Y-139771068D01*
X129790392Y-139950392D01*
X129611068Y-140168899D01*
X129477818Y-140418192D01*
X129395764Y-140688691D01*
X129368057Y-140970000D01*
X129395764Y-141251309D01*
X129477818Y-141521808D01*
X129611068Y-141771101D01*
X129790392Y-141989608D01*
X130008899Y-142168932D01*
X130141858Y-142240000D01*
X130008899Y-142311068D01*
X129790392Y-142490392D01*
X129611068Y-142708899D01*
X129477818Y-142958192D01*
X129395764Y-143228691D01*
X129368057Y-143510000D01*
X129395764Y-143791309D01*
X129477818Y-144061808D01*
X129611068Y-144311101D01*
X129790392Y-144529608D01*
X130008899Y-144708932D01*
X130146682Y-144782579D01*
X129954869Y-144897615D01*
X129746481Y-145086586D01*
X129578963Y-145312580D01*
X129458754Y-145566913D01*
X129418096Y-145700961D01*
X129540085Y-145923000D01*
X130683000Y-145923000D01*
X130683000Y-145903000D01*
X130937000Y-145903000D01*
X130937000Y-145923000D01*
X132079915Y-145923000D01*
X132201904Y-145700961D01*
X132161246Y-145566913D01*
X132041037Y-145312580D01*
X131873519Y-145086586D01*
X131665131Y-144897615D01*
X131473318Y-144782579D01*
X131611101Y-144708932D01*
X131829608Y-144529608D01*
X132008932Y-144311101D01*
X132142182Y-144061808D01*
X132224236Y-143791309D01*
X132251943Y-143510000D01*
X132224236Y-143228691D01*
X132142182Y-142958192D01*
X132008932Y-142708899D01*
X131829608Y-142490392D01*
X131611101Y-142311068D01*
X131478142Y-142240000D01*
X131611101Y-142168932D01*
X131829608Y-141989608D01*
X132008932Y-141771101D01*
X132142182Y-141521808D01*
X132224236Y-141251309D01*
X132251943Y-140970000D01*
X132224236Y-140688691D01*
X132142182Y-140418192D01*
X132008932Y-140168899D01*
X131829608Y-139950392D01*
X131611101Y-139771068D01*
X131478142Y-139700000D01*
X131611101Y-139628932D01*
X131829608Y-139449608D01*
X132008932Y-139231101D01*
X132142182Y-138981808D01*
X132224236Y-138711309D01*
X132251943Y-138430000D01*
X136988057Y-138430000D01*
X137015764Y-138711309D01*
X137097818Y-138981808D01*
X137231068Y-139231101D01*
X137410392Y-139449608D01*
X137628899Y-139628932D01*
X137761858Y-139700000D01*
X137628899Y-139771068D01*
X137410392Y-139950392D01*
X137231068Y-140168899D01*
X137097818Y-140418192D01*
X137015764Y-140688691D01*
X136988057Y-140970000D01*
X137015764Y-141251309D01*
X137097818Y-141521808D01*
X137231068Y-141771101D01*
X137410392Y-141989608D01*
X137628899Y-142168932D01*
X137761858Y-142240000D01*
X137628899Y-142311068D01*
X137410392Y-142490392D01*
X137231068Y-142708899D01*
X137097818Y-142958192D01*
X137015764Y-143228691D01*
X136988057Y-143510000D01*
X137015764Y-143791309D01*
X137097818Y-144061808D01*
X137231068Y-144311101D01*
X137410392Y-144529608D01*
X137628899Y-144708932D01*
X137761858Y-144780000D01*
X137628899Y-144851068D01*
X137410392Y-145030392D01*
X137231068Y-145248899D01*
X137097818Y-145498192D01*
X137015764Y-145768691D01*
X136988057Y-146050000D01*
X137015764Y-146331309D01*
X137097818Y-146601808D01*
X137231068Y-146851101D01*
X137410392Y-147069608D01*
X137628899Y-147248932D01*
X137761858Y-147320000D01*
X137628899Y-147391068D01*
X137410392Y-147570392D01*
X137231068Y-147788899D01*
X137097818Y-148038192D01*
X137015764Y-148308691D01*
X136988057Y-148590000D01*
X137015764Y-148871309D01*
X137097818Y-149141808D01*
X137231068Y-149391101D01*
X137410392Y-149609608D01*
X137523482Y-149702419D01*
X137505518Y-149704188D01*
X137385820Y-149740498D01*
X137275506Y-149799463D01*
X137178815Y-149878815D01*
X137099463Y-149975506D01*
X137040498Y-150085820D01*
X137004188Y-150205518D01*
X136991928Y-150330000D01*
X136991928Y-151930000D01*
X137004188Y-152054482D01*
X137040498Y-152174180D01*
X137099463Y-152284494D01*
X137178815Y-152381185D01*
X137275506Y-152460537D01*
X137385820Y-152519502D01*
X137505518Y-152555812D01*
X137630000Y-152568072D01*
X139230000Y-152568072D01*
X139354482Y-152555812D01*
X139474180Y-152519502D01*
X139549533Y-152479224D01*
X145515381Y-152479224D01*
X145647317Y-152774312D01*
X145988045Y-152945159D01*
X146355557Y-153046250D01*
X146735729Y-153073701D01*
X147113951Y-153026457D01*
X147475690Y-152906333D01*
X147722683Y-152774312D01*
X147854619Y-152479224D01*
X146685000Y-151309605D01*
X145515381Y-152479224D01*
X139549533Y-152479224D01*
X139584494Y-152460537D01*
X139681185Y-152381185D01*
X139760537Y-152284494D01*
X139819502Y-152174180D01*
X139855812Y-152054482D01*
X139868072Y-151930000D01*
X139868072Y-151180729D01*
X144741299Y-151180729D01*
X144788543Y-151558951D01*
X144908667Y-151920690D01*
X145040688Y-152167683D01*
X145335776Y-152299619D01*
X146505395Y-151130000D01*
X146864605Y-151130000D01*
X148034224Y-152299619D01*
X148329312Y-152167683D01*
X148500159Y-151826955D01*
X148601250Y-151459443D01*
X148628701Y-151079271D01*
X148581457Y-150701049D01*
X148461333Y-150339310D01*
X148329312Y-150092317D01*
X148034224Y-149960381D01*
X146864605Y-151130000D01*
X146505395Y-151130000D01*
X145335776Y-149960381D01*
X145040688Y-150092317D01*
X144869841Y-150433045D01*
X144768750Y-150800557D01*
X144741299Y-151180729D01*
X139868072Y-151180729D01*
X139868072Y-150330000D01*
X139855812Y-150205518D01*
X139819502Y-150085820D01*
X139760537Y-149975506D01*
X139681185Y-149878815D01*
X139584494Y-149799463D01*
X139549534Y-149780776D01*
X145515381Y-149780776D01*
X146685000Y-150950395D01*
X147854619Y-149780776D01*
X147722683Y-149485688D01*
X147381955Y-149314841D01*
X147014443Y-149213750D01*
X146634271Y-149186299D01*
X146256049Y-149233543D01*
X145894310Y-149353667D01*
X145647317Y-149485688D01*
X145515381Y-149780776D01*
X139549534Y-149780776D01*
X139474180Y-149740498D01*
X139354482Y-149704188D01*
X139336518Y-149702419D01*
X139449608Y-149609608D01*
X139628932Y-149391101D01*
X139762182Y-149141808D01*
X139844236Y-148871309D01*
X139871943Y-148590000D01*
X139844236Y-148308691D01*
X139762182Y-148038192D01*
X139628932Y-147788899D01*
X139449608Y-147570392D01*
X139231101Y-147391068D01*
X139098142Y-147320000D01*
X139231101Y-147248932D01*
X139449608Y-147069608D01*
X139628932Y-146851101D01*
X139762182Y-146601808D01*
X139844236Y-146331309D01*
X139871943Y-146050000D01*
X139844236Y-145768691D01*
X139762182Y-145498192D01*
X139628932Y-145248899D01*
X139449608Y-145030392D01*
X139231101Y-144851068D01*
X139098142Y-144780000D01*
X139154268Y-144750000D01*
X144746928Y-144750000D01*
X144746928Y-147350000D01*
X144759188Y-147474482D01*
X144795498Y-147594180D01*
X144854463Y-147704494D01*
X144933815Y-147801185D01*
X145030506Y-147880537D01*
X145140820Y-147939502D01*
X145260518Y-147975812D01*
X145385000Y-147988072D01*
X147985000Y-147988072D01*
X148109482Y-147975812D01*
X148229180Y-147939502D01*
X148339494Y-147880537D01*
X148436185Y-147801185D01*
X148515537Y-147704494D01*
X148574502Y-147594180D01*
X148610812Y-147474482D01*
X148623072Y-147350000D01*
X148623072Y-144750000D01*
X148610812Y-144625518D01*
X148574502Y-144505820D01*
X148515537Y-144395506D01*
X148436185Y-144298815D01*
X148339494Y-144219463D01*
X148229180Y-144160498D01*
X148109482Y-144124188D01*
X147985000Y-144111928D01*
X145385000Y-144111928D01*
X145260518Y-144124188D01*
X145140820Y-144160498D01*
X145030506Y-144219463D01*
X144933815Y-144298815D01*
X144854463Y-144395506D01*
X144795498Y-144505820D01*
X144759188Y-144625518D01*
X144746928Y-144750000D01*
X139154268Y-144750000D01*
X139231101Y-144708932D01*
X139449608Y-144529608D01*
X139628932Y-144311101D01*
X139762182Y-144061808D01*
X139844236Y-143791309D01*
X139871943Y-143510000D01*
X139844236Y-143228691D01*
X139762182Y-142958192D01*
X139628932Y-142708899D01*
X139449608Y-142490392D01*
X139231101Y-142311068D01*
X139098142Y-142240000D01*
X139231101Y-142168932D01*
X139449608Y-141989608D01*
X139628932Y-141771101D01*
X139762182Y-141521808D01*
X139844236Y-141251309D01*
X139871943Y-140970000D01*
X139844236Y-140688691D01*
X139762182Y-140418192D01*
X139628932Y-140168899D01*
X139449608Y-139950392D01*
X139231101Y-139771068D01*
X139098142Y-139700000D01*
X139231101Y-139628932D01*
X139449608Y-139449608D01*
X139572388Y-139300000D01*
X143388057Y-139300000D01*
X143415764Y-139581309D01*
X143497818Y-139851808D01*
X143631068Y-140101101D01*
X143810392Y-140319608D01*
X144028899Y-140498932D01*
X144278192Y-140632182D01*
X144548691Y-140714236D01*
X144759508Y-140735000D01*
X144900492Y-140735000D01*
X145111309Y-140714236D01*
X145381808Y-140632182D01*
X145631101Y-140498932D01*
X145849608Y-140319608D01*
X146028932Y-140101101D01*
X146162182Y-139851808D01*
X146244236Y-139581309D01*
X146271943Y-139300000D01*
X147438057Y-139300000D01*
X147465764Y-139581309D01*
X147547818Y-139851808D01*
X147681068Y-140101101D01*
X147860392Y-140319608D01*
X148078899Y-140498932D01*
X148328192Y-140632182D01*
X148598691Y-140714236D01*
X148809508Y-140735000D01*
X148950492Y-140735000D01*
X149161309Y-140714236D01*
X149431808Y-140632182D01*
X149681101Y-140498932D01*
X149899608Y-140319608D01*
X150078932Y-140101101D01*
X150212182Y-139851808D01*
X150294236Y-139581309D01*
X150321943Y-139300000D01*
X150294236Y-139018691D01*
X150212182Y-138748192D01*
X150078932Y-138498899D01*
X149899608Y-138280392D01*
X149681101Y-138101068D01*
X149431808Y-137967818D01*
X149161309Y-137885764D01*
X148950492Y-137865000D01*
X148809508Y-137865000D01*
X148598691Y-137885764D01*
X148328192Y-137967818D01*
X148078899Y-138101068D01*
X147860392Y-138280392D01*
X147681068Y-138498899D01*
X147547818Y-138748192D01*
X147465764Y-139018691D01*
X147438057Y-139300000D01*
X146271943Y-139300000D01*
X146244236Y-139018691D01*
X146162182Y-138748192D01*
X146028932Y-138498899D01*
X145849608Y-138280392D01*
X145631101Y-138101068D01*
X145381808Y-137967818D01*
X145111309Y-137885764D01*
X144900492Y-137865000D01*
X144759508Y-137865000D01*
X144548691Y-137885764D01*
X144278192Y-137967818D01*
X144028899Y-138101068D01*
X143810392Y-138280392D01*
X143631068Y-138498899D01*
X143497818Y-138748192D01*
X143415764Y-139018691D01*
X143388057Y-139300000D01*
X139572388Y-139300000D01*
X139628932Y-139231101D01*
X139762182Y-138981808D01*
X139844236Y-138711309D01*
X139871943Y-138430000D01*
X139844236Y-138148691D01*
X139762182Y-137878192D01*
X139628932Y-137628899D01*
X139449608Y-137410392D01*
X139231101Y-137231068D01*
X139093318Y-137157421D01*
X139285131Y-137042385D01*
X139493519Y-136853414D01*
X139661037Y-136627420D01*
X139781246Y-136373087D01*
X139821904Y-136239039D01*
X139699915Y-136017000D01*
X138557000Y-136017000D01*
X138557000Y-136037000D01*
X138303000Y-136037000D01*
X138303000Y-136017000D01*
X137160085Y-136017000D01*
X137038096Y-136239039D01*
X137078754Y-136373087D01*
X137198963Y-136627420D01*
X137366481Y-136853414D01*
X137574869Y-137042385D01*
X137766682Y-137157421D01*
X137628899Y-137231068D01*
X137410392Y-137410392D01*
X137231068Y-137628899D01*
X137097818Y-137878192D01*
X137015764Y-138148691D01*
X136988057Y-138430000D01*
X132251943Y-138430000D01*
X132224236Y-138148691D01*
X132142182Y-137878192D01*
X132008932Y-137628899D01*
X131829608Y-137410392D01*
X131611101Y-137231068D01*
X131478142Y-137160000D01*
X131611101Y-137088932D01*
X131829608Y-136909608D01*
X132008932Y-136691101D01*
X132142182Y-136441808D01*
X132224236Y-136171309D01*
X132251943Y-135890000D01*
X132224236Y-135608691D01*
X132203691Y-135540961D01*
X137038096Y-135540961D01*
X137160085Y-135763000D01*
X138303000Y-135763000D01*
X138303000Y-134619376D01*
X138557000Y-134619376D01*
X138557000Y-135763000D01*
X139699915Y-135763000D01*
X139821904Y-135540961D01*
X139781246Y-135406913D01*
X139661037Y-135152580D01*
X139493519Y-134926586D01*
X139285131Y-134737615D01*
X139043881Y-134592930D01*
X138779040Y-134498091D01*
X138557000Y-134619376D01*
X138303000Y-134619376D01*
X138080960Y-134498091D01*
X137816119Y-134592930D01*
X137574869Y-134737615D01*
X137366481Y-134926586D01*
X137198963Y-135152580D01*
X137078754Y-135406913D01*
X137038096Y-135540961D01*
X132203691Y-135540961D01*
X132142182Y-135338192D01*
X132008932Y-135088899D01*
X131829608Y-134870392D01*
X131611101Y-134691068D01*
X131361808Y-134557818D01*
X131091309Y-134475764D01*
X130880492Y-134455000D01*
X130739508Y-134455000D01*
X130528691Y-134475764D01*
X130258192Y-134557818D01*
X130008899Y-134691068D01*
X129790392Y-134870392D01*
X129611068Y-135088899D01*
X129477818Y-135338192D01*
X129395764Y-135608691D01*
X129368057Y-135890000D01*
X123996943Y-135890000D01*
X123969236Y-135608691D01*
X123887182Y-135338192D01*
X123753932Y-135088899D01*
X123574608Y-134870392D01*
X123356101Y-134691068D01*
X123106808Y-134557818D01*
X122836309Y-134475764D01*
X122625492Y-134455000D01*
X122484508Y-134455000D01*
X122273691Y-134475764D01*
X122003192Y-134557818D01*
X121753899Y-134691068D01*
X121535392Y-134870392D01*
X121356068Y-135088899D01*
X121285000Y-135221858D01*
X121213932Y-135088899D01*
X121034608Y-134870392D01*
X120816101Y-134691068D01*
X120566808Y-134557818D01*
X120296309Y-134475764D01*
X120085492Y-134455000D01*
X119944508Y-134455000D01*
X119733691Y-134475764D01*
X119463192Y-134557818D01*
X119213899Y-134691068D01*
X118995392Y-134870392D01*
X118816068Y-135088899D01*
X118745000Y-135221858D01*
X118673932Y-135088899D01*
X118494608Y-134870392D01*
X118276101Y-134691068D01*
X118026808Y-134557818D01*
X117756309Y-134475764D01*
X117545492Y-134455000D01*
X117404508Y-134455000D01*
X117193691Y-134475764D01*
X116923192Y-134557818D01*
X116673899Y-134691068D01*
X116455392Y-134870392D01*
X116276068Y-135088899D01*
X116205000Y-135221858D01*
X116133932Y-135088899D01*
X115954608Y-134870392D01*
X115736101Y-134691068D01*
X115486808Y-134557818D01*
X115216309Y-134475764D01*
X115005492Y-134455000D01*
X114864508Y-134455000D01*
X114653691Y-134475764D01*
X114383192Y-134557818D01*
X114133899Y-134691068D01*
X113915392Y-134870392D01*
X113736068Y-135088899D01*
X113602818Y-135338192D01*
X113520764Y-135608691D01*
X113493057Y-135890000D01*
X110617000Y-135890000D01*
X110617000Y-131159039D01*
X112908096Y-131159039D01*
X112948754Y-131293087D01*
X113068963Y-131547420D01*
X113236481Y-131773414D01*
X113444869Y-131962385D01*
X113686119Y-132107070D01*
X113950960Y-132201909D01*
X114173000Y-132080624D01*
X114173000Y-130937000D01*
X114427000Y-130937000D01*
X114427000Y-132080624D01*
X114649040Y-132201909D01*
X114913881Y-132107070D01*
X115155131Y-131962385D01*
X115181288Y-131938665D01*
X134455000Y-131938665D01*
X134455000Y-132221335D01*
X134510147Y-132498574D01*
X134618320Y-132759727D01*
X134775363Y-132994759D01*
X134975241Y-133194637D01*
X135210273Y-133351680D01*
X135471426Y-133459853D01*
X135748665Y-133515000D01*
X136031335Y-133515000D01*
X136308574Y-133459853D01*
X136569727Y-133351680D01*
X136804759Y-133194637D01*
X137004637Y-132994759D01*
X137161680Y-132759727D01*
X137259004Y-132524764D01*
X139664841Y-132524764D01*
X139712148Y-132748348D01*
X139933516Y-132849237D01*
X140170313Y-132905000D01*
X140413438Y-132913495D01*
X140653549Y-132874395D01*
X140881418Y-132789202D01*
X140957852Y-132748348D01*
X141005159Y-132524764D01*
X140335000Y-131854605D01*
X139664841Y-132524764D01*
X137259004Y-132524764D01*
X137269853Y-132498574D01*
X137325000Y-132221335D01*
X137325000Y-131938665D01*
X137288156Y-131753438D01*
X139096505Y-131753438D01*
X139135605Y-131993549D01*
X139220798Y-132221418D01*
X139261652Y-132297852D01*
X139485236Y-132345159D01*
X140155395Y-131675000D01*
X140141253Y-131660858D01*
X140320858Y-131481253D01*
X140335000Y-131495395D01*
X140349143Y-131481253D01*
X140528748Y-131660858D01*
X140514605Y-131675000D01*
X141184764Y-132345159D01*
X141408348Y-132297852D01*
X141509237Y-132076484D01*
X141565000Y-131839687D01*
X141573495Y-131596562D01*
X141564067Y-131538665D01*
X143395000Y-131538665D01*
X143395000Y-131821335D01*
X143450147Y-132098574D01*
X143558320Y-132359727D01*
X143715363Y-132594759D01*
X143915241Y-132794637D01*
X144150273Y-132951680D01*
X144411426Y-133059853D01*
X144688665Y-133115000D01*
X144971335Y-133115000D01*
X145248574Y-133059853D01*
X145509727Y-132951680D01*
X145744759Y-132794637D01*
X145944637Y-132594759D01*
X146101680Y-132359727D01*
X146209853Y-132098574D01*
X146265000Y-131821335D01*
X146265000Y-131538665D01*
X147445000Y-131538665D01*
X147445000Y-131821335D01*
X147500147Y-132098574D01*
X147608320Y-132359727D01*
X147765363Y-132594759D01*
X147965241Y-132794637D01*
X148200273Y-132951680D01*
X148461426Y-133059853D01*
X148738665Y-133115000D01*
X149021335Y-133115000D01*
X149298574Y-133059853D01*
X149559727Y-132951680D01*
X149794759Y-132794637D01*
X149994637Y-132594759D01*
X150151680Y-132359727D01*
X150259853Y-132098574D01*
X150315000Y-131821335D01*
X150315000Y-131538665D01*
X150259853Y-131261426D01*
X150151680Y-131000273D01*
X149994637Y-130765241D01*
X149794759Y-130565363D01*
X149559727Y-130408320D01*
X149298574Y-130300147D01*
X149021335Y-130245000D01*
X148738665Y-130245000D01*
X148461426Y-130300147D01*
X148200273Y-130408320D01*
X147965241Y-130565363D01*
X147765363Y-130765241D01*
X147608320Y-131000273D01*
X147500147Y-131261426D01*
X147445000Y-131538665D01*
X146265000Y-131538665D01*
X146209853Y-131261426D01*
X146101680Y-131000273D01*
X145944637Y-130765241D01*
X145744759Y-130565363D01*
X145509727Y-130408320D01*
X145248574Y-130300147D01*
X144971335Y-130245000D01*
X144688665Y-130245000D01*
X144411426Y-130300147D01*
X144150273Y-130408320D01*
X143915241Y-130565363D01*
X143715363Y-130765241D01*
X143558320Y-131000273D01*
X143450147Y-131261426D01*
X143395000Y-131538665D01*
X141564067Y-131538665D01*
X141534395Y-131356451D01*
X141454549Y-131142883D01*
X141465537Y-131129494D01*
X141524502Y-131019180D01*
X141560812Y-130899482D01*
X141573072Y-130775000D01*
X141573072Y-129575000D01*
X141560812Y-129450518D01*
X141524502Y-129330820D01*
X141465537Y-129220506D01*
X141386185Y-129123815D01*
X141289494Y-129044463D01*
X141179180Y-128985498D01*
X141059482Y-128949188D01*
X140935000Y-128936928D01*
X139735000Y-128936928D01*
X139610518Y-128949188D01*
X139490820Y-128985498D01*
X139380506Y-129044463D01*
X139283815Y-129123815D01*
X139204463Y-129220506D01*
X139145498Y-129330820D01*
X139109188Y-129450518D01*
X139096928Y-129575000D01*
X139096928Y-130775000D01*
X139109188Y-130899482D01*
X139145498Y-131019180D01*
X139204463Y-131129494D01*
X139218568Y-131146681D01*
X139160763Y-131273516D01*
X139105000Y-131510313D01*
X139096505Y-131753438D01*
X137288156Y-131753438D01*
X137269853Y-131661426D01*
X137161680Y-131400273D01*
X137004637Y-131165241D01*
X136804759Y-130965363D01*
X136604131Y-130831308D01*
X136631514Y-130816671D01*
X136703097Y-130572702D01*
X135890000Y-129759605D01*
X135076903Y-130572702D01*
X135148486Y-130816671D01*
X135177341Y-130830324D01*
X134975241Y-130965363D01*
X134775363Y-131165241D01*
X134618320Y-131400273D01*
X134510147Y-131661426D01*
X134455000Y-131938665D01*
X115181288Y-131938665D01*
X115363519Y-131773414D01*
X115531037Y-131547420D01*
X115651246Y-131293087D01*
X115691904Y-131159039D01*
X115569915Y-130937000D01*
X114427000Y-130937000D01*
X114173000Y-130937000D01*
X113030085Y-130937000D01*
X112908096Y-131159039D01*
X110617000Y-131159039D01*
X110617000Y-128270000D01*
X112858057Y-128270000D01*
X112885764Y-128551309D01*
X112967818Y-128821808D01*
X113101068Y-129071101D01*
X113280392Y-129289608D01*
X113498899Y-129468932D01*
X113636682Y-129542579D01*
X113444869Y-129657615D01*
X113236481Y-129846586D01*
X113068963Y-130072580D01*
X112948754Y-130326913D01*
X112908096Y-130460961D01*
X113030085Y-130683000D01*
X114173000Y-130683000D01*
X114173000Y-130663000D01*
X114427000Y-130663000D01*
X114427000Y-130683000D01*
X115569915Y-130683000D01*
X115691904Y-130460961D01*
X115651246Y-130326913D01*
X115531037Y-130072580D01*
X115363519Y-129846586D01*
X115155131Y-129657615D01*
X114963318Y-129542579D01*
X115101101Y-129468932D01*
X115319608Y-129289608D01*
X115498932Y-129071101D01*
X115632182Y-128821808D01*
X115714236Y-128551309D01*
X115741943Y-128270000D01*
X115714236Y-127988691D01*
X115632182Y-127718192D01*
X115578863Y-127618438D01*
X118776505Y-127618438D01*
X118815605Y-127858549D01*
X118900798Y-128086418D01*
X118941652Y-128162852D01*
X119165234Y-128210158D01*
X119048128Y-128327264D01*
X119106006Y-128385142D01*
X119060506Y-128409463D01*
X118963815Y-128488815D01*
X118884463Y-128585506D01*
X118825498Y-128695820D01*
X118789188Y-128815518D01*
X118776928Y-128940000D01*
X118776928Y-130140000D01*
X118789188Y-130264482D01*
X118825498Y-130384180D01*
X118884463Y-130494494D01*
X118963815Y-130591185D01*
X119060506Y-130670537D01*
X119170820Y-130729502D01*
X119290518Y-130765812D01*
X119415000Y-130778072D01*
X120615000Y-130778072D01*
X120739482Y-130765812D01*
X120859180Y-130729502D01*
X120969494Y-130670537D01*
X121066185Y-130591185D01*
X121145537Y-130494494D01*
X121204502Y-130384180D01*
X121240812Y-130264482D01*
X121253072Y-130140000D01*
X121253072Y-129650512D01*
X134449783Y-129650512D01*
X134491213Y-129930130D01*
X134586397Y-130196292D01*
X134653329Y-130321514D01*
X134897298Y-130393097D01*
X135710395Y-129580000D01*
X136069605Y-129580000D01*
X136882702Y-130393097D01*
X137126671Y-130321514D01*
X137247571Y-130066004D01*
X137316300Y-129791816D01*
X137330217Y-129509488D01*
X137288787Y-129229870D01*
X137193603Y-128963708D01*
X137126671Y-128838486D01*
X136882702Y-128766903D01*
X136069605Y-129580000D01*
X135710395Y-129580000D01*
X134897298Y-128766903D01*
X134653329Y-128838486D01*
X134532429Y-129093996D01*
X134463700Y-129368184D01*
X134449783Y-129650512D01*
X121253072Y-129650512D01*
X121253072Y-128940000D01*
X121240812Y-128815518D01*
X121204502Y-128695820D01*
X121146495Y-128587298D01*
X135076903Y-128587298D01*
X135890000Y-129400395D01*
X136703097Y-128587298D01*
X136631514Y-128343329D01*
X136376004Y-128222429D01*
X136101816Y-128153700D01*
X135819488Y-128139783D01*
X135539870Y-128181213D01*
X135273708Y-128276397D01*
X135148486Y-128343329D01*
X135076903Y-128587298D01*
X121146495Y-128587298D01*
X121145537Y-128585506D01*
X121066185Y-128488815D01*
X120969494Y-128409463D01*
X120923994Y-128385142D01*
X120981872Y-128327264D01*
X120864766Y-128210158D01*
X121088348Y-128162852D01*
X121189237Y-127941484D01*
X121245000Y-127704687D01*
X121253495Y-127461562D01*
X121214395Y-127221451D01*
X121129202Y-126993582D01*
X121088348Y-126917148D01*
X120864764Y-126869841D01*
X120194605Y-127540000D01*
X120208748Y-127554143D01*
X120029143Y-127733748D01*
X120015000Y-127719605D01*
X120000858Y-127733748D01*
X119821253Y-127554143D01*
X119835395Y-127540000D01*
X119165236Y-126869841D01*
X118941652Y-126917148D01*
X118840763Y-127138516D01*
X118785000Y-127375313D01*
X118776505Y-127618438D01*
X115578863Y-127618438D01*
X115498932Y-127468899D01*
X115319608Y-127250392D01*
X115101101Y-127071068D01*
X114963318Y-126997421D01*
X115155131Y-126882385D01*
X115363519Y-126693414D01*
X115365874Y-126690236D01*
X119344841Y-126690236D01*
X120015000Y-127360395D01*
X120685159Y-126690236D01*
X120637852Y-126466652D01*
X120416484Y-126365763D01*
X120179687Y-126310000D01*
X119936562Y-126301505D01*
X119696451Y-126340605D01*
X119468582Y-126425798D01*
X119392148Y-126466652D01*
X119344841Y-126690236D01*
X115365874Y-126690236D01*
X115531037Y-126467420D01*
X115651246Y-126213087D01*
X115691904Y-126079039D01*
X115569915Y-125857000D01*
X114427000Y-125857000D01*
X114427000Y-125877000D01*
X114173000Y-125877000D01*
X114173000Y-125857000D01*
X113030085Y-125857000D01*
X112908096Y-126079039D01*
X112948754Y-126213087D01*
X113068963Y-126467420D01*
X113236481Y-126693414D01*
X113444869Y-126882385D01*
X113636682Y-126997421D01*
X113498899Y-127071068D01*
X113280392Y-127250392D01*
X113101068Y-127468899D01*
X112967818Y-127718192D01*
X112885764Y-127988691D01*
X112858057Y-128270000D01*
X110617000Y-128270000D01*
X110617000Y-123190000D01*
X112858057Y-123190000D01*
X112885764Y-123471309D01*
X112967818Y-123741808D01*
X113101068Y-123991101D01*
X113280392Y-124209608D01*
X113498899Y-124388932D01*
X113636682Y-124462579D01*
X113444869Y-124577615D01*
X113236481Y-124766586D01*
X113068963Y-124992580D01*
X112948754Y-125246913D01*
X112908096Y-125380961D01*
X113030085Y-125603000D01*
X114173000Y-125603000D01*
X114173000Y-125583000D01*
X114427000Y-125583000D01*
X114427000Y-125603000D01*
X115569915Y-125603000D01*
X115691904Y-125380961D01*
X115651246Y-125246913D01*
X115531037Y-124992580D01*
X115363519Y-124766586D01*
X115155131Y-124577615D01*
X114963318Y-124462579D01*
X115101101Y-124388932D01*
X115319608Y-124209608D01*
X115498932Y-123991101D01*
X115632182Y-123741808D01*
X115714236Y-123471309D01*
X115741943Y-123190000D01*
X115714236Y-122908691D01*
X115632182Y-122638192D01*
X115498932Y-122388899D01*
X115319608Y-122170392D01*
X115101101Y-121991068D01*
X114851808Y-121857818D01*
X114581309Y-121775764D01*
X114370492Y-121755000D01*
X114229508Y-121755000D01*
X114018691Y-121775764D01*
X113748192Y-121857818D01*
X113498899Y-121991068D01*
X113280392Y-122170392D01*
X113101068Y-122388899D01*
X112967818Y-122638192D01*
X112885764Y-122908691D01*
X112858057Y-123190000D01*
X110617000Y-123190000D01*
X110617000Y-111125000D01*
X112657319Y-111125000D01*
X112687970Y-111436204D01*
X112778745Y-111735449D01*
X112926155Y-112011235D01*
X113124537Y-112252963D01*
X113366265Y-112451345D01*
X113642051Y-112598755D01*
X113941296Y-112689530D01*
X114174514Y-112712500D01*
X114425486Y-112712500D01*
X114658704Y-112689530D01*
X114957949Y-112598755D01*
X115233735Y-112451345D01*
X115302391Y-112395000D01*
X116043950Y-112395000D01*
X117532868Y-113883919D01*
X117572630Y-113932370D01*
X117621080Y-113972132D01*
X117621083Y-113972135D01*
X117671086Y-114013171D01*
X117766012Y-114091075D01*
X117986641Y-114209003D01*
X118226037Y-114281623D01*
X118475000Y-114306144D01*
X118537380Y-114300000D01*
X118853950Y-114300000D01*
X120015000Y-115461052D01*
X120015001Y-120587617D01*
X120008857Y-120650000D01*
X120033377Y-120898963D01*
X120105998Y-121138359D01*
X120223926Y-121358988D01*
X120382631Y-121552370D01*
X120431086Y-121592136D01*
X122641669Y-123802720D01*
X122645997Y-123816988D01*
X122763925Y-124037617D01*
X122922630Y-124231000D01*
X122971091Y-124270771D01*
X123803117Y-125102798D01*
X123762818Y-125178192D01*
X123680764Y-125448691D01*
X123653057Y-125730000D01*
X123680764Y-126011309D01*
X123762818Y-126281808D01*
X123896068Y-126531101D01*
X124075392Y-126749608D01*
X124293899Y-126928932D01*
X124543192Y-127062182D01*
X124813691Y-127144236D01*
X125024508Y-127165000D01*
X125165492Y-127165000D01*
X125376309Y-127144236D01*
X125646808Y-127062182D01*
X125896101Y-126928932D01*
X126114608Y-126749608D01*
X126293932Y-126531101D01*
X126367579Y-126393318D01*
X126482615Y-126585131D01*
X126671586Y-126793519D01*
X126897580Y-126961037D01*
X127151913Y-127081246D01*
X127285961Y-127121904D01*
X127508000Y-126999915D01*
X127508000Y-125857000D01*
X127488000Y-125857000D01*
X127488000Y-125603000D01*
X127508000Y-125603000D01*
X127508000Y-125583000D01*
X127762000Y-125583000D01*
X127762000Y-125603000D01*
X127782000Y-125603000D01*
X127782000Y-125857000D01*
X127762000Y-125857000D01*
X127762000Y-126999915D01*
X127984039Y-127121904D01*
X128118087Y-127081246D01*
X128372420Y-126961037D01*
X128598414Y-126793519D01*
X128787385Y-126585131D01*
X128902421Y-126393318D01*
X128976068Y-126531101D01*
X129155392Y-126749608D01*
X129373899Y-126928932D01*
X129623192Y-127062182D01*
X129893691Y-127144236D01*
X130104508Y-127165000D01*
X130245492Y-127165000D01*
X130456309Y-127144236D01*
X130726808Y-127062182D01*
X130976101Y-126928932D01*
X131194608Y-126749608D01*
X131373932Y-126531101D01*
X131445000Y-126398142D01*
X131516068Y-126531101D01*
X131695392Y-126749608D01*
X131913899Y-126928932D01*
X132163192Y-127062182D01*
X132433691Y-127144236D01*
X132644508Y-127165000D01*
X132785492Y-127165000D01*
X132996309Y-127144236D01*
X133266808Y-127062182D01*
X133516101Y-126928932D01*
X133734608Y-126749608D01*
X133913932Y-126531101D01*
X134047182Y-126281808D01*
X134129236Y-126011309D01*
X134156943Y-125730000D01*
X134129236Y-125448691D01*
X134047182Y-125178192D01*
X133985000Y-125061858D01*
X133985000Y-124522372D01*
X133991143Y-124459999D01*
X133985000Y-124397626D01*
X133985000Y-124397620D01*
X133966623Y-124211037D01*
X133957981Y-124182546D01*
X133930625Y-124092369D01*
X133894003Y-123971641D01*
X133776075Y-123751012D01*
X133617370Y-123557630D01*
X133568914Y-123517863D01*
X132387141Y-122336091D01*
X132347370Y-122287630D01*
X132153988Y-122128925D01*
X131933359Y-122010997D01*
X131693963Y-121938377D01*
X131507380Y-121920000D01*
X131507373Y-121920000D01*
X131445000Y-121913857D01*
X131382627Y-121920000D01*
X126427372Y-121920000D01*
X126364999Y-121913857D01*
X126302626Y-121920000D01*
X124351051Y-121920000D01*
X122555000Y-120123950D01*
X122555000Y-118459040D01*
X123703091Y-118459040D01*
X123797930Y-118723881D01*
X123942615Y-118965131D01*
X124131586Y-119173519D01*
X124357580Y-119341037D01*
X124611913Y-119461246D01*
X124745961Y-119501904D01*
X124968000Y-119379915D01*
X124968000Y-118237000D01*
X123824376Y-118237000D01*
X123703091Y-118459040D01*
X122555000Y-118459040D01*
X122555000Y-117760960D01*
X123703091Y-117760960D01*
X123824376Y-117983000D01*
X124968000Y-117983000D01*
X124968000Y-116840085D01*
X125222000Y-116840085D01*
X125222000Y-117983000D01*
X125242000Y-117983000D01*
X125242000Y-118237000D01*
X125222000Y-118237000D01*
X125222000Y-119379915D01*
X125444039Y-119501904D01*
X125578087Y-119461246D01*
X125832420Y-119341037D01*
X126058414Y-119173519D01*
X126247385Y-118965131D01*
X126362421Y-118773318D01*
X126436068Y-118911101D01*
X126615392Y-119129608D01*
X126833899Y-119308932D01*
X127083192Y-119442182D01*
X127353691Y-119524236D01*
X127564508Y-119545000D01*
X127705492Y-119545000D01*
X127916309Y-119524236D01*
X128186808Y-119442182D01*
X128436101Y-119308932D01*
X128654608Y-119129608D01*
X128833932Y-118911101D01*
X128905000Y-118778142D01*
X128976068Y-118911101D01*
X129155392Y-119129608D01*
X129373899Y-119308932D01*
X129623192Y-119442182D01*
X129893691Y-119524236D01*
X130104508Y-119545000D01*
X130245492Y-119545000D01*
X130456309Y-119524236D01*
X130726808Y-119442182D01*
X130976101Y-119308932D01*
X131194608Y-119129608D01*
X131287419Y-119016518D01*
X131289188Y-119034482D01*
X131325498Y-119154180D01*
X131384463Y-119264494D01*
X131463815Y-119361185D01*
X131560506Y-119440537D01*
X131670820Y-119499502D01*
X131790518Y-119535812D01*
X131915000Y-119548072D01*
X133515000Y-119548072D01*
X133639482Y-119535812D01*
X133759180Y-119499502D01*
X133869494Y-119440537D01*
X133966185Y-119361185D01*
X134045537Y-119264494D01*
X134104502Y-119154180D01*
X134140812Y-119034482D01*
X134153072Y-118910000D01*
X134153072Y-117310000D01*
X134140812Y-117185518D01*
X134104502Y-117065820D01*
X134045537Y-116955506D01*
X133966185Y-116858815D01*
X133869494Y-116779463D01*
X133759180Y-116720498D01*
X133639482Y-116684188D01*
X133515000Y-116671928D01*
X131915000Y-116671928D01*
X131790518Y-116684188D01*
X131670820Y-116720498D01*
X131560506Y-116779463D01*
X131463815Y-116858815D01*
X131384463Y-116955506D01*
X131325498Y-117065820D01*
X131289188Y-117185518D01*
X131287419Y-117203482D01*
X131194608Y-117090392D01*
X130976101Y-116911068D01*
X130726808Y-116777818D01*
X130456309Y-116695764D01*
X130245492Y-116675000D01*
X130104508Y-116675000D01*
X129893691Y-116695764D01*
X129623192Y-116777818D01*
X129373899Y-116911068D01*
X129155392Y-117090392D01*
X128976068Y-117308899D01*
X128905000Y-117441858D01*
X128833932Y-117308899D01*
X128654608Y-117090392D01*
X128436101Y-116911068D01*
X128186808Y-116777818D01*
X127916309Y-116695764D01*
X127705492Y-116675000D01*
X127564508Y-116675000D01*
X127353691Y-116695764D01*
X127083192Y-116777818D01*
X126833899Y-116911068D01*
X126615392Y-117090392D01*
X126436068Y-117308899D01*
X126362421Y-117446682D01*
X126247385Y-117254869D01*
X126058414Y-117046481D01*
X125832420Y-116878963D01*
X125578087Y-116758754D01*
X125444039Y-116718096D01*
X125222000Y-116840085D01*
X124968000Y-116840085D01*
X124745961Y-116718096D01*
X124611913Y-116758754D01*
X124357580Y-116878963D01*
X124131586Y-117046481D01*
X123942615Y-117254869D01*
X123797930Y-117496119D01*
X123703091Y-117760960D01*
X122555000Y-117760960D01*
X122555000Y-115461050D01*
X123716052Y-114300000D01*
X137903950Y-114300000D01*
X140970001Y-117366053D01*
X140970000Y-125449689D01*
X140896680Y-125410498D01*
X140776982Y-125374188D01*
X140652500Y-125361928D01*
X138747500Y-125361928D01*
X138623018Y-125374188D01*
X138503320Y-125410498D01*
X138393006Y-125469463D01*
X138296315Y-125548815D01*
X138216963Y-125645506D01*
X138157998Y-125755820D01*
X138121688Y-125875518D01*
X138109428Y-126000000D01*
X138109428Y-128000000D01*
X138121688Y-128124482D01*
X138157998Y-128244180D01*
X138216963Y-128354494D01*
X138296315Y-128451185D01*
X138393006Y-128530537D01*
X138503320Y-128589502D01*
X138623018Y-128625812D01*
X138747500Y-128638072D01*
X140652500Y-128638072D01*
X140776982Y-128625812D01*
X140896680Y-128589502D01*
X141006994Y-128530537D01*
X141103685Y-128451185D01*
X141183037Y-128354494D01*
X141227905Y-128270553D01*
X141353766Y-128373845D01*
X141629552Y-128521255D01*
X141928797Y-128612030D01*
X142240000Y-128642681D01*
X142551204Y-128612030D01*
X142850449Y-128521255D01*
X143126235Y-128373845D01*
X143367963Y-128175463D01*
X143510000Y-128002391D01*
X143652037Y-128175463D01*
X143893766Y-128373845D01*
X144169552Y-128521255D01*
X144468797Y-128612030D01*
X144780000Y-128642681D01*
X145091204Y-128612030D01*
X145390449Y-128521255D01*
X145666235Y-128373845D01*
X145907963Y-128175463D01*
X146106345Y-127933734D01*
X146253755Y-127657948D01*
X146344530Y-127358703D01*
X146367500Y-127125485D01*
X146367500Y-126874514D01*
X146344530Y-126641296D01*
X146253755Y-126342051D01*
X146106345Y-126066265D01*
X145907963Y-125824537D01*
X145666234Y-125626155D01*
X145390448Y-125478745D01*
X145091203Y-125387970D01*
X144780000Y-125357319D01*
X144468796Y-125387970D01*
X144169551Y-125478745D01*
X143893765Y-125626155D01*
X143652037Y-125824537D01*
X143510000Y-125997609D01*
X143510000Y-116902380D01*
X143516144Y-116840000D01*
X143491623Y-116591037D01*
X143419003Y-116351641D01*
X143343906Y-116211144D01*
X143301075Y-116131012D01*
X143190334Y-115996074D01*
X143182135Y-115986083D01*
X143182132Y-115986080D01*
X143142370Y-115937630D01*
X143093920Y-115897868D01*
X139372141Y-112176091D01*
X139332370Y-112127630D01*
X139138988Y-111968925D01*
X138918359Y-111850997D01*
X138678963Y-111778377D01*
X138492380Y-111760000D01*
X138492373Y-111760000D01*
X138430000Y-111753857D01*
X138367627Y-111760000D01*
X123252380Y-111760000D01*
X123190000Y-111753856D01*
X123127620Y-111760000D01*
X121347380Y-111760000D01*
X121285000Y-111753856D01*
X121222620Y-111760000D01*
X119442373Y-111760000D01*
X119380000Y-111753857D01*
X119317627Y-111760000D01*
X119001052Y-111760000D01*
X117512141Y-110271091D01*
X117472370Y-110222630D01*
X117278988Y-110063925D01*
X117058359Y-109945997D01*
X116818963Y-109873377D01*
X116632380Y-109855000D01*
X116632373Y-109855000D01*
X116570000Y-109848857D01*
X116507627Y-109855000D01*
X115302391Y-109855000D01*
X115296101Y-109849837D01*
X115481315Y-109694437D01*
X115675969Y-109451923D01*
X115819571Y-109176094D01*
X115890563Y-108957980D01*
X115770594Y-108712000D01*
X114427000Y-108712000D01*
X114427000Y-108732000D01*
X114173000Y-108732000D01*
X114173000Y-108712000D01*
X112829406Y-108712000D01*
X112709437Y-108957980D01*
X112780429Y-109176094D01*
X112924031Y-109451923D01*
X113118685Y-109694437D01*
X113303899Y-109849837D01*
X113124537Y-109997037D01*
X112926155Y-110238765D01*
X112778745Y-110514551D01*
X112687970Y-110813796D01*
X112657319Y-111125000D01*
X110617000Y-111125000D01*
X110617000Y-109272606D01*
X111304606Y-108585000D01*
X128563461Y-108585000D01*
X128609510Y-109052542D01*
X128745887Y-109502116D01*
X128967351Y-109916446D01*
X129265391Y-110279609D01*
X129628554Y-110577649D01*
X130042884Y-110799113D01*
X130492458Y-110935490D01*
X130842843Y-110970000D01*
X131077157Y-110970000D01*
X131427542Y-110935490D01*
X131877116Y-110799113D01*
X132291446Y-110577649D01*
X132581022Y-110340000D01*
X139843461Y-110340000D01*
X139889510Y-110807542D01*
X140025887Y-111257116D01*
X140247351Y-111671446D01*
X140545391Y-112034609D01*
X140908554Y-112332649D01*
X141322884Y-112554113D01*
X141772458Y-112690490D01*
X142122843Y-112725000D01*
X142357157Y-112725000D01*
X142707542Y-112690490D01*
X143157116Y-112554113D01*
X143571446Y-112332649D01*
X143934609Y-112034609D01*
X144232649Y-111671446D01*
X144454113Y-111257116D01*
X144590490Y-110807542D01*
X144636539Y-110340000D01*
X144590490Y-109872458D01*
X144454113Y-109422884D01*
X144232649Y-109008554D01*
X143934609Y-108645391D01*
X143571446Y-108347351D01*
X143157116Y-108125887D01*
X142707542Y-107989510D01*
X142357157Y-107955000D01*
X142122843Y-107955000D01*
X141772458Y-107989510D01*
X141322884Y-108125887D01*
X140908554Y-108347351D01*
X140545391Y-108645391D01*
X140247351Y-109008554D01*
X140025887Y-109422884D01*
X139889510Y-109872458D01*
X139843461Y-110340000D01*
X132581022Y-110340000D01*
X132654609Y-110279609D01*
X132952649Y-109916446D01*
X133174113Y-109502116D01*
X133310490Y-109052542D01*
X133356539Y-108585000D01*
X133310490Y-108117458D01*
X133174113Y-107667884D01*
X132952649Y-107253554D01*
X132654609Y-106890391D01*
X132291446Y-106592351D01*
X131877116Y-106370887D01*
X131427542Y-106234510D01*
X131077157Y-106200000D01*
X130842843Y-106200000D01*
X130492458Y-106234510D01*
X130042884Y-106370887D01*
X129628554Y-106592351D01*
X129265391Y-106890391D01*
X128967351Y-107253554D01*
X128745887Y-107667884D01*
X128609510Y-108117458D01*
X128563461Y-108585000D01*
X111304606Y-108585000D01*
X111812606Y-108077000D01*
X112753383Y-108077000D01*
X112709437Y-108212020D01*
X112829406Y-108458000D01*
X114173000Y-108458000D01*
X114173000Y-108438000D01*
X114427000Y-108438000D01*
X114427000Y-108458000D01*
X115770594Y-108458000D01*
X115890563Y-108212020D01*
X115819571Y-107993906D01*
X115780585Y-107919021D01*
X123279803Y-100419803D01*
X123295597Y-100400557D01*
X123307333Y-100378601D01*
X123314560Y-100354776D01*
X123317000Y-100330000D01*
X123317000Y-98504224D01*
X123925381Y-98504224D01*
X124057317Y-98799312D01*
X124398045Y-98970159D01*
X124765557Y-99071250D01*
X125145729Y-99098701D01*
X125523951Y-99051457D01*
X125885690Y-98931333D01*
X126132683Y-98799312D01*
X126264619Y-98504224D01*
X125095000Y-97334605D01*
X123925381Y-98504224D01*
X123317000Y-98504224D01*
X123317000Y-97940670D01*
X123318667Y-97945690D01*
X123450688Y-98192683D01*
X123745776Y-98324619D01*
X124915395Y-97155000D01*
X125274605Y-97155000D01*
X126444224Y-98324619D01*
X126739312Y-98192683D01*
X126910159Y-97851955D01*
X127011250Y-97484443D01*
X127038701Y-97104271D01*
X126991457Y-96726049D01*
X126871333Y-96364310D01*
X126739312Y-96117317D01*
X126444224Y-95985381D01*
X125274605Y-97155000D01*
X124915395Y-97155000D01*
X123745776Y-95985381D01*
X123450688Y-96117317D01*
X123317000Y-96383937D01*
X123317000Y-95805776D01*
X123925381Y-95805776D01*
X125095000Y-96975395D01*
X126264619Y-95805776D01*
X126132683Y-95510688D01*
X125791955Y-95339841D01*
X125424443Y-95238750D01*
X125044271Y-95211299D01*
X124666049Y-95258543D01*
X124304310Y-95378667D01*
X124057317Y-95510688D01*
X123925381Y-95805776D01*
X123317000Y-95805776D01*
X123317000Y-94107000D01*
X152527000Y-94107000D01*
X152527000Y-155448000D01*
G36*
X104013000Y-112160746D02*
G01*
X103889608Y-112010392D01*
X103671101Y-111831068D01*
X103421808Y-111697818D01*
X103151309Y-111615764D01*
X102940492Y-111595000D01*
X102799508Y-111595000D01*
X102588691Y-111615764D01*
X102318192Y-111697818D01*
X102068899Y-111831068D01*
X101850392Y-112010392D01*
X101671068Y-112228899D01*
X101537818Y-112478192D01*
X101455764Y-112748691D01*
X101428057Y-113030000D01*
X101455764Y-113311309D01*
X101537818Y-113581808D01*
X101671068Y-113831101D01*
X101850392Y-114049608D01*
X102068899Y-114228932D01*
X102318192Y-114362182D01*
X102588691Y-114444236D01*
X102799508Y-114465000D01*
X102940492Y-114465000D01*
X103151309Y-114444236D01*
X103421808Y-114362182D01*
X103671101Y-114228932D01*
X103889608Y-114049608D01*
X104013000Y-113899254D01*
X104013000Y-119777689D01*
X103984637Y-119735241D01*
X103784759Y-119535363D01*
X103549727Y-119378320D01*
X103288574Y-119270147D01*
X103011335Y-119215000D01*
X102728665Y-119215000D01*
X102451426Y-119270147D01*
X102190273Y-119378320D01*
X101955241Y-119535363D01*
X101755363Y-119735241D01*
X101598320Y-119970273D01*
X101490147Y-120231426D01*
X101435000Y-120508665D01*
X101435000Y-120791335D01*
X101490147Y-121068574D01*
X101598320Y-121329727D01*
X101755363Y-121564759D01*
X101955241Y-121764637D01*
X102190273Y-121921680D01*
X102451426Y-122029853D01*
X102728665Y-122085000D01*
X103011335Y-122085000D01*
X103288574Y-122029853D01*
X103549727Y-121921680D01*
X103784759Y-121764637D01*
X103984637Y-121564759D01*
X104013000Y-121522311D01*
X104013000Y-127508000D01*
X73660000Y-127508000D01*
X73635224Y-127510440D01*
X73611399Y-127517667D01*
X73589443Y-127529403D01*
X73570197Y-127545197D01*
X69215000Y-131900394D01*
X64897000Y-127582394D01*
X64897000Y-124318665D01*
X81155000Y-124318665D01*
X81155000Y-124601335D01*
X81210147Y-124878574D01*
X81318320Y-125139727D01*
X81475363Y-125374759D01*
X81675241Y-125574637D01*
X81910273Y-125731680D01*
X82171426Y-125839853D01*
X82448665Y-125895000D01*
X82731335Y-125895000D01*
X83008574Y-125839853D01*
X83269727Y-125731680D01*
X83504759Y-125574637D01*
X83626694Y-125452702D01*
X84276903Y-125452702D01*
X84348486Y-125696671D01*
X84603996Y-125817571D01*
X84878184Y-125886300D01*
X85160512Y-125900217D01*
X85440130Y-125858787D01*
X85706292Y-125763603D01*
X85831514Y-125696671D01*
X85903097Y-125452702D01*
X85090000Y-124639605D01*
X84276903Y-125452702D01*
X83626694Y-125452702D01*
X83704637Y-125374759D01*
X83838692Y-125174131D01*
X83853329Y-125201514D01*
X84097298Y-125273097D01*
X84910395Y-124460000D01*
X85269605Y-124460000D01*
X86082702Y-125273097D01*
X86326671Y-125201514D01*
X86447571Y-124946004D01*
X86516300Y-124671816D01*
X86530217Y-124389488D01*
X86488787Y-124109870D01*
X86393603Y-123843708D01*
X86326671Y-123718486D01*
X86082702Y-123646903D01*
X85269605Y-124460000D01*
X84910395Y-124460000D01*
X84097298Y-123646903D01*
X83853329Y-123718486D01*
X83839676Y-123747341D01*
X83704637Y-123545241D01*
X83626694Y-123467298D01*
X84276903Y-123467298D01*
X85090000Y-124280395D01*
X85903097Y-123467298D01*
X85831514Y-123223329D01*
X85576004Y-123102429D01*
X85301816Y-123033700D01*
X85019488Y-123019783D01*
X84739870Y-123061213D01*
X84473708Y-123156397D01*
X84348486Y-123223329D01*
X84276903Y-123467298D01*
X83626694Y-123467298D01*
X83504759Y-123345363D01*
X83269727Y-123188320D01*
X83008574Y-123080147D01*
X82731335Y-123025000D01*
X82448665Y-123025000D01*
X82171426Y-123080147D01*
X81910273Y-123188320D01*
X81675241Y-123345363D01*
X81475363Y-123545241D01*
X81318320Y-123780273D01*
X81210147Y-124041426D01*
X81155000Y-124318665D01*
X64897000Y-124318665D01*
X64897000Y-122834193D01*
X88385000Y-122834193D01*
X88385000Y-123185807D01*
X88453596Y-123530665D01*
X88588153Y-123855515D01*
X88783500Y-124147871D01*
X89032129Y-124396500D01*
X89324485Y-124591847D01*
X89649335Y-124726404D01*
X89994193Y-124795000D01*
X90345807Y-124795000D01*
X90690665Y-124726404D01*
X91015515Y-124591847D01*
X91307871Y-124396500D01*
X91385706Y-124318665D01*
X93180000Y-124318665D01*
X93180000Y-124601335D01*
X93235147Y-124878574D01*
X93343320Y-125139727D01*
X93500363Y-125374759D01*
X93700241Y-125574637D01*
X93935273Y-125731680D01*
X94196426Y-125839853D01*
X94473665Y-125895000D01*
X94756335Y-125895000D01*
X95033574Y-125839853D01*
X95294727Y-125731680D01*
X95529759Y-125574637D01*
X95729637Y-125374759D01*
X95886680Y-125139727D01*
X95994853Y-124878574D01*
X96050000Y-124601335D01*
X96050000Y-124318665D01*
X95994853Y-124041426D01*
X95886680Y-123780273D01*
X95729637Y-123545241D01*
X95529759Y-123345363D01*
X95329131Y-123211308D01*
X95356514Y-123196671D01*
X95428097Y-122952702D01*
X94615000Y-122139605D01*
X93801903Y-122952702D01*
X93873486Y-123196671D01*
X93902341Y-123210324D01*
X93700241Y-123345363D01*
X93500363Y-123545241D01*
X93343320Y-123780273D01*
X93235147Y-124041426D01*
X93180000Y-124318665D01*
X91385706Y-124318665D01*
X91556500Y-124147871D01*
X91751847Y-123855515D01*
X91886404Y-123530665D01*
X91955000Y-123185807D01*
X91955000Y-122834193D01*
X91886404Y-122489335D01*
X91751847Y-122164485D01*
X91662329Y-122030512D01*
X93174783Y-122030512D01*
X93216213Y-122310130D01*
X93311397Y-122576292D01*
X93378329Y-122701514D01*
X93622298Y-122773097D01*
X94435395Y-121960000D01*
X94794605Y-121960000D01*
X95607702Y-122773097D01*
X95851671Y-122701514D01*
X95972571Y-122446004D01*
X96041300Y-122171816D01*
X96055217Y-121889488D01*
X96013787Y-121609870D01*
X95918603Y-121343708D01*
X95851671Y-121218486D01*
X95607702Y-121146903D01*
X94794605Y-121960000D01*
X94435395Y-121960000D01*
X93622298Y-121146903D01*
X93378329Y-121218486D01*
X93257429Y-121473996D01*
X93188700Y-121748184D01*
X93174783Y-122030512D01*
X91662329Y-122030512D01*
X91556500Y-121872129D01*
X91307871Y-121623500D01*
X91015515Y-121428153D01*
X90690665Y-121293596D01*
X90345807Y-121225000D01*
X89994193Y-121225000D01*
X89649335Y-121293596D01*
X89324485Y-121428153D01*
X89032129Y-121623500D01*
X88783500Y-121872129D01*
X88588153Y-122164485D01*
X88453596Y-122489335D01*
X88385000Y-122834193D01*
X64897000Y-122834193D01*
X64897000Y-120967298D01*
X93801903Y-120967298D01*
X94615000Y-121780395D01*
X95428097Y-120967298D01*
X95356514Y-120723329D01*
X95201541Y-120650000D01*
X98253057Y-120650000D01*
X98280764Y-120931309D01*
X98362818Y-121201808D01*
X98496068Y-121451101D01*
X98675392Y-121669608D01*
X98893899Y-121848932D01*
X99143192Y-121982182D01*
X99413691Y-122064236D01*
X99624508Y-122085000D01*
X99765492Y-122085000D01*
X99976309Y-122064236D01*
X100246808Y-121982182D01*
X100496101Y-121848932D01*
X100714608Y-121669608D01*
X100893932Y-121451101D01*
X101027182Y-121201808D01*
X101109236Y-120931309D01*
X101136943Y-120650000D01*
X101109236Y-120368691D01*
X101027182Y-120098192D01*
X100893932Y-119848899D01*
X100714608Y-119630392D01*
X100496101Y-119451068D01*
X100246808Y-119317818D01*
X99976309Y-119235764D01*
X99765492Y-119215000D01*
X99624508Y-119215000D01*
X99413691Y-119235764D01*
X99143192Y-119317818D01*
X98893899Y-119451068D01*
X98675392Y-119630392D01*
X98496068Y-119848899D01*
X98362818Y-120098192D01*
X98280764Y-120368691D01*
X98253057Y-120650000D01*
X95201541Y-120650000D01*
X95101004Y-120602429D01*
X94826816Y-120533700D01*
X94544488Y-120519783D01*
X94264870Y-120561213D01*
X93998708Y-120656397D01*
X93873486Y-120723329D01*
X93801903Y-120967298D01*
X64897000Y-120967298D01*
X64897000Y-117934193D01*
X88385000Y-117934193D01*
X88385000Y-118285807D01*
X88453596Y-118630665D01*
X88588153Y-118955515D01*
X88783500Y-119247871D01*
X89032129Y-119496500D01*
X89324485Y-119691847D01*
X89649335Y-119826404D01*
X89994193Y-119895000D01*
X90345807Y-119895000D01*
X90690665Y-119826404D01*
X91001379Y-119697702D01*
X93801903Y-119697702D01*
X93873486Y-119941671D01*
X94128996Y-120062571D01*
X94403184Y-120131300D01*
X94685512Y-120145217D01*
X94965130Y-120103787D01*
X95231292Y-120008603D01*
X95356514Y-119941671D01*
X95428097Y-119697702D01*
X94615000Y-118884605D01*
X93801903Y-119697702D01*
X91001379Y-119697702D01*
X91015515Y-119691847D01*
X91307871Y-119496500D01*
X91556500Y-119247871D01*
X91751847Y-118955515D01*
X91826406Y-118775512D01*
X93174783Y-118775512D01*
X93216213Y-119055130D01*
X93311397Y-119321292D01*
X93378329Y-119446514D01*
X93622298Y-119518097D01*
X94435395Y-118705000D01*
X94794605Y-118705000D01*
X95607702Y-119518097D01*
X95851671Y-119446514D01*
X95972571Y-119191004D01*
X96041300Y-118916816D01*
X96055217Y-118634488D01*
X96013787Y-118354870D01*
X95918603Y-118088708D01*
X95851671Y-117963486D01*
X95607702Y-117891903D01*
X94794605Y-118705000D01*
X94435395Y-118705000D01*
X93622298Y-117891903D01*
X93378329Y-117963486D01*
X93257429Y-118218996D01*
X93188700Y-118493184D01*
X93174783Y-118775512D01*
X91826406Y-118775512D01*
X91886404Y-118630665D01*
X91955000Y-118285807D01*
X91955000Y-117934193D01*
X91886404Y-117589335D01*
X91751847Y-117264485D01*
X91556500Y-116972129D01*
X91307871Y-116723500D01*
X91015515Y-116528153D01*
X90690665Y-116393596D01*
X90345807Y-116325000D01*
X89994193Y-116325000D01*
X89649335Y-116393596D01*
X89324485Y-116528153D01*
X89032129Y-116723500D01*
X88783500Y-116972129D01*
X88588153Y-117264485D01*
X88453596Y-117589335D01*
X88385000Y-117934193D01*
X64897000Y-117934193D01*
X64897000Y-114283438D01*
X68611505Y-114283438D01*
X68650605Y-114523549D01*
X68735798Y-114751418D01*
X68776652Y-114827852D01*
X69000234Y-114875158D01*
X68883128Y-114992264D01*
X68941006Y-115050142D01*
X68895506Y-115074463D01*
X68798815Y-115153815D01*
X68719463Y-115250506D01*
X68660498Y-115360820D01*
X68624188Y-115480518D01*
X68611928Y-115605000D01*
X68611928Y-116805000D01*
X68624188Y-116929482D01*
X68660498Y-117049180D01*
X68719463Y-117159494D01*
X68798815Y-117256185D01*
X68895506Y-117335537D01*
X69005820Y-117394502D01*
X69125518Y-117430812D01*
X69250000Y-117443072D01*
X70450000Y-117443072D01*
X70574482Y-117430812D01*
X70694180Y-117394502D01*
X70804494Y-117335537D01*
X70901185Y-117256185D01*
X70980537Y-117159494D01*
X71039502Y-117049180D01*
X71075812Y-116929482D01*
X71088072Y-116805000D01*
X71088072Y-116063665D01*
X93180000Y-116063665D01*
X93180000Y-116346335D01*
X93235147Y-116623574D01*
X93343320Y-116884727D01*
X93500363Y-117119759D01*
X93700241Y-117319637D01*
X93900869Y-117453692D01*
X93873486Y-117468329D01*
X93801903Y-117712298D01*
X94615000Y-118525395D01*
X95428097Y-117712298D01*
X95356514Y-117468329D01*
X95327659Y-117454676D01*
X95529759Y-117319637D01*
X95729637Y-117119759D01*
X95886680Y-116884727D01*
X95994853Y-116623574D01*
X96050000Y-116346335D01*
X96050000Y-116063665D01*
X95994853Y-115786426D01*
X95886680Y-115525273D01*
X95729637Y-115290241D01*
X95529759Y-115090363D01*
X95294727Y-114933320D01*
X95033574Y-114825147D01*
X94756335Y-114770000D01*
X94473665Y-114770000D01*
X94196426Y-114825147D01*
X93935273Y-114933320D01*
X93700241Y-115090363D01*
X93500363Y-115290241D01*
X93343320Y-115525273D01*
X93235147Y-115786426D01*
X93180000Y-116063665D01*
X71088072Y-116063665D01*
X71088072Y-115605000D01*
X71075812Y-115480518D01*
X71039502Y-115360820D01*
X70980537Y-115250506D01*
X70901185Y-115153815D01*
X70804494Y-115074463D01*
X70758994Y-115050142D01*
X70816872Y-114992264D01*
X70699766Y-114875158D01*
X70923348Y-114827852D01*
X71024237Y-114606484D01*
X71080000Y-114369687D01*
X71088495Y-114126562D01*
X71049395Y-113886451D01*
X70964202Y-113658582D01*
X70923348Y-113582148D01*
X70699764Y-113534841D01*
X70029605Y-114205000D01*
X70043748Y-114219143D01*
X69864143Y-114398748D01*
X69850000Y-114384605D01*
X69835858Y-114398748D01*
X69656253Y-114219143D01*
X69670395Y-114205000D01*
X69000236Y-113534841D01*
X68776652Y-113582148D01*
X68675763Y-113803516D01*
X68620000Y-114040313D01*
X68611505Y-114283438D01*
X64897000Y-114283438D01*
X64897000Y-113355236D01*
X69179841Y-113355236D01*
X69850000Y-114025395D01*
X70520159Y-113355236D01*
X70472852Y-113131652D01*
X70251484Y-113030763D01*
X70014687Y-112975000D01*
X69771562Y-112966505D01*
X69531451Y-113005605D01*
X69303582Y-113090798D01*
X69227148Y-113131652D01*
X69179841Y-113355236D01*
X64897000Y-113355236D01*
X64897000Y-112888665D01*
X98260000Y-112888665D01*
X98260000Y-113171335D01*
X98315147Y-113448574D01*
X98423320Y-113709727D01*
X98580363Y-113944759D01*
X98780241Y-114144637D01*
X99015273Y-114301680D01*
X99276426Y-114409853D01*
X99553665Y-114465000D01*
X99836335Y-114465000D01*
X100113574Y-114409853D01*
X100374727Y-114301680D01*
X100609759Y-114144637D01*
X100809637Y-113944759D01*
X100966680Y-113709727D01*
X101074853Y-113448574D01*
X101130000Y-113171335D01*
X101130000Y-112888665D01*
X101074853Y-112611426D01*
X100966680Y-112350273D01*
X100809637Y-112115241D01*
X100609759Y-111915363D01*
X100374727Y-111758320D01*
X100113574Y-111650147D01*
X99836335Y-111595000D01*
X99553665Y-111595000D01*
X99276426Y-111650147D01*
X99015273Y-111758320D01*
X98780241Y-111915363D01*
X98580363Y-112115241D01*
X98423320Y-112350273D01*
X98315147Y-112611426D01*
X98260000Y-112888665D01*
X64897000Y-112888665D01*
X64897000Y-108320000D01*
X87361928Y-108320000D01*
X87361928Y-110120000D01*
X87374188Y-110244482D01*
X87410498Y-110364180D01*
X87469463Y-110474494D01*
X87548815Y-110571185D01*
X87645506Y-110650537D01*
X87755820Y-110709502D01*
X87875518Y-110745812D01*
X88000000Y-110758072D01*
X89800000Y-110758072D01*
X89924482Y-110745812D01*
X90044180Y-110709502D01*
X90154494Y-110650537D01*
X90251185Y-110571185D01*
X90330537Y-110474494D01*
X90389502Y-110364180D01*
X90395056Y-110345873D01*
X90461495Y-110412312D01*
X90712905Y-110580299D01*
X90992257Y-110696011D01*
X91288816Y-110755000D01*
X91591184Y-110755000D01*
X91887743Y-110696011D01*
X92167095Y-110580299D01*
X92418505Y-110412312D01*
X92632312Y-110198505D01*
X92800299Y-109947095D01*
X92916011Y-109667743D01*
X92975000Y-109371184D01*
X92975000Y-109068816D01*
X92916011Y-108772257D01*
X92800299Y-108492905D01*
X92632312Y-108241495D01*
X92418505Y-108027688D01*
X92167095Y-107859701D01*
X91887743Y-107743989D01*
X91591184Y-107685000D01*
X91288816Y-107685000D01*
X90992257Y-107743989D01*
X90712905Y-107859701D01*
X90461495Y-108027688D01*
X90395056Y-108094127D01*
X90389502Y-108075820D01*
X90330537Y-107965506D01*
X90251185Y-107868815D01*
X90154494Y-107789463D01*
X90044180Y-107730498D01*
X89924482Y-107694188D01*
X89800000Y-107681928D01*
X88000000Y-107681928D01*
X87875518Y-107694188D01*
X87755820Y-107730498D01*
X87645506Y-107789463D01*
X87548815Y-107868815D01*
X87469463Y-107965506D01*
X87410498Y-108075820D01*
X87374188Y-108195518D01*
X87361928Y-108320000D01*
X64897000Y-108320000D01*
X64897000Y-104113531D01*
X72804389Y-104113531D01*
X72846401Y-104403019D01*
X72944081Y-104678747D01*
X72984759Y-104754850D01*
X72914463Y-104840506D01*
X72855498Y-104950820D01*
X72819188Y-105070518D01*
X72806928Y-105195000D01*
X72806928Y-106895000D01*
X72819188Y-107019482D01*
X72855498Y-107139180D01*
X72914463Y-107249494D01*
X72993815Y-107346185D01*
X73090506Y-107425537D01*
X73200820Y-107484502D01*
X73320518Y-107520812D01*
X73445000Y-107533072D01*
X75145000Y-107533072D01*
X75269482Y-107520812D01*
X75389180Y-107484502D01*
X75499494Y-107425537D01*
X75596185Y-107346185D01*
X75675537Y-107249494D01*
X75734502Y-107139180D01*
X75747203Y-107097310D01*
X75848368Y-107198475D01*
X76091589Y-107360990D01*
X76361842Y-107472932D01*
X76648740Y-107530000D01*
X76941260Y-107530000D01*
X77228158Y-107472932D01*
X77498411Y-107360990D01*
X77741632Y-107198475D01*
X77948475Y-106991632D01*
X78110990Y-106748411D01*
X78222932Y-106478158D01*
X78280000Y-106191260D01*
X78280000Y-105898740D01*
X78222932Y-105611842D01*
X78110990Y-105341589D01*
X77948475Y-105098368D01*
X77895107Y-105045000D01*
X77948475Y-104991632D01*
X78110990Y-104748411D01*
X78222932Y-104478158D01*
X78280000Y-104191260D01*
X78280000Y-103898740D01*
X78222932Y-103611842D01*
X78110990Y-103341589D01*
X77948475Y-103098368D01*
X77854716Y-103004609D01*
X80074997Y-103004609D01*
X80261073Y-103345766D01*
X80678409Y-103561513D01*
X81129815Y-103691696D01*
X81597946Y-103731313D01*
X82064811Y-103678842D01*
X82512468Y-103536297D01*
X82868927Y-103345766D01*
X83055003Y-103004609D01*
X81565000Y-101514605D01*
X80074997Y-103004609D01*
X77854716Y-103004609D01*
X77741632Y-102891525D01*
X77498411Y-102729010D01*
X77228158Y-102617068D01*
X76941260Y-102560000D01*
X76648740Y-102560000D01*
X76361842Y-102617068D01*
X76091589Y-102729010D01*
X75848368Y-102891525D01*
X75641525Y-103098368D01*
X75532584Y-103261410D01*
X75323397Y-103196208D01*
X74474605Y-104045000D01*
X74488748Y-104059143D01*
X74309143Y-104238748D01*
X74295000Y-104224605D01*
X74280858Y-104238748D01*
X74101253Y-104059143D01*
X74115395Y-104045000D01*
X73266603Y-103196208D01*
X73017528Y-103273843D01*
X72891629Y-103537883D01*
X72819661Y-103821411D01*
X72804389Y-104113531D01*
X64897000Y-104113531D01*
X64897000Y-103004609D01*
X68034997Y-103004609D01*
X68221073Y-103345766D01*
X68638409Y-103561513D01*
X69089815Y-103691696D01*
X69557946Y-103731313D01*
X70024811Y-103678842D01*
X70472468Y-103536297D01*
X70828927Y-103345766D01*
X71008461Y-103016603D01*
X73446208Y-103016603D01*
X74295000Y-103865395D01*
X75143792Y-103016603D01*
X75066157Y-102767528D01*
X74802117Y-102641629D01*
X74518589Y-102569661D01*
X74226469Y-102554389D01*
X73936981Y-102596401D01*
X73661253Y-102694081D01*
X73523843Y-102767528D01*
X73446208Y-103016603D01*
X71008461Y-103016603D01*
X71015003Y-103004609D01*
X69525000Y-101514605D01*
X68034997Y-103004609D01*
X64897000Y-103004609D01*
X64897000Y-101367946D01*
X67128687Y-101367946D01*
X67181158Y-101834811D01*
X67323703Y-102282468D01*
X67514234Y-102638927D01*
X67855391Y-102825003D01*
X69345395Y-101335000D01*
X69704605Y-101335000D01*
X71194609Y-102825003D01*
X71535766Y-102638927D01*
X71751513Y-102221591D01*
X71881696Y-101770185D01*
X71915736Y-101367946D01*
X79168687Y-101367946D01*
X79221158Y-101834811D01*
X79363703Y-102282468D01*
X79554234Y-102638927D01*
X79895391Y-102825003D01*
X81385395Y-101335000D01*
X81744605Y-101335000D01*
X83234609Y-102825003D01*
X83575766Y-102638927D01*
X83791513Y-102221591D01*
X83921696Y-101770185D01*
X83961313Y-101302054D01*
X83908842Y-100835189D01*
X83766297Y-100387532D01*
X83575766Y-100031073D01*
X83234609Y-99844997D01*
X81744605Y-101335000D01*
X81385395Y-101335000D01*
X79895391Y-99844997D01*
X79554234Y-100031073D01*
X79338487Y-100448409D01*
X79208304Y-100899815D01*
X79168687Y-101367946D01*
X71915736Y-101367946D01*
X71921313Y-101302054D01*
X71868842Y-100835189D01*
X71726297Y-100387532D01*
X71535766Y-100031073D01*
X71194609Y-99844997D01*
X69704605Y-101335000D01*
X69345395Y-101335000D01*
X67855391Y-99844997D01*
X67514234Y-100031073D01*
X67298487Y-100448409D01*
X67168304Y-100899815D01*
X67128687Y-101367946D01*
X64897000Y-101367946D01*
X64897000Y-99665391D01*
X68034997Y-99665391D01*
X69525000Y-101155395D01*
X71015003Y-99665391D01*
X80074997Y-99665391D01*
X81565000Y-101155395D01*
X83055003Y-99665391D01*
X82868927Y-99324234D01*
X82451591Y-99108487D01*
X82000185Y-98978304D01*
X81532054Y-98938687D01*
X81065189Y-98991158D01*
X80617532Y-99133703D01*
X80261073Y-99324234D01*
X80074997Y-99665391D01*
X71015003Y-99665391D01*
X70828927Y-99324234D01*
X70411591Y-99108487D01*
X69960185Y-98978304D01*
X69492054Y-98938687D01*
X69025189Y-98991158D01*
X68577532Y-99133703D01*
X68221073Y-99324234D01*
X68034997Y-99665391D01*
X64897000Y-99665391D01*
X64897000Y-98552000D01*
X104013000Y-98552000D01*
X104013000Y-112160746D01*
X104013000Y-112160746D01*
G37*
X104013000Y-112160746D02*
X103889608Y-112010392D01*
X103671101Y-111831068D01*
X103421808Y-111697818D01*
X103151309Y-111615764D01*
X102940492Y-111595000D01*
X102799508Y-111595000D01*
X102588691Y-111615764D01*
X102318192Y-111697818D01*
X102068899Y-111831068D01*
X101850392Y-112010392D01*
X101671068Y-112228899D01*
X101537818Y-112478192D01*
X101455764Y-112748691D01*
X101428057Y-113030000D01*
X101455764Y-113311309D01*
X101537818Y-113581808D01*
X101671068Y-113831101D01*
X101850392Y-114049608D01*
X102068899Y-114228932D01*
X102318192Y-114362182D01*
X102588691Y-114444236D01*
X102799508Y-114465000D01*
X102940492Y-114465000D01*
X103151309Y-114444236D01*
X103421808Y-114362182D01*
X103671101Y-114228932D01*
X103889608Y-114049608D01*
X104013000Y-113899254D01*
X104013000Y-119777689D01*
X103984637Y-119735241D01*
X103784759Y-119535363D01*
X103549727Y-119378320D01*
X103288574Y-119270147D01*
X103011335Y-119215000D01*
X102728665Y-119215000D01*
X102451426Y-119270147D01*
X102190273Y-119378320D01*
X101955241Y-119535363D01*
X101755363Y-119735241D01*
X101598320Y-119970273D01*
X101490147Y-120231426D01*
X101435000Y-120508665D01*
X101435000Y-120791335D01*
X101490147Y-121068574D01*
X101598320Y-121329727D01*
X101755363Y-121564759D01*
X101955241Y-121764637D01*
X102190273Y-121921680D01*
X102451426Y-122029853D01*
X102728665Y-122085000D01*
X103011335Y-122085000D01*
X103288574Y-122029853D01*
X103549727Y-121921680D01*
X103784759Y-121764637D01*
X103984637Y-121564759D01*
X104013000Y-121522311D01*
X104013000Y-127508000D01*
X73660000Y-127508000D01*
X73635224Y-127510440D01*
X73611399Y-127517667D01*
X73589443Y-127529403D01*
X73570197Y-127545197D01*
X69215000Y-131900394D01*
X64897000Y-127582394D01*
X64897000Y-124318665D01*
X81155000Y-124318665D01*
X81155000Y-124601335D01*
X81210147Y-124878574D01*
X81318320Y-125139727D01*
X81475363Y-125374759D01*
X81675241Y-125574637D01*
X81910273Y-125731680D01*
X82171426Y-125839853D01*
X82448665Y-125895000D01*
X82731335Y-125895000D01*
X83008574Y-125839853D01*
X83269727Y-125731680D01*
X83504759Y-125574637D01*
X83626694Y-125452702D01*
X84276903Y-125452702D01*
X84348486Y-125696671D01*
X84603996Y-125817571D01*
X84878184Y-125886300D01*
X85160512Y-125900217D01*
X85440130Y-125858787D01*
X85706292Y-125763603D01*
X85831514Y-125696671D01*
X85903097Y-125452702D01*
X85090000Y-124639605D01*
X84276903Y-125452702D01*
X83626694Y-125452702D01*
X83704637Y-125374759D01*
X83838692Y-125174131D01*
X83853329Y-125201514D01*
X84097298Y-125273097D01*
X84910395Y-124460000D01*
X85269605Y-124460000D01*
X86082702Y-125273097D01*
X86326671Y-125201514D01*
X86447571Y-124946004D01*
X86516300Y-124671816D01*
X86530217Y-124389488D01*
X86488787Y-124109870D01*
X86393603Y-123843708D01*
X86326671Y-123718486D01*
X86082702Y-123646903D01*
X85269605Y-124460000D01*
X84910395Y-124460000D01*
X84097298Y-123646903D01*
X83853329Y-123718486D01*
X83839676Y-123747341D01*
X83704637Y-123545241D01*
X83626694Y-123467298D01*
X84276903Y-123467298D01*
X85090000Y-124280395D01*
X85903097Y-123467298D01*
X85831514Y-123223329D01*
X85576004Y-123102429D01*
X85301816Y-123033700D01*
X85019488Y-123019783D01*
X84739870Y-123061213D01*
X84473708Y-123156397D01*
X84348486Y-123223329D01*
X84276903Y-123467298D01*
X83626694Y-123467298D01*
X83504759Y-123345363D01*
X83269727Y-123188320D01*
X83008574Y-123080147D01*
X82731335Y-123025000D01*
X82448665Y-123025000D01*
X82171426Y-123080147D01*
X81910273Y-123188320D01*
X81675241Y-123345363D01*
X81475363Y-123545241D01*
X81318320Y-123780273D01*
X81210147Y-124041426D01*
X81155000Y-124318665D01*
X64897000Y-124318665D01*
X64897000Y-122834193D01*
X88385000Y-122834193D01*
X88385000Y-123185807D01*
X88453596Y-123530665D01*
X88588153Y-123855515D01*
X88783500Y-124147871D01*
X89032129Y-124396500D01*
X89324485Y-124591847D01*
X89649335Y-124726404D01*
X89994193Y-124795000D01*
X90345807Y-124795000D01*
X90690665Y-124726404D01*
X91015515Y-124591847D01*
X91307871Y-124396500D01*
X91385706Y-124318665D01*
X93180000Y-124318665D01*
X93180000Y-124601335D01*
X93235147Y-124878574D01*
X93343320Y-125139727D01*
X93500363Y-125374759D01*
X93700241Y-125574637D01*
X93935273Y-125731680D01*
X94196426Y-125839853D01*
X94473665Y-125895000D01*
X94756335Y-125895000D01*
X95033574Y-125839853D01*
X95294727Y-125731680D01*
X95529759Y-125574637D01*
X95729637Y-125374759D01*
X95886680Y-125139727D01*
X95994853Y-124878574D01*
X96050000Y-124601335D01*
X96050000Y-124318665D01*
X95994853Y-124041426D01*
X95886680Y-123780273D01*
X95729637Y-123545241D01*
X95529759Y-123345363D01*
X95329131Y-123211308D01*
X95356514Y-123196671D01*
X95428097Y-122952702D01*
X94615000Y-122139605D01*
X93801903Y-122952702D01*
X93873486Y-123196671D01*
X93902341Y-123210324D01*
X93700241Y-123345363D01*
X93500363Y-123545241D01*
X93343320Y-123780273D01*
X93235147Y-124041426D01*
X93180000Y-124318665D01*
X91385706Y-124318665D01*
X91556500Y-124147871D01*
X91751847Y-123855515D01*
X91886404Y-123530665D01*
X91955000Y-123185807D01*
X91955000Y-122834193D01*
X91886404Y-122489335D01*
X91751847Y-122164485D01*
X91662329Y-122030512D01*
X93174783Y-122030512D01*
X93216213Y-122310130D01*
X93311397Y-122576292D01*
X93378329Y-122701514D01*
X93622298Y-122773097D01*
X94435395Y-121960000D01*
X94794605Y-121960000D01*
X95607702Y-122773097D01*
X95851671Y-122701514D01*
X95972571Y-122446004D01*
X96041300Y-122171816D01*
X96055217Y-121889488D01*
X96013787Y-121609870D01*
X95918603Y-121343708D01*
X95851671Y-121218486D01*
X95607702Y-121146903D01*
X94794605Y-121960000D01*
X94435395Y-121960000D01*
X93622298Y-121146903D01*
X93378329Y-121218486D01*
X93257429Y-121473996D01*
X93188700Y-121748184D01*
X93174783Y-122030512D01*
X91662329Y-122030512D01*
X91556500Y-121872129D01*
X91307871Y-121623500D01*
X91015515Y-121428153D01*
X90690665Y-121293596D01*
X90345807Y-121225000D01*
X89994193Y-121225000D01*
X89649335Y-121293596D01*
X89324485Y-121428153D01*
X89032129Y-121623500D01*
X88783500Y-121872129D01*
X88588153Y-122164485D01*
X88453596Y-122489335D01*
X88385000Y-122834193D01*
X64897000Y-122834193D01*
X64897000Y-120967298D01*
X93801903Y-120967298D01*
X94615000Y-121780395D01*
X95428097Y-120967298D01*
X95356514Y-120723329D01*
X95201541Y-120650000D01*
X98253057Y-120650000D01*
X98280764Y-120931309D01*
X98362818Y-121201808D01*
X98496068Y-121451101D01*
X98675392Y-121669608D01*
X98893899Y-121848932D01*
X99143192Y-121982182D01*
X99413691Y-122064236D01*
X99624508Y-122085000D01*
X99765492Y-122085000D01*
X99976309Y-122064236D01*
X100246808Y-121982182D01*
X100496101Y-121848932D01*
X100714608Y-121669608D01*
X100893932Y-121451101D01*
X101027182Y-121201808D01*
X101109236Y-120931309D01*
X101136943Y-120650000D01*
X101109236Y-120368691D01*
X101027182Y-120098192D01*
X100893932Y-119848899D01*
X100714608Y-119630392D01*
X100496101Y-119451068D01*
X100246808Y-119317818D01*
X99976309Y-119235764D01*
X99765492Y-119215000D01*
X99624508Y-119215000D01*
X99413691Y-119235764D01*
X99143192Y-119317818D01*
X98893899Y-119451068D01*
X98675392Y-119630392D01*
X98496068Y-119848899D01*
X98362818Y-120098192D01*
X98280764Y-120368691D01*
X98253057Y-120650000D01*
X95201541Y-120650000D01*
X95101004Y-120602429D01*
X94826816Y-120533700D01*
X94544488Y-120519783D01*
X94264870Y-120561213D01*
X93998708Y-120656397D01*
X93873486Y-120723329D01*
X93801903Y-120967298D01*
X64897000Y-120967298D01*
X64897000Y-117934193D01*
X88385000Y-117934193D01*
X88385000Y-118285807D01*
X88453596Y-118630665D01*
X88588153Y-118955515D01*
X88783500Y-119247871D01*
X89032129Y-119496500D01*
X89324485Y-119691847D01*
X89649335Y-119826404D01*
X89994193Y-119895000D01*
X90345807Y-119895000D01*
X90690665Y-119826404D01*
X91001379Y-119697702D01*
X93801903Y-119697702D01*
X93873486Y-119941671D01*
X94128996Y-120062571D01*
X94403184Y-120131300D01*
X94685512Y-120145217D01*
X94965130Y-120103787D01*
X95231292Y-120008603D01*
X95356514Y-119941671D01*
X95428097Y-119697702D01*
X94615000Y-118884605D01*
X93801903Y-119697702D01*
X91001379Y-119697702D01*
X91015515Y-119691847D01*
X91307871Y-119496500D01*
X91556500Y-119247871D01*
X91751847Y-118955515D01*
X91826406Y-118775512D01*
X93174783Y-118775512D01*
X93216213Y-119055130D01*
X93311397Y-119321292D01*
X93378329Y-119446514D01*
X93622298Y-119518097D01*
X94435395Y-118705000D01*
X94794605Y-118705000D01*
X95607702Y-119518097D01*
X95851671Y-119446514D01*
X95972571Y-119191004D01*
X96041300Y-118916816D01*
X96055217Y-118634488D01*
X96013787Y-118354870D01*
X95918603Y-118088708D01*
X95851671Y-117963486D01*
X95607702Y-117891903D01*
X94794605Y-118705000D01*
X94435395Y-118705000D01*
X93622298Y-117891903D01*
X93378329Y-117963486D01*
X93257429Y-118218996D01*
X93188700Y-118493184D01*
X93174783Y-118775512D01*
X91826406Y-118775512D01*
X91886404Y-118630665D01*
X91955000Y-118285807D01*
X91955000Y-117934193D01*
X91886404Y-117589335D01*
X91751847Y-117264485D01*
X91556500Y-116972129D01*
X91307871Y-116723500D01*
X91015515Y-116528153D01*
X90690665Y-116393596D01*
X90345807Y-116325000D01*
X89994193Y-116325000D01*
X89649335Y-116393596D01*
X89324485Y-116528153D01*
X89032129Y-116723500D01*
X88783500Y-116972129D01*
X88588153Y-117264485D01*
X88453596Y-117589335D01*
X88385000Y-117934193D01*
X64897000Y-117934193D01*
X64897000Y-114283438D01*
X68611505Y-114283438D01*
X68650605Y-114523549D01*
X68735798Y-114751418D01*
X68776652Y-114827852D01*
X69000234Y-114875158D01*
X68883128Y-114992264D01*
X68941006Y-115050142D01*
X68895506Y-115074463D01*
X68798815Y-115153815D01*
X68719463Y-115250506D01*
X68660498Y-115360820D01*
X68624188Y-115480518D01*
X68611928Y-115605000D01*
X68611928Y-116805000D01*
X68624188Y-116929482D01*
X68660498Y-117049180D01*
X68719463Y-117159494D01*
X68798815Y-117256185D01*
X68895506Y-117335537D01*
X69005820Y-117394502D01*
X69125518Y-117430812D01*
X69250000Y-117443072D01*
X70450000Y-117443072D01*
X70574482Y-117430812D01*
X70694180Y-117394502D01*
X70804494Y-117335537D01*
X70901185Y-117256185D01*
X70980537Y-117159494D01*
X71039502Y-117049180D01*
X71075812Y-116929482D01*
X71088072Y-116805000D01*
X71088072Y-116063665D01*
X93180000Y-116063665D01*
X93180000Y-116346335D01*
X93235147Y-116623574D01*
X93343320Y-116884727D01*
X93500363Y-117119759D01*
X93700241Y-117319637D01*
X93900869Y-117453692D01*
X93873486Y-117468329D01*
X93801903Y-117712298D01*
X94615000Y-118525395D01*
X95428097Y-117712298D01*
X95356514Y-117468329D01*
X95327659Y-117454676D01*
X95529759Y-117319637D01*
X95729637Y-117119759D01*
X95886680Y-116884727D01*
X95994853Y-116623574D01*
X96050000Y-116346335D01*
X96050000Y-116063665D01*
X95994853Y-115786426D01*
X95886680Y-115525273D01*
X95729637Y-115290241D01*
X95529759Y-115090363D01*
X95294727Y-114933320D01*
X95033574Y-114825147D01*
X94756335Y-114770000D01*
X94473665Y-114770000D01*
X94196426Y-114825147D01*
X93935273Y-114933320D01*
X93700241Y-115090363D01*
X93500363Y-115290241D01*
X93343320Y-115525273D01*
X93235147Y-115786426D01*
X93180000Y-116063665D01*
X71088072Y-116063665D01*
X71088072Y-115605000D01*
X71075812Y-115480518D01*
X71039502Y-115360820D01*
X70980537Y-115250506D01*
X70901185Y-115153815D01*
X70804494Y-115074463D01*
X70758994Y-115050142D01*
X70816872Y-114992264D01*
X70699766Y-114875158D01*
X70923348Y-114827852D01*
X71024237Y-114606484D01*
X71080000Y-114369687D01*
X71088495Y-114126562D01*
X71049395Y-113886451D01*
X70964202Y-113658582D01*
X70923348Y-113582148D01*
X70699764Y-113534841D01*
X70029605Y-114205000D01*
X70043748Y-114219143D01*
X69864143Y-114398748D01*
X69850000Y-114384605D01*
X69835858Y-114398748D01*
X69656253Y-114219143D01*
X69670395Y-114205000D01*
X69000236Y-113534841D01*
X68776652Y-113582148D01*
X68675763Y-113803516D01*
X68620000Y-114040313D01*
X68611505Y-114283438D01*
X64897000Y-114283438D01*
X64897000Y-113355236D01*
X69179841Y-113355236D01*
X69850000Y-114025395D01*
X70520159Y-113355236D01*
X70472852Y-113131652D01*
X70251484Y-113030763D01*
X70014687Y-112975000D01*
X69771562Y-112966505D01*
X69531451Y-113005605D01*
X69303582Y-113090798D01*
X69227148Y-113131652D01*
X69179841Y-113355236D01*
X64897000Y-113355236D01*
X64897000Y-112888665D01*
X98260000Y-112888665D01*
X98260000Y-113171335D01*
X98315147Y-113448574D01*
X98423320Y-113709727D01*
X98580363Y-113944759D01*
X98780241Y-114144637D01*
X99015273Y-114301680D01*
X99276426Y-114409853D01*
X99553665Y-114465000D01*
X99836335Y-114465000D01*
X100113574Y-114409853D01*
X100374727Y-114301680D01*
X100609759Y-114144637D01*
X100809637Y-113944759D01*
X100966680Y-113709727D01*
X101074853Y-113448574D01*
X101130000Y-113171335D01*
X101130000Y-112888665D01*
X101074853Y-112611426D01*
X100966680Y-112350273D01*
X100809637Y-112115241D01*
X100609759Y-111915363D01*
X100374727Y-111758320D01*
X100113574Y-111650147D01*
X99836335Y-111595000D01*
X99553665Y-111595000D01*
X99276426Y-111650147D01*
X99015273Y-111758320D01*
X98780241Y-111915363D01*
X98580363Y-112115241D01*
X98423320Y-112350273D01*
X98315147Y-112611426D01*
X98260000Y-112888665D01*
X64897000Y-112888665D01*
X64897000Y-108320000D01*
X87361928Y-108320000D01*
X87361928Y-110120000D01*
X87374188Y-110244482D01*
X87410498Y-110364180D01*
X87469463Y-110474494D01*
X87548815Y-110571185D01*
X87645506Y-110650537D01*
X87755820Y-110709502D01*
X87875518Y-110745812D01*
X88000000Y-110758072D01*
X89800000Y-110758072D01*
X89924482Y-110745812D01*
X90044180Y-110709502D01*
X90154494Y-110650537D01*
X90251185Y-110571185D01*
X90330537Y-110474494D01*
X90389502Y-110364180D01*
X90395056Y-110345873D01*
X90461495Y-110412312D01*
X90712905Y-110580299D01*
X90992257Y-110696011D01*
X91288816Y-110755000D01*
X91591184Y-110755000D01*
X91887743Y-110696011D01*
X92167095Y-110580299D01*
X92418505Y-110412312D01*
X92632312Y-110198505D01*
X92800299Y-109947095D01*
X92916011Y-109667743D01*
X92975000Y-109371184D01*
X92975000Y-109068816D01*
X92916011Y-108772257D01*
X92800299Y-108492905D01*
X92632312Y-108241495D01*
X92418505Y-108027688D01*
X92167095Y-107859701D01*
X91887743Y-107743989D01*
X91591184Y-107685000D01*
X91288816Y-107685000D01*
X90992257Y-107743989D01*
X90712905Y-107859701D01*
X90461495Y-108027688D01*
X90395056Y-108094127D01*
X90389502Y-108075820D01*
X90330537Y-107965506D01*
X90251185Y-107868815D01*
X90154494Y-107789463D01*
X90044180Y-107730498D01*
X89924482Y-107694188D01*
X89800000Y-107681928D01*
X88000000Y-107681928D01*
X87875518Y-107694188D01*
X87755820Y-107730498D01*
X87645506Y-107789463D01*
X87548815Y-107868815D01*
X87469463Y-107965506D01*
X87410498Y-108075820D01*
X87374188Y-108195518D01*
X87361928Y-108320000D01*
X64897000Y-108320000D01*
X64897000Y-104113531D01*
X72804389Y-104113531D01*
X72846401Y-104403019D01*
X72944081Y-104678747D01*
X72984759Y-104754850D01*
X72914463Y-104840506D01*
X72855498Y-104950820D01*
X72819188Y-105070518D01*
X72806928Y-105195000D01*
X72806928Y-106895000D01*
X72819188Y-107019482D01*
X72855498Y-107139180D01*
X72914463Y-107249494D01*
X72993815Y-107346185D01*
X73090506Y-107425537D01*
X73200820Y-107484502D01*
X73320518Y-107520812D01*
X73445000Y-107533072D01*
X75145000Y-107533072D01*
X75269482Y-107520812D01*
X75389180Y-107484502D01*
X75499494Y-107425537D01*
X75596185Y-107346185D01*
X75675537Y-107249494D01*
X75734502Y-107139180D01*
X75747203Y-107097310D01*
X75848368Y-107198475D01*
X76091589Y-107360990D01*
X76361842Y-107472932D01*
X76648740Y-107530000D01*
X76941260Y-107530000D01*
X77228158Y-107472932D01*
X77498411Y-107360990D01*
X77741632Y-107198475D01*
X77948475Y-106991632D01*
X78110990Y-106748411D01*
X78222932Y-106478158D01*
X78280000Y-106191260D01*
X78280000Y-105898740D01*
X78222932Y-105611842D01*
X78110990Y-105341589D01*
X77948475Y-105098368D01*
X77895107Y-105045000D01*
X77948475Y-104991632D01*
X78110990Y-104748411D01*
X78222932Y-104478158D01*
X78280000Y-104191260D01*
X78280000Y-103898740D01*
X78222932Y-103611842D01*
X78110990Y-103341589D01*
X77948475Y-103098368D01*
X77854716Y-103004609D01*
X80074997Y-103004609D01*
X80261073Y-103345766D01*
X80678409Y-103561513D01*
X81129815Y-103691696D01*
X81597946Y-103731313D01*
X82064811Y-103678842D01*
X82512468Y-103536297D01*
X82868927Y-103345766D01*
X83055003Y-103004609D01*
X81565000Y-101514605D01*
X80074997Y-103004609D01*
X77854716Y-103004609D01*
X77741632Y-102891525D01*
X77498411Y-102729010D01*
X77228158Y-102617068D01*
X76941260Y-102560000D01*
X76648740Y-102560000D01*
X76361842Y-102617068D01*
X76091589Y-102729010D01*
X75848368Y-102891525D01*
X75641525Y-103098368D01*
X75532584Y-103261410D01*
X75323397Y-103196208D01*
X74474605Y-104045000D01*
X74488748Y-104059143D01*
X74309143Y-104238748D01*
X74295000Y-104224605D01*
X74280858Y-104238748D01*
X74101253Y-104059143D01*
X74115395Y-104045000D01*
X73266603Y-103196208D01*
X73017528Y-103273843D01*
X72891629Y-103537883D01*
X72819661Y-103821411D01*
X72804389Y-104113531D01*
X64897000Y-104113531D01*
X64897000Y-103004609D01*
X68034997Y-103004609D01*
X68221073Y-103345766D01*
X68638409Y-103561513D01*
X69089815Y-103691696D01*
X69557946Y-103731313D01*
X70024811Y-103678842D01*
X70472468Y-103536297D01*
X70828927Y-103345766D01*
X71008461Y-103016603D01*
X73446208Y-103016603D01*
X74295000Y-103865395D01*
X75143792Y-103016603D01*
X75066157Y-102767528D01*
X74802117Y-102641629D01*
X74518589Y-102569661D01*
X74226469Y-102554389D01*
X73936981Y-102596401D01*
X73661253Y-102694081D01*
X73523843Y-102767528D01*
X73446208Y-103016603D01*
X71008461Y-103016603D01*
X71015003Y-103004609D01*
X69525000Y-101514605D01*
X68034997Y-103004609D01*
X64897000Y-103004609D01*
X64897000Y-101367946D01*
X67128687Y-101367946D01*
X67181158Y-101834811D01*
X67323703Y-102282468D01*
X67514234Y-102638927D01*
X67855391Y-102825003D01*
X69345395Y-101335000D01*
X69704605Y-101335000D01*
X71194609Y-102825003D01*
X71535766Y-102638927D01*
X71751513Y-102221591D01*
X71881696Y-101770185D01*
X71915736Y-101367946D01*
X79168687Y-101367946D01*
X79221158Y-101834811D01*
X79363703Y-102282468D01*
X79554234Y-102638927D01*
X79895391Y-102825003D01*
X81385395Y-101335000D01*
X81744605Y-101335000D01*
X83234609Y-102825003D01*
X83575766Y-102638927D01*
X83791513Y-102221591D01*
X83921696Y-101770185D01*
X83961313Y-101302054D01*
X83908842Y-100835189D01*
X83766297Y-100387532D01*
X83575766Y-100031073D01*
X83234609Y-99844997D01*
X81744605Y-101335000D01*
X81385395Y-101335000D01*
X79895391Y-99844997D01*
X79554234Y-100031073D01*
X79338487Y-100448409D01*
X79208304Y-100899815D01*
X79168687Y-101367946D01*
X71915736Y-101367946D01*
X71921313Y-101302054D01*
X71868842Y-100835189D01*
X71726297Y-100387532D01*
X71535766Y-100031073D01*
X71194609Y-99844997D01*
X69704605Y-101335000D01*
X69345395Y-101335000D01*
X67855391Y-99844997D01*
X67514234Y-100031073D01*
X67298487Y-100448409D01*
X67168304Y-100899815D01*
X67128687Y-101367946D01*
X64897000Y-101367946D01*
X64897000Y-99665391D01*
X68034997Y-99665391D01*
X69525000Y-101155395D01*
X71015003Y-99665391D01*
X80074997Y-99665391D01*
X81565000Y-101155395D01*
X83055003Y-99665391D01*
X82868927Y-99324234D01*
X82451591Y-99108487D01*
X82000185Y-98978304D01*
X81532054Y-98938687D01*
X81065189Y-98991158D01*
X80617532Y-99133703D01*
X80261073Y-99324234D01*
X80074997Y-99665391D01*
X71015003Y-99665391D01*
X70828927Y-99324234D01*
X70411591Y-99108487D01*
X69960185Y-98978304D01*
X69492054Y-98938687D01*
X69025189Y-98991158D01*
X68577532Y-99133703D01*
X68221073Y-99324234D01*
X68034997Y-99665391D01*
X64897000Y-99665391D01*
X64897000Y-98552000D01*
X104013000Y-98552000D01*
X104013000Y-112160746D01*
G36*
X121793000Y-95436489D02*
G01*
X121766185Y-95403815D01*
X121669494Y-95324463D01*
X121559180Y-95265498D01*
X121439482Y-95229188D01*
X121315000Y-95216928D01*
X120300750Y-95220000D01*
X120142000Y-95378750D01*
X120142000Y-97028000D01*
X120162000Y-97028000D01*
X120162000Y-97282000D01*
X120142000Y-97282000D01*
X120142000Y-98931250D01*
X120300750Y-99090000D01*
X121315000Y-99093072D01*
X121439482Y-99080812D01*
X121559180Y-99044502D01*
X121669494Y-98985537D01*
X121766185Y-98906185D01*
X121793000Y-98873511D01*
X121793000Y-100277394D01*
X115837322Y-106233072D01*
X115776250Y-106172000D01*
X114427000Y-106172000D01*
X114427000Y-106192000D01*
X114173000Y-106192000D01*
X114173000Y-106172000D01*
X112823750Y-106172000D01*
X112665000Y-106330750D01*
X112661928Y-106997500D01*
X112674188Y-107121982D01*
X112694214Y-107188000D01*
X110617000Y-107188000D01*
X110617000Y-105092500D01*
X112661928Y-105092500D01*
X112665000Y-105759250D01*
X112823750Y-105918000D01*
X114173000Y-105918000D01*
X114173000Y-104616250D01*
X114427000Y-104616250D01*
X114427000Y-105918000D01*
X115776250Y-105918000D01*
X115935000Y-105759250D01*
X115938072Y-105092500D01*
X115925812Y-104968018D01*
X115889502Y-104848320D01*
X115830537Y-104738006D01*
X115751185Y-104641315D01*
X115654494Y-104561963D01*
X115544180Y-104502998D01*
X115424482Y-104466688D01*
X115300000Y-104454428D01*
X114585750Y-104457500D01*
X114427000Y-104616250D01*
X114173000Y-104616250D01*
X114014250Y-104457500D01*
X113300000Y-104454428D01*
X113175518Y-104466688D01*
X113055820Y-104502998D01*
X112945506Y-104561963D01*
X112848815Y-104641315D01*
X112769463Y-104738006D01*
X112710498Y-104848320D01*
X112674188Y-104968018D01*
X112661928Y-105092500D01*
X110617000Y-105092500D01*
X110617000Y-98455000D01*
X118076928Y-98455000D01*
X118089188Y-98579482D01*
X118125498Y-98699180D01*
X118184463Y-98809494D01*
X118263815Y-98906185D01*
X118360506Y-98985537D01*
X118470820Y-99044502D01*
X118590518Y-99080812D01*
X118715000Y-99093072D01*
X119729250Y-99090000D01*
X119888000Y-98931250D01*
X119888000Y-97282000D01*
X118238750Y-97282000D01*
X118080000Y-97440750D01*
X118076928Y-98455000D01*
X110617000Y-98455000D01*
X110617000Y-95855000D01*
X118076928Y-95855000D01*
X118080000Y-96869250D01*
X118238750Y-97028000D01*
X119888000Y-97028000D01*
X119888000Y-95378750D01*
X119729250Y-95220000D01*
X118715000Y-95216928D01*
X118590518Y-95229188D01*
X118470820Y-95265498D01*
X118360506Y-95324463D01*
X118263815Y-95403815D01*
X118184463Y-95500506D01*
X118125498Y-95610820D01*
X118089188Y-95730518D01*
X118076928Y-95855000D01*
X110617000Y-95855000D01*
X110617000Y-94107000D01*
X121793000Y-94107000D01*
X121793000Y-95436489D01*
X121793000Y-95436489D01*
G37*
X121793000Y-95436489D02*
X121766185Y-95403815D01*
X121669494Y-95324463D01*
X121559180Y-95265498D01*
X121439482Y-95229188D01*
X121315000Y-95216928D01*
X120300750Y-95220000D01*
X120142000Y-95378750D01*
X120142000Y-97028000D01*
X120162000Y-97028000D01*
X120162000Y-97282000D01*
X120142000Y-97282000D01*
X120142000Y-98931250D01*
X120300750Y-99090000D01*
X121315000Y-99093072D01*
X121439482Y-99080812D01*
X121559180Y-99044502D01*
X121669494Y-98985537D01*
X121766185Y-98906185D01*
X121793000Y-98873511D01*
X121793000Y-100277394D01*
X115837322Y-106233072D01*
X115776250Y-106172000D01*
X114427000Y-106172000D01*
X114427000Y-106192000D01*
X114173000Y-106192000D01*
X114173000Y-106172000D01*
X112823750Y-106172000D01*
X112665000Y-106330750D01*
X112661928Y-106997500D01*
X112674188Y-107121982D01*
X112694214Y-107188000D01*
X110617000Y-107188000D01*
X110617000Y-105092500D01*
X112661928Y-105092500D01*
X112665000Y-105759250D01*
X112823750Y-105918000D01*
X114173000Y-105918000D01*
X114173000Y-104616250D01*
X114427000Y-104616250D01*
X114427000Y-105918000D01*
X115776250Y-105918000D01*
X115935000Y-105759250D01*
X115938072Y-105092500D01*
X115925812Y-104968018D01*
X115889502Y-104848320D01*
X115830537Y-104738006D01*
X115751185Y-104641315D01*
X115654494Y-104561963D01*
X115544180Y-104502998D01*
X115424482Y-104466688D01*
X115300000Y-104454428D01*
X114585750Y-104457500D01*
X114427000Y-104616250D01*
X114173000Y-104616250D01*
X114014250Y-104457500D01*
X113300000Y-104454428D01*
X113175518Y-104466688D01*
X113055820Y-104502998D01*
X112945506Y-104561963D01*
X112848815Y-104641315D01*
X112769463Y-104738006D01*
X112710498Y-104848320D01*
X112674188Y-104968018D01*
X112661928Y-105092500D01*
X110617000Y-105092500D01*
X110617000Y-98455000D01*
X118076928Y-98455000D01*
X118089188Y-98579482D01*
X118125498Y-98699180D01*
X118184463Y-98809494D01*
X118263815Y-98906185D01*
X118360506Y-98985537D01*
X118470820Y-99044502D01*
X118590518Y-99080812D01*
X118715000Y-99093072D01*
X119729250Y-99090000D01*
X119888000Y-98931250D01*
X119888000Y-97282000D01*
X118238750Y-97282000D01*
X118080000Y-97440750D01*
X118076928Y-98455000D01*
X110617000Y-98455000D01*
X110617000Y-95855000D01*
X118076928Y-95855000D01*
X118080000Y-96869250D01*
X118238750Y-97028000D01*
X119888000Y-97028000D01*
X119888000Y-95378750D01*
X119729250Y-95220000D01*
X118715000Y-95216928D01*
X118590518Y-95229188D01*
X118470820Y-95265498D01*
X118360506Y-95324463D01*
X118263815Y-95403815D01*
X118184463Y-95500506D01*
X118125498Y-95610820D01*
X118089188Y-95730518D01*
X118076928Y-95855000D01*
X110617000Y-95855000D01*
X110617000Y-94107000D01*
X121793000Y-94107000D01*
X121793000Y-95436489D01*
M02*
