G04 #@! TF.GenerationSoftware,KiCad,Pcbnew,5.1.2-f72e74a~84~ubuntu18.04.1*
G04 #@! TF.CreationDate,2019-07-29T23:39:44+03:00*
G04 #@! TF.ProjectId,tracer,74726163-6572-42e6-9b69-6361645f7063,rev?*
G04 #@! TF.SameCoordinates,Original*
G04 #@! TF.FileFunction,Soldermask,Bot*
G04 #@! TF.FilePolarity,Negative*
%FSLAX46Y46*%
G04 Gerber Fmt 4.6, Leading zero omitted, Abs format (unit mm)*
G04 Created by KiCad (PCBNEW 5.1.2-f72e74a~84~ubuntu18.04.1) date 2019-07-29 23:39:44*
%MOMM*%
%LPD*%
G04 APERTURE LIST*
%ADD10C,1.700000*%
%ADD11C,1.700000*%
%ADD12C,0.100000*%
%ADD13O,1.600000X1.600000*%
%ADD14R,1.600000X1.600000*%
%ADD15C,1.200000*%
%ADD16R,1.200000X1.200000*%
%ADD17C,1.600000*%
%ADD18C,2.600000*%
%ADD19R,2.600000X2.600000*%
%ADD20C,2.300000*%
%ADD21C,3.500000*%
%ADD22R,1.700000X1.700000*%
%ADD23C,1.800000*%
%ADD24R,1.800000X1.800000*%
%ADD25O,2.000000X1.905000*%
%ADD26R,2.000000X1.905000*%
%ADD27O,3.500000X3.500000*%
%ADD28O,1.905000X2.000000*%
%ADD29R,1.905000X2.000000*%
G04 APERTURE END LIST*
D10*
X93457341Y-145755295D03*
D11*
X93457341Y-145755295D02*
X93457341Y-145755295D01*
D10*
X92187341Y-147955000D03*
D11*
X92187341Y-147955000D02*
X92187341Y-147955000D01*
D10*
X91257636Y-144485295D03*
D11*
X91257636Y-144485295D02*
X91257636Y-144485295D01*
D10*
X89987636Y-146685000D03*
D11*
X89987636Y-146685000D02*
X89987636Y-146685000D01*
D10*
X89057932Y-143215295D03*
D11*
X89057932Y-143215295D02*
X89057932Y-143215295D01*
D10*
X87787932Y-145415000D03*
D11*
X87787932Y-145415000D02*
X87787932Y-145415000D01*
D10*
X86858227Y-141945295D03*
D11*
X86858227Y-141945295D02*
X86858227Y-141945295D01*
D10*
X85588227Y-144145000D03*
D11*
X85588227Y-144145000D02*
X85588227Y-144145000D01*
D10*
X84658523Y-140675295D03*
D11*
X84658523Y-140675295D02*
X84658523Y-140675295D01*
D10*
X83388523Y-142875000D03*
D11*
X83388523Y-142875000D02*
X83388523Y-142875000D01*
D10*
X82458818Y-139405295D03*
D11*
X82458818Y-139405295D02*
X82458818Y-139405295D01*
D10*
X81188818Y-141605000D03*
D11*
X81188818Y-141605000D02*
X81188818Y-141605000D01*
D10*
X80259114Y-138135295D03*
D11*
X80259114Y-138135295D02*
X80259114Y-138135295D01*
D10*
X78989114Y-140335000D03*
D11*
X78989114Y-140335000D02*
X78989114Y-140335000D01*
D10*
X78059409Y-136865295D03*
D11*
X78059409Y-136865295D02*
X78059409Y-136865295D01*
D10*
X76789409Y-139065000D03*
D11*
X76789409Y-139065000D02*
X76789409Y-139065000D01*
D10*
X75859705Y-135595295D03*
D11*
X75859705Y-135595295D02*
X75859705Y-135595295D01*
D10*
X74589705Y-137795000D03*
D11*
X74589705Y-137795000D02*
X74589705Y-137795000D01*
D10*
X73660000Y-134325295D03*
D11*
X73660000Y-134325295D02*
X73660000Y-134325295D01*
D10*
X72390000Y-136525000D03*
D12*
G36*
X72701122Y-137686122D02*
G01*
X71228878Y-136836122D01*
X72078878Y-135363878D01*
X73551122Y-136213878D01*
X72701122Y-137686122D01*
X72701122Y-137686122D01*
G37*
D13*
X132715000Y-125730000D03*
X125095000Y-118110000D03*
X130175000Y-125730000D03*
X127635000Y-118110000D03*
X127635000Y-125730000D03*
X130175000Y-118110000D03*
X125095000Y-125730000D03*
D14*
X132715000Y-118110000D03*
D15*
X140335000Y-131675000D03*
D16*
X140335000Y-130175000D03*
D17*
X135890000Y-129580000D03*
X135890000Y-132080000D03*
X85090000Y-124460000D03*
X82590000Y-124460000D03*
D18*
X125095000Y-97155000D03*
D19*
X120015000Y-97155000D03*
D18*
X146685000Y-151130000D03*
D19*
X146685000Y-146050000D03*
D15*
X120015000Y-127540000D03*
D16*
X120015000Y-129540000D03*
D15*
X122650000Y-147955000D03*
D16*
X120650000Y-147955000D03*
D15*
X114840000Y-147955000D03*
D16*
X116840000Y-147955000D03*
D17*
X94615000Y-116205000D03*
X94615000Y-118705000D03*
X94615000Y-121960000D03*
X94615000Y-124460000D03*
D20*
X90170000Y-123010000D03*
X90170000Y-118110000D03*
D21*
X81565000Y-101335000D03*
X69525000Y-101335000D03*
D10*
X74295000Y-104045000D03*
X76795000Y-104045000D03*
X76795000Y-106045000D03*
D22*
X74295000Y-106045000D03*
D15*
X69850000Y-114205000D03*
D16*
X69850000Y-116205000D03*
D13*
X102870000Y-113030000D03*
D17*
X102870000Y-120650000D03*
D13*
X99695000Y-120650000D03*
D17*
X99695000Y-113030000D03*
D23*
X91440000Y-109220000D03*
D24*
X88900000Y-109220000D03*
D13*
X130810000Y-151130000D03*
X138430000Y-135890000D03*
X130810000Y-148590000D03*
X138430000Y-138430000D03*
X130810000Y-146050000D03*
X138430000Y-140970000D03*
X130810000Y-143510000D03*
X138430000Y-143510000D03*
X130810000Y-140970000D03*
X138430000Y-146050000D03*
X130810000Y-138430000D03*
X138430000Y-148590000D03*
X130810000Y-135890000D03*
D14*
X138430000Y-151130000D03*
D13*
X114935000Y-135890000D03*
X122555000Y-143510000D03*
X117475000Y-135890000D03*
X120015000Y-143510000D03*
X120015000Y-135890000D03*
X117475000Y-143510000D03*
X122555000Y-135890000D03*
D14*
X114935000Y-143510000D03*
D25*
X114300000Y-111125000D03*
X114300000Y-108585000D03*
D26*
X114300000Y-106045000D03*
D27*
X130960000Y-108585000D03*
D13*
X114300000Y-123190000D03*
X106680000Y-130810000D03*
X114300000Y-125730000D03*
X106680000Y-128270000D03*
X114300000Y-128270000D03*
X106680000Y-125730000D03*
X114300000Y-130810000D03*
D14*
X106680000Y-123190000D03*
D13*
X144830000Y-139300000D03*
D17*
X144830000Y-131680000D03*
D13*
X148880000Y-139300000D03*
D17*
X148880000Y-131680000D03*
D28*
X144780000Y-127000000D03*
X142240000Y-127000000D03*
D29*
X139700000Y-127000000D03*
D27*
X142240000Y-110340000D03*
M02*
